<svg width="157" height="53" viewBox="0 0 157 53" fill="none" xmlns="http://www.w3.org/2000/svg">
<path d="M18.9632 5.67183L18.4976 4.08452L20.4764 5.22738L20.8997 5.11098L20.2648 2.94165L19.8627 3.06864L20.3177 4.6242L18.3812 3.49192L17.9261 3.62949L18.5505 5.78823L18.9632 5.67183Z" fill="white"/>
<path d="M21.6617 4.97345L21.5135 4.08455L23.1326 3.82L23.0691 3.42846L21.45 3.7036L21.3654 3.18507L23.0162 2.92052L22.9421 2.47607L20.8574 2.82528L21.2278 5.04752L21.6617 4.97345Z" fill="white"/>
<path d="M24.2435 2.82532L24.3493 4.62428L24.7831 4.60311L24.6879 2.80416L25.5027 2.76183L25.4816 2.31738L23.4075 2.43378L23.4286 2.86765L24.2435 2.82532Z" fill="white"/>
<path d="M26.36 4.59277L27.5347 4.64568L27.6087 4.26472L26.3812 4.21181C26.3071 4.21181 26.2436 4.19065 26.2013 4.14832C26.159 4.11658 26.1378 4.0425 26.1484 3.95784V3.85202L27.6511 3.91552L27.6722 3.50281C27.6828 3.28059 27.6299 3.12186 27.5135 3.01604C27.3971 2.91022 27.2384 2.85731 27.0161 2.84673L26.4341 2.82556C26.2225 2.81498 26.0532 2.85731 25.9262 2.95255C25.7992 3.04779 25.7357 3.19593 25.7251 3.41816L25.704 3.93668C25.6934 4.1589 25.7463 4.31763 25.8627 4.42346C25.9897 4.52928 26.1484 4.58219 26.36 4.59277ZM26.1696 3.43932C26.1696 3.35466 26.1907 3.29117 26.2331 3.25943C26.2754 3.2171 26.3389 3.20652 26.4235 3.20652L27.0056 3.22768C27.0902 3.22768 27.1537 3.25943 27.1855 3.29117C27.2172 3.3335 27.2384 3.39699 27.2278 3.50281V3.61922L26.159 3.57689L26.1696 3.43932Z" fill="white"/>
<path d="M28.6351 4.77259L29.7991 4.94191L29.9155 4.57153L28.6986 4.39164C28.6245 4.38105 28.5716 4.34931 28.5293 4.31756C28.4975 4.27523 28.4764 4.21174 28.4975 4.1165L28.5187 4.01068L30.0108 4.2329L30.0743 3.8202C30.106 3.59798 30.0743 3.43925 29.9684 3.32285C29.8626 3.20644 29.7039 3.13237 29.4922 3.10062L28.9102 3.01597C28.6986 2.98422 28.5293 3.00538 28.3917 3.09004C28.2647 3.16412 28.1801 3.31226 28.1483 3.53449L28.0742 4.05301C28.0425 4.27523 28.0742 4.43396 28.1801 4.55037C28.2647 4.67735 28.4235 4.74085 28.6351 4.77259ZM28.561 3.60856C28.5716 3.52391 28.6034 3.47099 28.6457 3.43925C28.688 3.4075 28.7515 3.39692 28.8362 3.4075L29.4182 3.49216C29.5028 3.50274 29.5663 3.53449 29.5981 3.57682C29.6298 3.61914 29.6404 3.69322 29.6192 3.78846L29.5981 3.90486L28.5399 3.74613L28.561 3.60856Z" fill="white"/>
<path d="M31.6828 5.39672C31.7568 5.4073 31.8309 5.39672 31.8838 5.38614C31.9367 5.36498 31.9896 5.33323 32.0214 5.2909C32.0637 5.24857 32.0849 5.18508 32.106 5.10043L32.159 4.90995C32.1907 4.7618 32.1695 4.65598 32.0955 4.57132C32.0108 4.48666 31.8838 4.42317 31.6828 4.37026L31.0584 4.21153C30.9949 4.20095 30.9632 4.1692 30.9314 4.13745C30.9103 4.10571 30.9103 4.0528 30.9208 3.98931C30.942 3.91523 30.9632 3.8729 31.0055 3.86232C31.0372 3.84116 31.0902 3.84116 31.1431 3.86232L32.233 4.13745L32.3918 3.77766L31.2277 3.48137C31.1219 3.4602 31.0372 3.43904 30.9526 3.42846C30.8785 3.41787 30.8044 3.42845 30.7515 3.43904C30.6986 3.4602 30.6457 3.49195 30.614 3.53428C30.5716 3.5766 30.5505 3.6401 30.5293 3.72475L30.487 3.90465C30.4447 4.0528 30.4658 4.1692 30.5505 4.24328C30.6245 4.32793 30.7621 4.39142 30.9632 4.44433L31.5875 4.60307C31.651 4.61365 31.6828 4.64539 31.7145 4.66656C31.7357 4.69831 31.7357 4.75122 31.7145 4.82529C31.6933 4.89936 31.6722 4.94169 31.6298 4.96286C31.5981 4.98402 31.5452 4.98402 31.4923 4.96286L30.3071 4.65598C30.2859 4.71947 30.2542 4.77238 30.233 4.83587C30.2118 4.89937 30.1801 4.95228 30.1589 5.01577L31.4182 5.34381C31.5134 5.37556 31.6087 5.38614 31.6828 5.39672Z" fill="white"/>
<path d="M39.0372 7.11119L39.3018 9.39692L39.651 9.65089L41.0055 7.85193L40.6668 7.59796L39.6827 8.89956L39.4287 6.67732L39.0584 6.3916L37.7039 8.17998L38.0319 8.43395L39.0372 7.11119Z" fill="white"/>
<path d="M40.2119 10.1904L40.8362 9.54492L42.0214 10.6772L42.286 10.3915L41.1113 9.2592L41.4711 8.88883L42.6669 10.0423L42.9844 9.72482L41.4606 8.25391L39.8944 9.88355L40.2119 10.1904Z" fill="white"/>
<path d="M43.4713 10.9736L42.0956 12.1271L42.3707 12.4657L43.757 11.3122L44.2861 11.9366L44.6247 11.6509L43.2914 10.053L42.9527 10.3387L43.4713 10.9736Z" fill="white"/>
<path d="M43.8947 12.5187L43.4608 12.815C43.2809 12.942 43.1857 13.0795 43.1645 13.2277C43.1539 13.3758 43.2069 13.5451 43.3233 13.725L43.9794 14.6986L44.3286 14.5293L43.6407 13.5134C43.5984 13.4499 43.5772 13.3864 43.5878 13.3335C43.5878 13.2806 43.6301 13.2277 43.7042 13.1748L43.7889 13.1113L44.6354 14.36L44.9741 14.1272C45.154 14.0002 45.2492 13.8626 45.2704 13.7145C45.2809 13.5557 45.228 13.397 45.1116 13.2171L44.7836 12.7303C44.6672 12.5504 44.5296 12.4446 44.3815 12.4023C44.2439 12.3599 44.0746 12.4023 43.8947 12.5187ZM44.4767 12.942L44.8048 13.4287C44.8577 13.5028 44.8682 13.5663 44.8577 13.6192C44.8471 13.6721 44.8048 13.725 44.7201 13.7779L44.6249 13.8414L44.0217 12.9631L44.1381 12.889C44.2016 12.8467 44.2651 12.8256 44.318 12.8361C44.3709 12.8361 44.4238 12.8785 44.4767 12.942Z" fill="white"/>
<path d="M44.7623 14.7618C44.5718 14.8676 44.4554 14.9946 44.4236 15.1427C44.3919 15.2909 44.4342 15.4602 44.5295 15.6507L45.0797 16.6877L45.4395 16.5607L44.8575 15.4814C44.8258 15.4179 44.8046 15.3544 44.8152 15.3015C44.8258 15.2486 44.8681 15.1957 44.9527 15.1533L45.048 15.1004L45.757 16.4338L46.1274 16.2327C46.3178 16.1269 46.4342 15.9999 46.466 15.8517C46.4977 15.7036 46.4554 15.5343 46.3602 15.3438L46.085 14.8253C45.9792 14.6348 45.8628 14.5184 45.7252 14.4549C45.5877 14.3914 45.4183 14.4232 45.2173 14.5184L44.7623 14.7618ZM45.4289 14.8994C45.503 14.857 45.5665 14.8464 45.6194 14.857C45.6723 14.8676 45.7146 14.9205 45.757 14.9946L46.0321 15.5131C46.0744 15.5872 46.085 15.6507 46.0639 15.7036C46.0427 15.7565 45.9898 15.7988 45.9051 15.8517L45.7993 15.9047L45.2914 14.9628L45.4289 14.8994Z" fill="white"/>
<path d="M46.0955 16.8783C46.0744 16.9947 46.1061 17.1429 46.1802 17.3334L46.4236 17.9366C46.4447 17.9895 46.4553 18.0424 46.4447 18.0741C46.4341 18.1059 46.3918 18.1482 46.3177 18.1694C46.2437 18.2011 46.1908 18.2011 46.159 18.1905C46.1273 18.1694 46.0955 18.1376 46.0743 18.0741L45.6087 16.9418C45.5452 16.9524 45.4818 16.9736 45.4183 16.9842C45.3548 16.9947 45.2913 17.0159 45.2278 17.0265L45.7251 18.2329C45.7675 18.3281 45.8098 18.4127 45.8415 18.4762C45.8839 18.5397 45.9262 18.5926 45.9791 18.635C46.032 18.6667 46.0849 18.6879 46.1378 18.6879C46.1908 18.6879 46.2648 18.6773 46.3389 18.6456L46.5188 18.5715C46.6564 18.5186 46.7304 18.4339 46.7516 18.3175C46.7728 18.2011 46.741 18.053 46.6669 17.8625L46.4236 17.2593C46.4024 17.2064 46.3918 17.1535 46.4024 17.1217C46.413 17.09 46.4553 17.0582 46.5188 17.0265C46.5823 16.9947 46.6352 16.9947 46.6669 17.0159C46.6987 17.0371 46.7304 17.0688 46.7516 17.1323L47.1749 18.1694L47.5558 18.0847L47.1008 16.9736C47.0585 16.8783 47.0162 16.7937 46.9738 16.7302C46.9315 16.6667 46.8892 16.6138 46.8363 16.5715C46.7939 16.5397 46.7304 16.5186 46.6775 16.5186C46.614 16.5186 46.5505 16.5291 46.4765 16.5609L46.2966 16.635C46.2013 16.6773 46.1167 16.7619 46.0955 16.8783Z" fill="white"/>
<path d="M47.1748 24.3813L48.8257 24.3072L47.2383 25.958L47.2595 26.3919L49.5029 26.2967L49.4817 25.8734L47.8627 25.9475L49.4182 24.339L49.3971 23.8628L47.1537 23.958L47.1748 24.3813Z" fill="white"/>
<path d="M47.2068 27.1747L48.0957 27.2382L47.9687 28.8784L48.3602 28.8996L48.4872 27.2699L49.0057 27.3122L48.8682 28.9842L49.3126 29.016L49.4819 26.9101L47.2385 26.7302L47.2068 27.1747Z" fill="white"/>
<path d="M48.6564 30.1907L46.8892 29.8521L46.8046 30.286L48.5824 30.6246L48.4236 31.4288L48.8575 31.5135L49.249 29.4711L48.8152 29.3865L48.6564 30.1907Z" fill="white"/>
<path d="M47.7252 31.4924L47.2278 31.3443C47.0162 31.2808 46.8469 31.2914 46.7199 31.376C46.5929 31.4607 46.4977 31.6088 46.4447 31.8099L46.1167 32.9316L46.4659 33.0903L46.8151 31.9157C46.8363 31.8416 46.868 31.7887 46.9104 31.757C46.9527 31.7252 47.0268 31.7252 47.1114 31.7464L47.2172 31.7782L46.794 33.2279L47.1961 33.3443C47.4077 33.4078 47.577 33.3972 47.704 33.302C47.831 33.2173 47.9262 33.0692 47.9897 32.8681L48.159 32.3073C48.2225 32.1062 48.2225 31.9263 48.159 31.7887C48.0744 31.6617 47.9368 31.5559 47.7252 31.4924ZM47.7675 32.212L47.5982 32.7729C47.577 32.8575 47.5347 32.9104 47.4924 32.9316C47.4395 32.9528 47.376 32.9528 47.2807 32.9316L47.1643 32.8998L47.4606 31.8734L47.5982 31.9157C47.6828 31.9369 47.7358 31.9792 47.7569 32.0215C47.7887 32.0639 47.7887 32.1274 47.7675 32.212Z" fill="white"/>
<path d="M47.0267 33.7885L46.54 33.5874C46.3389 33.5028 46.1696 33.5028 46.032 33.5663C45.8944 33.6403 45.7886 33.7779 45.704 33.9684L45.2595 35.0583L45.5876 35.2594L46.0532 34.1271C46.0849 34.053 46.1167 34.0107 46.1696 33.979C46.2225 33.9578 46.286 33.9578 46.3706 33.9895L46.4659 34.0319L45.8944 35.4287L46.2754 35.5874C46.4765 35.6721 46.6458 35.6721 46.7833 35.598C46.9209 35.5239 47.0267 35.3864 47.1114 35.1959L47.3336 34.6562C47.4183 34.4552 47.4288 34.2858 47.3865 34.1377C47.3548 33.9895 47.2278 33.8731 47.0267 33.7885ZM46.995 34.5081L46.7728 35.0477C46.741 35.1324 46.6987 35.1747 46.6458 35.1959C46.5929 35.2171 46.5294 35.2065 46.4341 35.1642L46.3283 35.1218L46.741 34.1377L46.868 34.1906C46.9421 34.2223 46.995 34.2647 47.0161 34.307C47.0267 34.3599 47.0267 34.4234 46.995 34.5081Z" fill="white"/>
<path d="M46.2754 36.0746L46.1061 35.99C45.9685 35.9159 45.8627 35.9159 45.7568 35.9688C45.6616 36.0217 45.5558 36.1381 45.4605 36.318L45.1537 36.8895C45.1219 36.9424 45.0902 36.9741 45.0584 36.9953C45.0267 37.0059 44.9738 36.9953 44.9103 36.9635C44.8468 36.9318 44.8045 36.8895 44.7939 36.8577C44.7833 36.8154 44.7939 36.7731 44.8256 36.7201L45.4076 35.6408C45.3547 35.5984 45.3018 35.5667 45.2595 35.5244C45.2066 35.482 45.1537 35.4503 45.1113 35.408L44.4976 36.5614C44.4447 36.6566 44.4129 36.7413 44.3812 36.8154C44.3494 36.8894 44.3388 36.9529 44.3494 37.0164C44.3494 37.0799 44.3706 37.1328 44.4023 37.1752C44.4341 37.2175 44.487 37.2598 44.5611 37.3022L44.7304 37.3974C44.8574 37.4715 44.9738 37.4715 45.0796 37.4186C45.1854 37.3656 45.2806 37.2492 45.3759 37.0693L45.6828 36.4979C45.7145 36.445 45.7463 36.4133 45.778 36.3921C45.8098 36.3815 45.8627 36.3921 45.9262 36.4238C45.9896 36.4556 46.032 36.4979 46.032 36.5297C46.0426 36.572 46.032 36.6143 46.0002 36.6672L45.4711 37.6514L45.778 37.8842L46.3494 36.826C46.4023 36.7307 46.4341 36.6461 46.4658 36.572C46.487 36.4979 46.4976 36.4344 46.4976 36.3709C46.4976 36.3074 46.4764 36.2545 46.4341 36.2122C46.4023 36.1593 46.3494 36.117 46.2754 36.0746Z" fill="white"/>
<path d="M40.646 41.556L41.7465 42.7941L39.4608 42.6142L39.1433 42.8999L40.6354 44.5825L40.9528 44.2967L39.8735 43.0798L42.1063 43.2703L42.4555 42.9528L40.9634 41.2703L40.646 41.556Z" fill="white"/>
<path d="M38.5083 43.355L39.0162 44.0852L37.6829 45.027L37.9051 45.3445L39.249 44.4132L39.5453 44.8365L38.1696 45.7889L38.4236 46.1593L40.1591 44.9424L38.868 43.1011L38.5083 43.355Z" fill="white"/>
<path d="M37.1007 46.4025L36.233 44.8152L35.8521 45.0268L36.7092 46.6036L35.9896 47.0057L36.2013 47.3972L38.032 46.3919L37.8203 46.0004L37.1007 46.4025Z" fill="white"/>
<path d="M35.2911 46.0217C35.2064 45.8206 35.09 45.6936 34.9419 45.6513C34.7937 45.609 34.6244 45.6301 34.4234 45.7148L33.344 46.1698L33.4392 46.5402L34.5715 46.064C34.6456 46.0322 34.6985 46.0322 34.7514 46.0428C34.8043 46.0534 34.8466 46.1063 34.889 46.191L34.9313 46.2862L33.545 46.8788L33.7038 47.2598C33.7884 47.4608 33.9048 47.5878 34.053 47.6301C34.2011 47.6725 34.3705 47.6513 34.5715 47.5667L35.1112 47.3338C35.3123 47.2492 35.4392 47.1434 35.5133 47.0058C35.5874 46.8682 35.5768 46.6989 35.4922 46.4979L35.2911 46.0217ZM35.1218 46.8682C35.1006 46.9211 35.0583 46.9635 34.9736 46.9952L34.4339 47.228C34.3493 47.2598 34.2858 47.2704 34.2435 47.2492C34.1906 47.228 34.1482 47.1751 34.1165 47.0799L34.0742 46.9741L35.0583 46.5614L35.1112 46.6883C35.1324 46.7518 35.1324 46.8153 35.1218 46.8682Z" fill="white"/>
<path d="M33.1325 46.921C33.069 46.7094 32.9632 46.5718 32.8256 46.5189C32.6881 46.466 32.5082 46.466 32.3071 46.5295L31.1854 46.8681L31.2383 47.2491L32.4129 46.8893C32.487 46.8681 32.5505 46.8681 32.6034 46.8893C32.6563 46.9105 32.6881 46.9634 32.7198 47.048L32.7516 47.1538L31.3124 47.5983L31.4288 48.0004C31.4923 48.2121 31.5981 48.3496 31.7357 48.4025C31.8838 48.4554 32.0532 48.4554 32.2542 48.392L32.8151 48.2226C33.0161 48.1591 33.1643 48.0639 33.2489 47.9369C33.3336 47.8099 33.3442 47.6406 33.2807 47.429L33.1325 46.921ZM32.868 47.7359C32.8468 47.7888 32.7939 47.8205 32.7092 47.8417L32.1484 48.011C32.0637 48.0322 32.0002 48.0322 31.9473 48.011C31.905 47.9792 31.8627 47.9263 31.8309 47.8311L31.7992 47.7147L32.8256 47.4078L32.868 47.5454C32.8891 47.6195 32.8891 47.6829 32.868 47.7359Z" fill="white"/>
<path d="M31.0055 48.1062C30.9738 47.9581 30.9103 47.8629 30.8044 47.8205C30.6986 47.7782 30.5399 47.7782 30.3494 47.8205L29.7145 47.9475C29.651 47.9581 29.6087 47.9581 29.5769 47.9369C29.5452 47.9158 29.524 47.8734 29.5028 47.7994C29.4923 47.7253 29.4923 47.6724 29.5134 47.6406C29.5346 47.6089 29.5769 47.5877 29.6404 47.5771L30.8362 47.3443C30.8362 47.2808 30.8362 47.2173 30.8256 47.1539C30.8256 47.0904 30.8256 47.0269 30.815 46.9634L29.5346 47.2173C29.4288 47.2385 29.3441 47.2597 29.27 47.2914C29.196 47.3232 29.1325 47.3549 29.0902 47.3972C29.0478 47.4396 29.0161 47.4819 29.0055 47.5454C28.9949 47.5983 28.9949 47.6724 29.0055 47.7464L29.0478 47.9369C29.0796 48.0851 29.1431 48.1803 29.2489 48.2226C29.3547 48.265 29.5134 48.265 29.7039 48.2226L30.3388 48.0957C30.4023 48.0851 30.4447 48.0851 30.4764 48.1062C30.5081 48.1274 30.5293 48.1697 30.5505 48.2438C30.5611 48.3179 30.5611 48.3708 30.5399 48.392C30.5187 48.4237 30.4764 48.4449 30.4129 48.4555L29.3124 48.6777L29.323 49.0692L30.5081 48.8364C30.614 48.8152 30.6986 48.7941 30.7727 48.7623C30.8468 48.7306 30.9103 48.6988 30.9526 48.6565C30.9949 48.6142 31.0267 48.5719 31.0373 48.5084C31.0478 48.4449 31.0478 48.3814 31.0373 48.3073L31.0055 48.1062Z" fill="white"/>
<path d="M22.9738 49.0584L21.6617 47.1748L21.2384 47.1113L20.8892 49.3336L21.3124 49.3971L21.5664 47.7886L22.8363 49.6299L23.3019 49.7039L23.6511 47.4817L23.2384 47.4182L22.9738 49.0584Z" fill="white"/>
<path d="M20.4869 46.8999L20.2435 47.7676L18.6668 47.3232L18.5609 47.7041L20.1377 48.1486L20.0001 48.6459L18.3916 48.1909L18.2646 48.6142L20.307 49.1856L20.9102 47.0269L20.4869 46.8999Z" fill="white"/>
<path d="M17.9155 46.0743L17.5028 45.905L16.8255 47.577L16.0742 47.2701L15.9049 47.6828L17.8308 48.4659L18.0002 48.0532L17.2383 47.7463L17.9155 46.0743Z" fill="white"/>
<path d="M16.1483 46.572L16.3916 46.1064C16.4975 45.9159 16.5186 45.7466 16.4551 45.5985C16.3916 45.4609 16.2647 45.3339 16.0848 45.2387L15.0477 44.699L14.8255 45.0059L15.9155 45.5773C15.9789 45.609 16.0319 45.6514 16.053 45.7043C16.0742 45.7572 16.0636 45.8207 16.0213 45.9053L15.9684 46.0006L14.635 45.3022L14.4445 45.6725C14.3387 45.863 14.3176 46.0323 14.3811 46.1805C14.4445 46.318 14.5715 46.445 14.762 46.5403L15.2805 46.8154C15.471 46.9106 15.6403 46.953 15.7885 46.9212C15.9155 46.8789 16.0424 46.7731 16.1483 46.572ZM15.7567 46.3709C15.7144 46.445 15.6721 46.4874 15.6192 46.5085C15.5662 46.5297 15.5028 46.5191 15.4287 46.4768L14.9102 46.2016C14.8361 46.1593 14.7832 46.117 14.7726 46.0641C14.762 46.0112 14.7726 45.9371 14.8149 45.8524L14.8678 45.7466L15.8202 46.244L15.7567 46.3709Z" fill="white"/>
<path d="M14.434 44.5081C14.3917 44.3599 14.2753 44.2329 14.0954 44.106L13.1218 43.4604L12.8679 43.7462L13.8943 44.4234C13.9578 44.4658 14.0002 44.5081 14.0107 44.561C14.0319 44.6139 14.0107 44.6774 13.9578 44.7515L13.8943 44.8361L12.6351 44.0001L12.4023 44.3493C12.2753 44.5292 12.2435 44.6986 12.2859 44.8467C12.3282 44.9949 12.4446 45.1218 12.6245 45.2488L13.1113 45.5769C13.2912 45.6933 13.4499 45.7462 13.6086 45.7356C13.7568 45.725 13.8943 45.6192 14.0213 45.4393L14.307 45.0054C14.434 44.8255 14.4764 44.6562 14.434 44.5081ZM13.6615 45.2065C13.6192 45.2806 13.5663 45.3123 13.5134 45.3335C13.4605 45.3441 13.397 45.3229 13.3229 45.2806L12.8361 44.9525C12.7621 44.8996 12.7197 44.8573 12.7091 44.7938C12.6986 44.7409 12.7197 44.6774 12.7726 44.5927L12.8361 44.4975L13.725 45.0901L13.6615 45.2065Z" fill="white"/>
<path d="M11.8518 43.4288L11.3545 43.0161C11.3122 42.9738 11.2804 42.942 11.2698 42.8997C11.2592 42.8573 11.2804 42.815 11.3333 42.7515C11.3862 42.688 11.4286 42.6669 11.4603 42.6669C11.5026 42.6669 11.545 42.688 11.5873 42.7304L12.5291 43.5029C12.582 43.4605 12.6243 43.4182 12.6772 43.3759C12.7302 43.3335 12.7725 43.2912 12.8254 43.2489L11.8201 42.4235C11.7354 42.36 11.6614 42.3071 11.5979 42.2648C11.5344 42.2224 11.4709 42.2013 11.4074 42.1907C11.3439 42.1801 11.291 42.1907 11.2381 42.2118C11.1852 42.233 11.1323 42.2753 11.0793 42.3494L10.9524 42.4976C10.8571 42.614 10.8254 42.7198 10.8677 42.8362C10.8995 42.942 10.9947 43.069 11.1534 43.196L11.6508 43.6087C11.6931 43.651 11.7249 43.6827 11.7354 43.7251C11.746 43.7674 11.7249 43.8097 11.6719 43.8626C11.6296 43.9156 11.5873 43.9473 11.545 43.9473C11.5026 43.9473 11.4603 43.9261 11.418 43.8838L10.5502 43.1748L10.2645 43.4288L11.1958 44.1907C11.2804 44.2542 11.3545 44.3071 11.418 44.3494C11.4921 44.3918 11.5555 44.4129 11.6085 44.4235C11.6719 44.4341 11.7249 44.4235 11.7778 44.3918C11.8307 44.3706 11.8836 44.3177 11.9365 44.2542L12.0529 44.106C12.1481 43.9896 12.1799 43.8732 12.1376 43.7674C12.1058 43.6722 12.0106 43.5558 11.8518 43.4288Z" fill="white"/>
<path d="M6.22239 38.5188L6.84673 36.3177L6.62451 35.9368L4.68799 37.0796L4.89963 37.45L6.30705 36.6246L5.6827 38.7728L5.92609 39.1855L7.86261 38.0426L7.65097 37.6828L6.22239 38.5188Z" fill="white"/>
<path d="M6.30696 35.228L5.48156 35.5878L4.82547 34.0957L4.46568 34.2544L5.12177 35.7465L4.65615 35.9582L3.9789 34.4238L3.57678 34.6036L4.42335 36.5402L6.47627 35.6407L6.30696 35.228Z" fill="white"/>
<path d="M3.59794 33.2598L5.31224 32.7201L5.18525 32.2969L3.46037 32.8365L3.21698 32.0535L2.7937 32.1805L3.41804 34.1699L3.84133 34.0429L3.59794 33.2598Z" fill="white"/>
<path d="M4.2223 31.1325L4.11648 31.1536L3.8096 29.6827L3.40748 29.7674C3.19584 29.8097 3.04769 29.9049 2.9842 30.0425C2.91012 30.1801 2.89954 30.3494 2.94187 30.561L3.05828 31.1325C3.1006 31.3441 3.18526 31.4923 3.30166 31.5875C3.41807 31.6827 3.58738 31.7039 3.79902 31.6616L4.30696 31.5557C4.5186 31.5134 4.66675 31.4182 4.74083 31.2806C4.8149 31.143 4.82548 30.9737 4.78315 30.7621L4.53977 29.6086L4.15881 29.6298L4.41278 30.8362C4.42336 30.9102 4.42336 30.9737 4.4022 31.0266C4.37045 31.0796 4.31754 31.1113 4.2223 31.1325ZM3.71436 31.2383C3.62971 31.2594 3.56621 31.2489 3.52389 31.2171C3.48156 31.1854 3.44981 31.1325 3.42865 31.0478L3.31224 30.4764C3.29108 30.3917 3.30166 30.3282 3.33341 30.2859C3.36515 30.2436 3.42865 30.2118 3.52389 30.1907L3.64029 30.1695L3.86251 31.2171L3.71436 31.2383Z" fill="white"/>
<path d="M3.3334 29.3128L3.85192 29.2598C4.07415 29.2387 4.22229 29.1646 4.30695 29.0376C4.39161 28.9106 4.42335 28.7413 4.40219 28.5297L4.28579 27.3656L3.90483 27.3445L4.03182 28.572C4.0424 28.6461 4.03182 28.7096 4.00007 28.7519C3.96833 28.7942 3.90483 28.826 3.82018 28.8366L3.71435 28.8471L3.55562 27.3445L3.14292 27.3868C2.9207 27.408 2.77255 27.4821 2.68789 27.6196C2.60324 27.7466 2.57149 27.9159 2.59265 28.1276L2.65615 28.7096C2.67731 28.9212 2.7408 29.0799 2.84663 29.1858C2.95245 29.2916 3.11117 29.3339 3.3334 29.3128ZM3.00536 27.8948C3.0371 27.8524 3.11118 27.8313 3.20642 27.8207L3.32282 27.8101L3.42864 28.8789L3.29107 28.8895C3.20641 28.9 3.14292 28.8895 3.10059 28.8577C3.05827 28.826 3.0371 28.7625 3.02652 28.6778L2.96303 28.0958C2.95244 28.0006 2.96303 27.9371 3.00536 27.8948Z" fill="white"/>
<path d="M2.709 26.91C2.76191 26.9312 2.83598 26.9524 2.91006 26.9524H3.10054C3.24869 26.9524 3.35451 26.8995 3.418 26.8042C3.48149 26.709 3.51324 26.5608 3.51324 26.3598V25.7143C3.51324 25.6508 3.52382 25.6085 3.54498 25.5767C3.56615 25.545 3.61906 25.5344 3.69314 25.5344C3.76721 25.5344 3.82012 25.545 3.84128 25.5767C3.86245 25.6085 3.87303 25.6508 3.87303 25.7143V26.9418C3.93652 26.9524 4.00002 26.963 4.06351 26.9735C4.127 26.9841 4.19049 26.9947 4.25399 27.0053V25.7037C4.25399 25.5979 4.2434 25.5026 4.23282 25.4286C4.22224 25.3545 4.20108 25.2804 4.16933 25.2381C4.13758 25.1852 4.09525 25.1534 4.04234 25.1217C3.98943 25.0899 3.92594 25.0793 3.84128 25.0793H3.64023C3.49208 25.0793 3.38626 25.1323 3.32276 25.2275C3.25927 25.3227 3.22752 25.4709 3.22752 25.6719V26.3175C3.22752 26.3809 3.21694 26.4233 3.18519 26.455C3.16403 26.4868 3.11112 26.4973 3.03705 26.4973C2.96297 26.4973 2.91006 26.4868 2.8889 26.455C2.86773 26.4233 2.85715 26.3809 2.85715 26.3175V25.1957L2.4762 25.1323V26.3386C2.4762 26.4444 2.48678 26.5397 2.49736 26.6137C2.50794 26.6878 2.52911 26.7513 2.56085 26.8042C2.60318 26.8466 2.64551 26.8783 2.709 26.91Z" fill="white"/>
<path d="M5.29105 19.4604L3.73549 18.889L5.83074 17.9683L5.97889 17.5556L3.87306 16.7937L3.72491 17.1852L5.24873 17.7461L3.1958 18.635L3.02649 19.0794L5.14291 19.8519L5.29105 19.4604Z" fill="white"/>
<path d="M6.32811 16.8678L5.52387 16.4551L6.26462 15.0054L5.91541 14.8255L5.17466 16.2752L4.71963 16.0424L5.47096 14.5609L5.07942 14.3599L4.11646 16.2435L6.12705 17.2594L6.32811 16.8678Z" fill="white"/>
<path d="M6.12696 13.513L7.64019 14.4972L7.88358 14.1374L6.37034 13.1427L6.81479 12.4548L6.44442 12.2114L5.31213 13.9575L5.68251 14.2009L6.12696 13.513Z" fill="white"/>
<path d="M7.49205 12.667L7.90475 12.995C8.07407 13.1326 8.2328 13.1855 8.39153 13.1538C8.53968 13.122 8.68783 13.0268 8.81481 12.8575L9.54498 11.9368L9.28043 11.6511L8.50793 12.6141C8.45502 12.6776 8.41269 12.7093 8.35978 12.7199C8.30687 12.7305 8.24338 12.7093 8.16931 12.6564L8.08465 12.5929L9.02646 11.4183L8.69841 11.1537C8.5291 11.0162 8.37037 10.9633 8.21163 10.995C8.06348 11.0268 7.91534 11.1326 7.78835 11.2913L7.41798 11.7463C7.28041 11.9157 7.21692 12.0744 7.21692 12.2225C7.2275 12.3813 7.31216 12.5294 7.49205 12.667ZM7.72486 11.9897L8.09523 11.5347C8.14814 11.4712 8.20105 11.4289 8.25396 11.4289C8.30687 11.4289 8.37037 11.45 8.44444 11.5135L8.53968 11.5876L7.87301 12.4236L7.76719 12.3389C7.7037 12.286 7.66137 12.2331 7.66137 12.1802C7.6402 12.1167 7.67195 12.0532 7.72486 11.9897Z" fill="white"/>
<path d="M9.37562 11.1745C9.53435 11.3332 9.6825 11.3967 9.84123 11.3861C9.98938 11.365 10.1481 11.2909 10.2963 11.1321L11.1217 10.2962L10.8889 9.98928L10.0211 10.857C9.96822 10.9099 9.91531 10.9417 9.8624 10.9417C9.80949 10.9522 9.74599 10.9205 9.6825 10.857L9.60843 10.7829L10.6666 9.71415L10.3703 9.41785C10.2116 9.25911 10.0635 9.19562 9.90473 9.2062C9.75658 9.22737 9.59785 9.31202 9.4497 9.46017L9.037 9.87288C8.88885 10.021 8.80419 10.1798 8.79361 10.3279C8.78302 10.4761 8.84652 10.6348 9.00525 10.7935L9.37562 11.1745ZM9.31213 10.1586L9.72483 9.74589C9.78832 9.6824 9.84123 9.65065 9.89414 9.66124C9.94705 9.66124 10.0105 9.69298 10.074 9.76706L10.1587 9.85171L9.40737 10.6136L9.31213 10.5184C9.24864 10.4549 9.22747 10.402 9.21689 10.3491C9.21689 10.275 9.24864 10.2221 9.31213 10.1586Z" fill="white"/>
<path d="M10.5715 8.98409L10.6879 9.13224C10.7832 9.24865 10.889 9.30156 11.0054 9.28039C11.1218 9.26981 11.2593 9.19574 11.4075 9.06875L11.9049 8.65605C11.9472 8.61372 11.9895 8.60314 12.0318 8.59256C12.0742 8.59256 12.1165 8.6243 12.1588 8.67721C12.2117 8.74071 12.2223 8.78303 12.2223 8.82536C12.2117 8.86769 12.1906 8.89944 12.1377 8.94177L11.1959 9.71426C11.2276 9.76717 11.2593 9.83066 11.2911 9.88357C11.3228 9.93648 11.3546 9.98939 11.3863 10.0529L12.3916 9.22748C12.4763 9.16399 12.5398 9.1005 12.5927 9.037C12.6456 8.97351 12.6773 8.9206 12.6985 8.86769C12.7197 8.81478 12.7197 8.75129 12.7091 8.69838C12.6985 8.64547 12.6668 8.58197 12.6139 8.51848L12.4869 8.37033C12.3916 8.25393 12.2858 8.20102 12.1694 8.22218C12.053 8.23277 11.9154 8.30684 11.7673 8.43383L11.2699 8.84653C11.2276 8.88886 11.1747 8.89944 11.1429 8.89944C11.1006 8.89944 11.0583 8.86769 11.016 8.81478C10.9736 8.76187 10.9525 8.70896 10.9525 8.67721C10.963 8.63488 10.9842 8.60314 11.0371 8.56081L11.9049 7.85181L11.7144 7.51318L10.7832 8.2751C10.6985 8.33859 10.635 8.40208 10.5821 8.46557C10.5292 8.52906 10.4974 8.58197 10.4763 8.63489C10.4551 8.6878 10.4551 8.75129 10.4657 8.8042C10.4869 8.85711 10.5186 8.9206 10.5715 8.98409Z" fill="white"/>
<path d="M19.5345 21.8416C19.5345 21.0374 19.5345 20.2332 19.5345 19.4183C20.3387 19.4183 21.143 19.4289 21.9578 19.4183C21.9578 19.2173 21.9578 19.0268 21.9578 18.8257C20.9102 18.8152 19.8625 18.8257 18.8043 18.8257C18.8043 19.831 18.8043 20.8363 18.8043 21.8416C19.0477 21.8416 19.2911 21.8416 19.5345 21.8416Z" fill="white"/>
<path d="M30.0426 18.8254C30.0426 19.0053 30.0426 19.1852 30.0426 19.3757C30.8468 19.3969 31.6617 19.3757 32.4659 19.3863C32.4659 20.1905 32.4659 20.9948 32.4659 21.799C32.7093 21.799 32.9527 21.799 33.1855 21.799C33.1855 20.8149 33.1855 19.8202 33.1855 18.836C32.1379 18.8254 31.0902 18.8254 30.0426 18.8254Z" fill="white"/>
<path d="M20.3704 20.1062C20.3598 21.0692 20.3704 22.0216 20.3704 22.9845C21.3228 22.9845 22.2752 22.9845 23.2276 22.9845C23.2276 22.0216 23.2382 21.0692 23.2276 20.1062C22.2752 20.1062 21.3228 20.1062 20.3704 20.1062ZM22.8255 20.4872C22.8466 21.1962 22.8255 21.9052 22.8572 22.6036C22.1588 22.6036 21.471 22.6036 20.7725 22.6036C20.7725 21.8946 20.7725 21.1962 20.7725 20.4872C21.4604 20.4872 22.1482 20.4977 22.8255 20.4872Z" fill="white"/>
<path d="M30.0531 20.1062C29.4605 20.1062 28.868 20.1062 28.2754 20.1062C28.2754 20.2967 28.2754 20.4872 28.2648 20.6882C28.0955 20.6882 27.9156 20.6882 27.7463 20.6882C27.7463 20.8787 27.7463 21.0586 27.7463 21.2491C27.5558 21.2491 27.3759 21.2491 27.1854 21.2491C27.1854 20.8681 27.1854 20.4977 27.1854 20.1168C26.9843 20.1062 26.7939 20.1062 26.5928 20.1062C26.5928 20.2861 26.5928 20.4766 26.5928 20.6671C26.4235 20.6671 26.2436 20.6671 26.0743 20.6671C26.0743 20.4872 26.0743 20.2967 26.0743 20.1168C25.3124 20.1168 24.5399 20.1062 23.778 20.1168C23.778 20.3284 23.778 20.5401 23.778 20.7517C24.3282 20.7517 24.8891 20.7517 25.4394 20.7517C25.4394 20.921 25.4394 21.0903 25.4394 21.2596C24.8573 21.2596 24.2859 21.2596 23.7039 21.2596C23.7039 22.0216 23.7039 22.7835 23.7039 23.5454C23.5346 23.5454 23.3547 23.5454 23.1854 23.5454C23.1854 24.2967 23.1854 25.0375 23.1854 25.7888C23.0161 25.7888 22.8467 25.7888 22.6774 25.7888C22.6774 25.6089 22.6774 25.4184 22.6774 25.2385C22.0848 25.2385 21.4922 25.2385 20.8891 25.2385C20.8891 25.429 20.8891 25.6195 20.8891 25.8099C20.6986 25.8099 20.5081 25.8099 20.3176 25.8099C20.3176 26.1909 20.3176 26.5719 20.3176 26.9634C20.5293 26.9634 20.7409 26.9634 20.9526 26.9634C20.9526 26.7941 20.9526 26.6142 20.9631 26.4449C21.1324 26.4449 21.3018 26.4449 21.4817 26.4555C21.4817 26.6248 21.4817 26.8047 21.4817 26.974C21.6721 26.974 21.852 26.974 22.0425 26.9846C22.0319 27.3655 22.0425 27.7359 22.0425 28.1168C22.233 28.1168 22.434 28.1168 22.6245 28.1168C22.6245 27.7147 22.6245 27.3126 22.6245 26.9105C22.4446 26.9105 22.2753 26.9105 22.0954 26.8999C22.0954 26.7412 22.0954 26.593 22.106 26.4343C22.487 26.4343 22.8679 26.4343 23.2489 26.4343C23.2489 26.2438 23.2489 26.0639 23.2489 25.8734C23.4076 25.8734 23.5557 25.8734 23.7145 25.8734C23.7145 26.0428 23.7145 26.2226 23.7145 26.392C23.8944 26.392 24.0848 26.392 24.2647 26.392C24.2647 26.5613 24.2647 26.7306 24.2647 26.8999C23.905 26.9105 23.5452 26.8999 23.1748 26.8999C23.1748 27.302 23.1748 27.7041 23.1748 28.1063C23.3547 28.1063 23.524 28.1063 23.7039 28.1063C23.7039 28.4872 23.7039 28.8682 23.7039 29.2491C23.9155 29.2491 24.1272 29.2491 24.3388 29.2491C24.3388 28.8682 24.3388 28.4872 24.3494 28.1063C24.7092 28.1063 25.0584 28.1063 25.4182 28.1168C25.4182 28.2862 25.4288 28.4555 25.4288 28.6142C25.2277 28.6142 25.0372 28.6142 24.8362 28.6142C24.8362 28.9952 24.8362 29.3761 24.8362 29.7571C24.4764 29.7571 24.1166 29.7571 23.7568 29.7571C23.7568 29.9475 23.7568 30.1486 23.7568 30.3391C24.3388 30.3391 24.9103 30.3497 25.4923 30.3285C25.4817 29.9687 25.4923 29.6089 25.4817 29.2491C25.8415 29.2385 26.2013 29.2491 26.5611 29.2491C26.5611 29.4184 26.5611 29.5878 26.5505 29.7571C26.36 29.7571 26.1695 29.7571 25.9896 29.7571C25.9896 29.937 25.9896 30.1169 25.9896 30.2968C26.1801 30.2968 26.3706 30.2968 26.5611 30.2968C26.5611 30.4978 26.5611 30.6989 26.5611 30.9105C25.7991 30.9105 25.0372 30.9105 24.2753 30.9105C24.2753 31.1116 24.2753 31.302 24.2753 31.5031C25.0584 31.5031 25.8415 31.5031 26.6246 31.5031C26.6246 31.3338 26.6246 31.1539 26.6246 30.9846C26.7939 30.9846 26.9632 30.9846 27.1325 30.9846C27.1325 31.1539 27.1325 31.3232 27.1325 31.4925C27.5134 31.4925 27.905 31.4925 28.2859 31.4925C28.2859 30.9211 28.2859 30.3497 28.2859 29.7782C28.0955 29.7782 27.8944 29.7782 27.7039 29.7782C27.7039 30.138 27.7039 30.4872 27.7039 30.847C27.5346 30.847 27.3547 30.8576 27.1854 30.8576C27.1854 30.6671 27.1854 30.4872 27.1854 30.2968C26.9949 30.2968 26.815 30.2862 26.6246 30.2756C26.6246 30.1274 26.6246 29.9687 26.6246 29.8206C26.815 29.8206 27.0055 29.8206 27.196 29.8206C27.196 29.6301 27.196 29.4396 27.196 29.2385C27.5558 29.2385 27.9156 29.2385 28.2754 29.2385C28.2754 29.0269 28.2754 28.8153 28.2754 28.6036C28.106 28.6036 27.9367 28.6036 27.7568 28.6036C27.7568 28.4131 27.7568 28.2332 27.7568 28.0428C26.9949 28.0428 26.233 28.0428 25.4711 28.0428C25.4711 27.8735 25.4711 27.6936 25.4711 27.5242C25.8521 27.5137 26.233 27.5242 26.614 27.5242C26.614 27.3549 26.614 27.175 26.614 27.0057C26.9738 27.0057 27.3335 27.0057 27.6933 27.0057C27.7039 27.1856 27.7039 27.3655 27.7039 27.5454C27.8732 27.5454 28.0531 27.5454 28.2224 27.5454C28.2224 27.7359 28.2224 27.9158 28.2224 28.1063C28.6246 28.1063 29.0267 28.1063 29.4182 28.1063C29.4182 27.8946 29.4182 27.683 29.4182 27.4713C29.0373 27.4608 28.6563 27.4713 28.2754 27.4713C28.2754 27.3232 28.2754 27.1645 28.2754 27.0163C28.4658 27.0163 28.6669 27.0163 28.8574 27.0163C28.8574 26.4449 28.8468 25.8734 28.8574 25.302C29.0478 25.302 29.2383 25.302 29.4288 25.302C29.4288 24.7306 29.4288 24.1591 29.4288 23.5877C29.5981 23.5877 29.7674 23.5877 29.9367 23.5877C29.9367 24.1591 29.9367 24.7412 29.9367 25.3126C30.1166 25.3126 30.3071 25.3126 30.487 25.3126C30.487 25.6618 30.487 26.0004 30.487 26.3496C30.1061 26.3496 29.7357 26.3496 29.3547 26.3496C29.3547 26.5613 29.3547 26.7729 29.3547 26.9951C29.9262 26.9951 30.4976 26.9951 31.0584 26.9951C31.0584 27.1645 31.0584 27.3338 31.0584 27.5031C30.6881 27.5031 30.3071 27.5031 29.9367 27.5031C29.9367 27.7147 29.9367 27.9264 29.9367 28.138C30.5082 28.138 31.0902 28.138 31.6616 28.138C31.6616 27.5666 31.6616 26.9951 31.6616 26.4131C31.4923 26.4131 31.323 26.4025 31.1537 26.392C31.1537 26.0322 31.1537 25.6724 31.1537 25.3126C31.323 25.3126 31.4923 25.3126 31.6616 25.3126C31.6616 24.9105 31.6616 24.5083 31.6616 24.0956C31.2912 24.0956 30.9315 24.0956 30.5611 24.0956C30.5611 23.9263 30.5611 23.757 30.5611 23.5877C30.7516 23.5877 30.942 23.5877 31.1325 23.5877C31.1325 23.3761 31.1325 23.1644 31.1325 22.9528C30.7516 22.9528 30.3812 22.9528 30.0002 22.9528C30.0002 22.7835 30.0002 22.6142 30.0002 22.4448C30.1907 22.4448 30.3812 22.4448 30.5717 22.4448C30.5717 22.2649 30.5717 22.0956 30.5717 21.9157C30.741 21.9157 30.9103 21.9157 31.0796 21.9157C31.0796 22.0956 31.0796 22.2649 31.0796 22.4448C31.2807 22.4448 31.4923 22.4448 31.6934 22.4448C31.6934 21.6724 31.7039 20.9104 31.6934 20.1379C31.4817 20.1379 31.2807 20.1379 31.0796 20.1379C31.0902 20.5083 31.069 20.8681 31.0584 21.2385C30.487 21.2385 29.9262 21.2385 29.3547 21.2385C29.3547 21.4607 29.3547 21.6935 29.3547 21.9157C29.5452 21.9157 29.7357 21.9157 29.9156 21.9263C29.9156 22.0745 29.9156 22.2332 29.9156 22.3813C29.5346 22.3813 29.1537 22.3813 28.7833 22.3813C28.7727 22.7623 28.7833 23.1433 28.7727 23.5242C28.6246 23.5242 28.4764 23.5242 28.3283 23.5242C28.3283 22.9845 28.3283 22.4554 28.3283 21.9157C28.4976 21.9157 28.6669 21.9157 28.8362 21.9052C28.8362 21.6935 28.8362 21.4819 28.8362 21.2702C28.6457 21.2702 28.4553 21.2702 28.2648 21.2702C28.2648 21.1009 28.2648 20.921 28.2648 20.7517C28.8362 20.7517 29.4076 20.7517 29.9791 20.7517C30.0531 20.5189 30.0531 20.3178 30.0531 20.1062ZM22.0637 26.3073C21.8944 26.3073 21.7356 26.3073 21.5663 26.3073C21.5663 26.1592 21.5663 26.0004 21.5663 25.8523C21.7356 25.8523 21.9049 25.8523 22.0637 25.8523C22.0637 26.0004 22.0637 26.1486 22.0637 26.3073ZM27.1325 28.6671C27.1325 28.8364 27.1325 29.0057 27.1325 29.175C26.9843 29.175 26.8256 29.175 26.6775 29.175C26.6775 29.0057 26.6775 28.8364 26.6775 28.6671C26.8256 28.6671 26.9738 28.6671 27.1325 28.6671ZM26.106 22.4131C26.2965 22.4131 26.487 22.4131 26.6669 22.4025C26.6669 22.0427 26.6669 21.6723 26.6669 21.3126C26.8256 21.3126 26.9738 21.3126 27.1325 21.3126C27.1325 21.4925 27.1325 21.6829 27.1325 21.8628C27.323 21.8734 27.5134 21.8734 27.7039 21.8734C27.7039 22.0321 27.7039 22.1803 27.7039 22.339C27.5346 22.339 27.3547 22.339 27.1854 22.339C27.1854 22.5295 27.1854 22.72 27.1854 22.9105C26.8256 22.9105 26.4658 22.9105 26.106 22.9105C26.106 22.7411 26.106 22.5824 26.106 22.4131ZM27.7039 23.556C27.7039 23.7253 27.7039 23.8946 27.6933 24.0639C27.5452 24.0639 27.397 24.0639 27.2489 24.0639C27.2489 23.8946 27.2489 23.7253 27.2489 23.5665C27.397 23.556 27.5558 23.556 27.7039 23.556ZM26.6034 23.556C26.6034 23.7253 26.6034 23.8946 26.6034 24.0639C26.4341 24.0639 26.2648 24.0639 26.106 24.0639C26.106 23.8946 26.106 23.7253 26.106 23.556C26.2648 23.556 26.4341 23.556 26.6034 23.556ZM24.4446 21.884C24.8044 21.8628 25.1642 21.884 25.524 21.8734C25.524 21.6829 25.524 21.503 25.524 21.3126C25.6933 21.3126 25.8626 21.3126 26.032 21.3126C26.032 21.6618 26.032 22.0216 26.032 22.3708C25.651 22.3708 25.27 22.3708 24.8785 22.3708C24.8785 22.5718 24.8891 22.7729 24.8891 22.9739C25.0796 22.9739 25.2595 22.9739 25.4499 22.9739C25.4499 23.3337 25.4499 23.6935 25.4499 24.0533C25.2912 24.0533 25.1219 24.0533 24.9632 24.0533C24.9632 23.8628 24.9632 23.6829 24.9632 23.4925C24.7833 23.4925 24.6034 23.4925 24.4235 23.4925C24.4341 22.9634 24.3917 22.4237 24.4446 21.884ZM24.2965 23.6089C24.2965 23.757 24.2965 23.9158 24.2965 24.0639C24.1378 24.0639 23.9684 24.0639 23.8097 24.0639C23.8097 23.9158 23.8097 23.7676 23.8097 23.6089C23.979 23.6089 24.1378 23.6089 24.2965 23.6089ZM24.8785 27.4502C24.7198 27.4607 24.5505 27.4608 24.3917 27.4608C24.3917 27.302 24.3917 27.1433 24.3917 26.9951C24.561 26.9951 24.7198 26.9951 24.8891 26.9951C24.8785 27.1433 24.8785 27.2914 24.8785 27.4502ZM28.2648 26.3073C27.7357 26.3073 27.2066 26.3073 26.6775 26.3073C26.6775 26.138 26.6669 25.9581 26.6669 25.7888C26.4552 25.7888 26.2436 25.7888 26.032 25.7888C26.032 26.1592 26.032 26.5189 26.032 26.8893C25.8626 26.8893 25.6933 26.8893 25.524 26.8787C25.524 26.6883 25.524 26.4978 25.5346 26.3179C25.3441 26.3179 25.1536 26.3179 24.9632 26.3179C24.9632 26.1274 24.9632 25.9369 24.9632 25.7465C24.5822 25.7465 24.2013 25.7465 23.8203 25.7359C23.8203 25.3972 23.8203 25.0586 23.8203 24.72C24.3706 24.72 24.9208 24.72 25.4711 24.72C25.4711 24.8999 25.4711 25.0904 25.4711 25.2703C25.8732 25.2703 26.2753 25.2703 26.6775 25.2703C26.688 24.8893 26.6775 24.5083 26.688 24.138C26.8362 24.138 26.9843 24.138 27.1325 24.138C27.1325 24.3285 27.1325 24.5083 27.1325 24.6988C27.5134 24.6988 27.8944 24.6988 28.2648 24.6988C28.2648 24.8787 28.2754 25.048 28.2754 25.2279C27.905 25.2279 27.5452 25.2279 27.1748 25.2279C27.1748 25.429 27.1748 25.6406 27.1748 25.8417C27.5452 25.8417 27.905 25.8417 28.2754 25.8417C28.2754 26.0004 28.2648 26.1486 28.2648 26.3073ZM31.1325 24.6988C31.1431 24.8681 31.1431 25.0269 31.1431 25.1962C30.9738 25.1962 30.7939 25.1962 30.6246 25.1962C30.6246 25.0269 30.6246 24.8576 30.6246 24.6882C30.7939 24.6988 30.9632 24.6988 31.1325 24.6988ZM28.36 24.138C28.5187 24.138 28.6881 24.138 28.8468 24.138C28.8468 24.2861 28.8468 24.4449 28.8468 24.593C28.6881 24.593 28.5187 24.593 28.36 24.593C28.36 24.4449 28.36 24.2861 28.36 24.138Z" fill="white"/>
<path d="M22.6034 20.7195C22.0637 20.7195 21.5134 20.7195 20.9738 20.7195C20.9738 21.2698 20.9738 21.82 20.9738 22.3703C21.524 22.3703 22.0637 22.3703 22.6034 22.3703C22.614 21.82 22.614 21.2698 22.6034 20.7195Z" fill="white"/>
<path d="M20.3707 23.4922C20.3707 23.7038 20.3707 23.9155 20.3707 24.1377C20.5506 24.1377 20.7411 24.1377 20.921 24.1377C20.9316 24.3282 20.9316 24.5081 20.9316 24.6985C21.1432 24.6985 21.3549 24.6985 21.5665 24.6985C21.5665 24.5186 21.5665 24.3282 21.5665 24.1483C21.7358 24.1483 21.9051 24.1483 22.0744 24.1483C22.0744 24.3282 22.0744 24.5186 22.0744 24.6985C22.2649 24.6985 22.4554 24.6985 22.6565 24.6985C22.6565 24.2964 22.6565 23.8943 22.6565 23.4922C22.2755 23.4922 21.884 23.4922 21.503 23.4922C21.503 23.6827 21.503 23.8626 21.503 24.053C21.3337 24.053 21.1644 24.053 20.9951 24.053C20.9951 23.8626 20.9951 23.6827 20.9951 23.4922C20.7728 23.4922 20.5718 23.4922 20.3707 23.4922Z" fill="white"/>
<path d="M20.3599 28.0954C20.7514 28.0954 21.1429 28.0954 21.5451 28.0954C21.5451 27.8837 21.5451 27.6721 21.5451 27.4604C21.1535 27.4604 20.762 27.4604 20.3704 27.4604C20.3599 27.6721 20.3599 27.8837 20.3599 28.0954Z" fill="white"/>
<path d="M23.2279 28.6248C22.2755 28.5825 21.3231 28.6036 20.3707 28.6248C20.3707 29.5772 20.3707 30.5401 20.3707 31.4925C21.3231 31.4925 22.2755 31.4925 23.2279 31.4925C23.2279 30.5296 23.2279 29.5772 23.2279 28.6248ZM20.7834 31.1116C20.7517 30.4132 20.7623 29.7253 20.7728 29.0269C21.4713 29.0269 22.1591 29.0269 22.8575 29.0269C22.8575 29.7253 22.8575 30.4132 22.8575 31.1116C22.1697 31.1116 21.4713 31.1116 20.7834 31.1116Z" fill="white"/>
<path d="M28.8574 31.4814C29.831 31.4919 30.7939 31.5025 31.7675 31.4708C31.7675 30.5184 31.7675 29.566 31.7675 28.603C30.7939 28.603 29.831 28.603 28.8574 28.603C28.8574 29.5554 28.8574 30.5184 28.8574 31.4814ZM29.2701 29.0369C29.9685 29.0263 30.6564 29.0157 31.3548 29.0475C31.376 29.7353 31.3654 30.4231 31.3654 31.111C30.667 31.1216 29.9685 31.1216 29.2701 31.111C29.2701 30.4126 29.2701 29.7247 29.2701 29.0369Z" fill="white"/>
<path d="M20.9738 30.8678C21.524 30.8678 22.0637 30.8678 22.614 30.8678C22.614 30.3176 22.614 29.7673 22.614 29.217C22.0637 29.217 21.524 29.217 20.9738 29.217C20.9738 29.7673 20.9738 30.3176 20.9738 30.8678Z" fill="white"/>
<path d="M31.1114 29.2278C30.5823 29.2278 30.0532 29.2278 29.524 29.2278C29.524 29.7781 29.524 30.3177 29.524 30.868C30.0532 30.868 30.5823 30.868 31.1219 30.868C31.1114 30.3177 31.1114 29.7675 31.1114 29.2278Z" fill="white"/>
<path d="M21.9579 32.4342C21.1537 32.4342 20.3389 32.4342 19.5346 32.4342C19.5346 31.63 19.5346 30.8257 19.5346 30.0215C19.2913 30.0215 19.0585 30.0215 18.8151 30.0215C18.8151 31.0797 18.8151 32.1485 18.8151 33.2067C19.8627 33.2067 20.9103 33.2067 21.9685 33.2067C21.9579 32.9421 21.9579 32.6882 21.9579 32.4342Z" fill="white"/>
<path d="M32.4659 30.0107C32.4659 30.8044 32.4659 31.5981 32.4659 32.3917C31.6617 32.4023 30.8468 32.3917 30.0426 32.3917C30.0426 32.6457 30.0426 32.8997 30.0426 33.1536C31.0902 33.1536 32.1379 33.1536 33.1961 33.1536C33.1961 32.106 33.1961 31.0584 33.1961 30.0107C32.9527 30.0107 32.7093 30.0107 32.4659 30.0107Z" fill="white"/>
<path d="M40.3177 27.5133C40.3283 27.4286 40.3283 27.3334 40.3283 27.2487L40.3918 26.0106L40.2119 26L40.3918 25.9895L40.3283 24.7619C40.3283 24.6773 40.3177 24.5926 40.3071 24.4974L40.2436 24.0741C40.1484 23.1958 39.8203 21.3863 38.688 19.2169C38.614 19.0688 38.5187 18.9206 38.4235 18.7725C38.3706 18.6878 38.3177 18.6138 38.2648 18.5185C38.2118 18.4444 38.1695 18.3598 38.1166 18.2751C38.0214 18.1164 37.9261 17.9577 37.8097 17.8095C37.7145 17.6825 37.6087 17.545 37.5134 17.418C37.27 17.0899 37.0161 16.7407 36.7198 16.4444C36.2753 15.9259 35.7356 15.4074 35.0901 14.8889L35.7356 14.0317L34.7938 13.3333L33.5346 12.5502C33.4605 12.5079 33.3864 12.455 33.2806 12.4021L32.9525 12.2433C32.8256 12.1904 32.7092 12.1269 32.5822 12.0634C32.2647 11.9047 31.8943 11.7248 31.5134 11.5978L30.7197 11.3121C30.5081 11.238 30.307 11.1851 30.1166 11.1428C30.0213 11.1216 29.9261 11.1005 29.8414 11.0687C28.5398 10.6984 27.1112 10.6031 26.0107 10.5608H25.9895H25.9684C24.8678 10.6031 23.4393 10.6878 22.1377 11.0687C22.0424 11.0899 21.9472 11.1216 21.8519 11.1428C21.6615 11.1957 21.4498 11.238 21.2382 11.3121L20.4869 11.5873C20.0742 11.7142 19.7038 11.8941 19.3863 12.0529C19.2593 12.1164 19.1323 12.1798 19.0054 12.2433L18.6667 12.4021C18.5821 12.4444 18.508 12.4867 18.4339 12.5396L17.3546 13.1957L16.2434 14.0211L16.8889 14.8783C16.2434 15.3968 15.7038 15.9153 15.2699 16.4233C14.963 16.7301 14.709 17.0794 14.4656 17.4074C14.3704 17.545 14.2646 17.6719 14.1693 17.7989C14.0529 17.9471 13.9577 18.1164 13.8625 18.2751C13.8096 18.3598 13.7672 18.4444 13.7143 18.5291C13.6614 18.6138 13.6191 18.6984 13.5662 18.7725C13.4709 18.9206 13.3863 19.0688 13.3016 19.2169C12.1693 21.3863 11.8413 23.1852 11.746 24.0635L11.6826 24.4974C11.672 24.582 11.672 24.6773 11.6614 24.7619L11.5979 25.9895L11.7778 26L11.5979 26.0106L11.6614 27.2487C11.6614 27.3334 11.672 27.418 11.6826 27.5133L11.746 27.9366C11.8413 28.8149 12.1693 30.6244 13.3016 32.7937C13.3757 32.9419 13.4709 33.09 13.5662 33.2382C13.6191 33.3228 13.672 33.3969 13.7249 33.4922C13.7778 33.5662 13.8201 33.6509 13.873 33.7356C13.9683 33.8943 14.0635 34.053 14.1799 34.2012C14.2752 34.3281 14.381 34.4657 14.4762 34.5927C14.7196 34.9207 14.9736 35.27 15.2699 35.5663C15.7143 36.0848 16.254 36.6033 16.8995 37.1218L16.2646 37.979L17.2064 38.6774L18.4657 39.4605C18.5397 39.5028 18.6138 39.5557 18.7196 39.6086L19.0477 39.7673C19.1747 39.8202 19.2911 39.8837 19.4181 39.9472C19.7355 40.106 20.1059 40.2859 20.4869 40.4128L21.2805 40.6986C21.4816 40.7726 21.6932 40.8255 21.8837 40.8679C21.9789 40.889 22.0742 40.9102 22.1588 40.9419C23.4604 41.3123 24.889 41.4076 25.9895 41.4499H26.0107H26.0319C27.1324 41.4076 28.561 41.3229 29.8626 40.9419C29.9578 40.9208 30.0531 40.889 30.1483 40.8679C30.3494 40.815 30.5504 40.7726 30.7621 40.6986L31.5134 40.4234C31.9261 40.2964 32.2965 40.1165 32.6139 39.9472C32.7409 39.8837 32.8679 39.8202 33.0055 39.7568L33.3441 39.598C33.4287 39.5557 33.5028 39.5134 33.5769 39.4605L34.6563 38.8044L35.7674 37.979L35.1325 37.1218C35.778 36.6033 36.3071 36.0848 36.7515 35.5768C37.0584 35.27 37.3124 34.9207 37.5558 34.5927C37.651 34.4551 37.7568 34.3281 37.8521 34.2012C37.9685 34.053 38.0637 33.8837 38.1589 33.725C38.2118 33.6403 38.2542 33.5557 38.3071 33.471C38.36 33.3863 38.4023 33.3017 38.4552 33.2276C38.5505 33.0795 38.6351 32.9313 38.7198 32.7832C39.8521 30.6138 40.1801 28.8149 40.2754 27.9366L40.3177 27.5133ZM39.9685 27.471L39.905 27.9048C39.8097 28.762 39.4923 30.5186 38.3917 32.635C38.3177 32.7832 38.233 32.9207 38.1378 33.0583C38.0849 33.143 38.0319 33.2276 37.9896 33.3017C37.9367 33.3863 37.8838 33.471 37.8309 33.5557C37.7356 33.7038 37.651 33.852 37.5452 33.9895C37.4394 34.1165 37.3441 34.2541 37.2383 34.3916C37.0055 34.7091 36.7621 35.0477 36.4552 35.344C36.0319 35.852 35.5134 36.3493 34.8891 36.8467L34.8785 36.8361L33.8414 37.6086L32.7832 38.2541C32.7409 38.2858 32.688 38.307 32.6668 38.3282L32.3705 38.4763C32.233 38.5398 32.0954 38.6033 31.9578 38.6774C31.6721 38.8255 31.3652 38.9737 31.0266 39.0795L30.2541 39.3652C30.1166 39.4181 29.9578 39.4499 29.7885 39.4922C29.6827 39.5134 29.5769 39.5451 29.4605 39.5769C28.3176 39.9049 27.016 39.9896 26.0001 40.0213C24.9842 39.9896 23.6826 39.9049 22.5292 39.5663C22.4234 39.5345 22.3176 39.5134 22.2011 39.4816C22.0318 39.4393 21.8731 39.397 21.7355 39.3546L20.9207 39.0583C20.6138 38.9631 20.307 38.8149 20.0212 38.6668C19.8837 38.5927 19.7461 38.5292 19.6191 38.4763L19.3334 38.3388C19.2805 38.3176 19.2382 38.2858 19.1958 38.2541L18.2964 37.7038L17.1112 36.8361L17.1006 36.8467C16.4762 36.3387 15.9577 35.8414 15.5239 35.3334C15.2381 35.0371 14.9842 34.7091 14.7514 34.3916C14.6455 34.2541 14.5503 34.1165 14.4445 33.9895C14.3387 33.852 14.254 33.7144 14.1693 33.5557C14.1164 33.471 14.0635 33.3863 14.0212 33.3017C13.9683 33.217 13.9154 33.1324 13.8625 33.0477C13.7778 32.9102 13.6826 32.762 13.6085 32.6244C12.4974 30.508 12.1799 28.7514 12.0953 27.8942L12.0318 27.471C12.0212 27.3863 12.0212 27.3122 12.0212 27.2276L11.9577 26L12.0212 24.7725C12.0212 24.6985 12.0318 24.6138 12.0318 24.5397L12.0953 24.1059C12.1905 23.2487 12.508 21.4921 13.6085 19.3757C13.6826 19.2275 13.7672 19.0899 13.8625 18.9524C13.9154 18.8677 13.9683 18.7831 14.0106 18.709C14.0635 18.6243 14.1164 18.5397 14.1693 18.455C14.254 18.3069 14.3492 18.1587 14.4445 18.0212C14.5503 17.8942 14.6455 17.7566 14.7514 17.619C14.9842 17.3016 15.2276 16.9629 15.5344 16.6667C15.9577 16.1587 16.4762 15.6614 17.1006 15.164L17.1112 15.1746L18.1482 14.4021L19.2064 13.7566C19.2487 13.7248 19.3017 13.7037 19.3228 13.6825L19.6191 13.5344C19.7567 13.4709 19.8943 13.4074 20.0318 13.3333C20.3175 13.1851 20.6244 13.037 20.963 12.9312L21.7355 12.6455C21.8731 12.5925 22.0318 12.5608 22.2011 12.5185C22.307 12.4973 22.4128 12.4656 22.5292 12.4338C23.6721 12.1058 24.9737 12.0211 25.9895 11.9894C27.0054 12.0211 28.307 12.1058 29.4605 12.4444C29.5663 12.4761 29.6721 12.4973 29.7885 12.5291C29.9578 12.5714 30.1166 12.6137 30.2541 12.656L31.0689 12.9523C31.3758 13.0476 31.6827 13.1957 31.9684 13.3439C32.106 13.418 32.2435 13.4814 32.3705 13.5344L32.6563 13.6719C32.7092 13.6931 32.7515 13.7248 32.7938 13.7566L33.6933 14.3068L34.8891 15.1746L34.8996 15.164C35.524 15.6719 36.0425 16.1693 36.4764 16.6772C36.7621 16.9735 37.0161 17.3016 37.2489 17.619C37.3547 17.7566 37.4499 17.8942 37.5558 18.0212C37.6616 18.1587 37.7462 18.2963 37.8309 18.455C37.8838 18.5397 37.9367 18.6243 37.979 18.709C38.0319 18.7937 38.0849 18.8783 38.1378 18.963C38.2224 19.1005 38.3177 19.2487 38.3917 19.3862C39.5029 21.5027 39.8203 23.2593 39.905 24.1164L39.9685 24.5291C39.9791 24.6138 39.979 24.6985 39.979 24.7725L40.0425 26L39.979 27.2276C39.979 27.3122 39.9685 27.3969 39.9685 27.471Z" fill="white"/>
<path d="M43.4289 28.1273C43.4607 27.9368 43.4924 27.7463 43.4924 27.577L43.5771 26.0109L43.4395 26.0003L43.5771 25.9897L43.4924 24.4341C43.4924 24.2542 43.4607 24.0743 43.4289 23.8839C43.4183 23.7886 43.3972 23.6934 43.3866 23.5981L43.2384 22.6352C43.2067 22.413 43.1432 22.1801 43.0797 21.9473C43.048 21.8204 43.0056 21.6828 42.9739 21.5452L42.9104 21.2913C42.8363 20.9844 42.7517 20.6669 42.6247 20.36C42.212 19.069 41.5771 17.7463 40.7517 16.487L40.794 16.0743L41.249 15.7886C41.2384 15.778 41.1961 15.7039 41.122 15.6087L40.6564 14.9843C40.413 14.6457 40.0638 14.1907 39.6194 13.7356L39.2278 13.2912L37.7252 11.8838L36.5294 10.9843C36.3389 10.8256 36.1379 10.7092 35.9474 10.5928L35.1749 10.1272C33.5876 9.20651 31.6405 8.45518 29.8098 8.05306C29.3124 7.95783 28.8468 7.89433 28.487 7.84142C28.2965 7.80968 28.1272 7.78851 27.9579 7.75677C27.7992 7.7356 27.6616 7.7356 27.5452 7.72502C27.5029 7.72502 27.4605 7.72502 27.4076 7.71444L27.2277 7.70386L27.1854 8.49751C25.2701 8.37053 23.6616 8.561 22.5716 8.77265C21.0161 9.12185 19.6086 9.57689 18.6245 10.0742C18.4552 10.1589 18.307 10.233 18.1589 10.2965C17.9261 10.4129 17.725 10.5081 17.5663 10.5928L17.2171 10.8044L16.2435 11.397L14.8361 12.4446C14.7515 12.5081 14.6774 12.5822 14.5927 12.6563L13.6298 13.5346C13.4499 13.7145 13.2806 13.905 13.1007 14.0954C12.9948 14.2118 12.8996 14.3177 12.7832 14.4341C12.0425 15.2806 11.0477 16.5928 10.2223 18.2648L9.51334 17.9261L9.16413 18.6563C9.1218 18.741 9.07947 18.8256 9.03714 18.9314L8.51862 20.3389C8.19057 21.3971 7.62972 23.5452 7.61914 26.0003C7.62972 28.4553 8.19057 30.6035 8.5292 31.6829L9.03714 33.0797C9.06889 33.1749 9.1218 33.2702 9.15354 33.3442L9.50275 34.0744L10.2118 33.7358C11.0477 35.4183 12.0319 36.7199 12.7832 37.5665C12.889 37.6829 12.9948 37.7993 13.0901 37.9051C13.27 38.1062 13.4393 38.2967 13.6192 38.4766L14.5716 39.3443C14.6562 39.4184 14.7303 39.4924 14.815 39.5665L16.1483 40.5612L17.1853 41.1962L17.5451 41.4078C17.6933 41.4925 17.8943 41.5771 18.1272 41.6935C18.2647 41.757 18.4234 41.8311 18.5822 41.9157C19.5663 42.4131 20.9737 42.8681 22.5293 43.2173C23.3759 43.3761 24.5399 43.5348 25.9156 43.5348C26.3071 43.5348 26.7092 43.5242 27.1325 43.4925L27.1748 44.2861L27.3759 44.2755C27.4076 44.2755 27.45 44.2755 27.4923 44.265C27.6087 44.265 27.7463 44.2544 27.9367 44.2332C28.0849 44.2121 28.2542 44.1803 28.4447 44.1591C28.8045 44.1062 29.2595 44.0427 29.778 43.9369C31.5981 43.5454 33.5452 42.794 35.1326 41.8628L35.8945 41.3972C36.0849 41.2808 36.286 41.1644 36.4553 41.0163L37.6299 40.1379L38.8575 39.0162L39.5559 38.2649C40.0109 37.7993 40.3495 37.3337 40.6035 36.9951L41.0691 36.3707C41.1644 36.2437 41.2067 36.1697 41.2067 36.1697L40.5188 35.757C41.4289 34.413 42.1273 33.0056 42.5718 31.6194C42.7093 31.3019 42.7834 30.9844 42.8575 30.6776L42.921 30.4236C42.9527 30.286 42.9845 30.159 43.0268 30.0321C43.0903 29.7887 43.1538 29.5664 43.1855 29.3442L43.3337 28.3813C43.3972 28.3178 43.4183 28.2225 43.4289 28.1273ZM43.2173 27.577C43.2173 27.7357 43.1855 27.9051 43.1644 28.085C43.1538 28.1802 43.1326 28.2754 43.122 28.3707L42.9739 29.3336C42.9421 29.5453 42.8787 29.7675 42.8152 29.9897C42.7834 30.1167 42.7411 30.2543 42.7093 30.3918L42.6458 30.6458C42.5718 30.9421 42.4977 31.249 42.3707 31.5665C41.9368 32.9315 41.2384 34.3284 40.3389 35.6511C40.3284 35.6617 40.3072 35.6935 40.2649 35.757L39.7887 36.3919C39.5453 36.7199 39.249 37.1326 38.8257 37.5559L38.2966 38.1379L37.0162 39.3231L35.8416 40.2014C35.7146 40.3073 35.5558 40.4025 35.3865 40.5083L34.6352 40.9633C33.1431 41.8311 31.3124 42.5401 29.6193 42.9105C29.1431 42.9951 28.7092 43.0586 28.3389 43.1221C28.159 43.1433 28.0108 43.175 27.8838 43.1962C27.7992 43.2067 27.7145 43.2173 27.6299 43.2173C27.5875 43.2173 27.5346 43.2173 27.5029 43.2279C27.4394 43.2279 27.3865 43.2279 27.3547 43.2385H27.1643V43.2491C25.2701 43.3761 23.6827 43.1856 22.6245 42.9739C21.0901 42.6353 19.7039 42.1803 18.7409 41.6935C18.5716 41.6089 18.4234 41.5348 18.2753 41.4713C18.0425 41.3549 17.852 41.2702 17.7039 41.1962L17.3547 40.9845L16.3917 40.3919L15.016 39.376C14.9419 39.3125 14.8573 39.2385 14.7832 39.1644L13.8308 38.2967C13.6615 38.1273 13.4922 37.9369 13.3123 37.7358C13.2065 37.6194 13.1112 37.503 13.0054 37.3972C12.2753 36.5612 11.3017 35.2808 10.4763 33.63L10.4975 33.6194L10.2012 33.0056C10.18 32.9633 10.1588 32.921 10.1377 32.8786C10.1059 32.8257 10.0848 32.7622 10.0636 32.7093L9.56625 31.3442C9.02656 29.6405 8.71968 27.6934 8.71968 26.0109C8.73026 24.3177 9.03714 22.3706 9.56625 20.6987L10.0742 19.323C10.0953 19.2595 10.1271 19.196 10.1588 19.1431C10.18 19.1008 10.2012 19.0584 10.2118 19.0267L10.5186 18.3918L10.4975 18.3812C11.3123 16.7304 12.2858 15.4499 13.016 14.614C13.1218 14.4976 13.2276 14.3812 13.3229 14.2753C13.5028 14.0849 13.6721 13.8944 13.8308 13.7251L14.7832 12.8573C14.8573 12.7833 14.9419 12.7092 15.016 12.6563L16.3282 11.6721L17.3652 11.0372L17.7145 10.8256C17.8626 10.7515 18.0531 10.6563 18.2859 10.5399C18.4235 10.4764 18.5822 10.4023 18.7515 10.3176C19.725 9.83085 21.1007 9.37582 22.6351 9.0372C23.7039 8.83614 25.2912 8.63508 27.1854 8.76207V8.77265L27.3547 8.78323C27.3971 8.78323 27.4605 8.79381 27.5135 8.79381C27.5558 8.79381 27.5981 8.79381 27.6404 8.80439C27.7251 8.81498 27.8098 8.81497 27.8944 8.82556C28.032 8.84672 28.1801 8.86789 28.3494 8.89963C28.7304 8.95254 29.1537 9.01603 29.6193 9.10069C31.3336 9.47106 33.1643 10.1801 34.6458 11.0372L35.4077 11.5028C35.577 11.5981 35.7357 11.6933 35.8839 11.8203L37.0373 12.688L38.0321 13.5981L38.8575 14.4658C39.2596 14.8891 39.5665 15.2912 39.8098 15.6193L40.286 16.2648C40.3284 16.3177 40.3495 16.36 40.3601 16.3706C41.2596 17.6933 41.9474 19.0902 42.3813 20.4658C42.5083 20.7621 42.5824 21.069 42.6564 21.3759L42.7199 21.6299C42.7517 21.7674 42.794 21.905 42.8257 22.032C42.8892 22.2648 42.9421 22.4764 42.9845 22.6881L43.1326 23.6511C43.1432 23.7463 43.1644 23.8521 43.1749 23.9474C43.2067 24.1273 43.2384 24.2966 43.2279 24.4659L43.3019 26.0214L43.2173 27.577Z" fill="white"/>
<path d="M39.355 23.4713C39.3444 23.3654 39.3233 23.2173 39.2704 23.0691L39.0693 22.2755C39.027 22.0956 38.9741 21.8945 38.9 21.7146L38.646 21.0268L38.1169 19.8522L37.8841 19.9686C37.5243 19.2702 37.0799 18.5718 36.5719 17.9157L36.7836 17.7569L36.6777 17.6088C36.6566 17.5876 36.646 17.5665 36.6248 17.5347C36.5613 17.4501 36.4873 17.3442 36.3814 17.2384L35.8418 16.6458C35.7148 16.5083 35.5666 16.3495 35.4079 16.212C35.2915 16.1167 35.1857 16.0109 35.0798 15.9157C34.8153 15.6723 34.5719 15.45 34.3497 15.3019L33.8523 14.9315L33.6936 15.1537C33.355 14.9209 33.0163 14.6987 32.6671 14.4977C32.3179 14.2966 31.9581 14.1061 31.5878 13.9368L31.7042 13.6934L31.4925 13.5982C31.3973 13.5453 31.2597 13.4818 31.101 13.4289L30.3814 13.1643C30.1909 13.0902 29.9793 13.0162 29.7571 12.9738C29.5983 12.9421 29.4396 12.8998 29.2914 12.8574C28.9634 12.7728 28.6565 12.6881 28.4026 12.667L27.7888 12.5717L27.7465 12.8469C26.8576 12.7304 26.0322 12.7199 25.3126 12.7516L25.302 12.4871L24.6459 12.5188C24.3919 12.5506 24.0851 12.6035 23.757 12.6564L23.2914 12.7305L23.2491 12.741C23.0798 12.7834 22.8999 12.8257 22.7411 12.868C22.4343 12.9421 22.1485 13.0162 21.8946 13.0902L21.3126 13.3019L21.4078 13.5453C21.048 13.6723 20.7094 13.8204 20.4237 13.958C20.2967 14.0215 20.1803 14.0744 20.0745 14.1273C19.8946 14.2119 19.7464 14.286 19.6194 14.3495L19.3549 14.5082L19.4395 14.6458L19.3549 14.5082L18.5506 14.995L17.6406 15.6723L17.503 15.7993L17.3125 15.5876L16.6988 16.1485C16.5929 16.2437 16.4871 16.3389 16.3601 16.4659L15.8734 16.995C15.5876 17.2807 15.3548 17.6088 15.1644 17.8628C15.1009 17.9474 15.048 18.0215 14.9845 18.1061C14.9421 18.1591 14.9104 18.212 14.8786 18.2543C14.8046 18.3495 14.7517 18.4342 14.7093 18.4977L14.6247 18.6458L14.8575 18.7834C14.4554 19.3972 14.0532 20.1167 13.7146 20.9421L13.4607 20.8469L13.249 21.4395C13.2278 21.503 13.2067 21.5559 13.1855 21.63C13.1326 21.7675 13.0797 21.9051 13.0268 22.0744L12.8469 22.7728C12.7199 23.175 12.667 23.5877 12.6141 23.9157L12.5083 24.6247C12.4977 24.7517 12.4977 24.8258 12.4977 24.8258H12.7622C12.7199 25.2279 12.7093 25.63 12.7093 26.0321C12.7093 26.4342 12.7305 26.8364 12.7622 27.2385H12.4977C12.4977 27.2385 12.4977 27.3126 12.5083 27.4607L12.6141 28.1591C12.667 28.4872 12.7199 28.8999 12.8469 29.2914L13.0374 30.0216C13.0903 30.1697 13.1432 30.3179 13.1855 30.4449C13.2067 30.5084 13.2384 30.5718 13.2596 30.6353L13.4712 31.2174L13.7252 31.1221C14.0638 31.9369 14.4659 32.6671 14.8681 33.2809L14.6353 33.429L14.7199 33.5772C14.7622 33.6406 14.8257 33.7253 14.8892 33.8205C14.921 33.8629 14.9633 33.9158 15.0056 33.9793C15.0585 34.0534 15.122 34.1274 15.1749 34.2121C15.3654 34.4661 15.6088 34.7941 15.8734 35.0692L16.3813 35.6301C16.4977 35.7359 16.6035 35.8417 16.7094 35.937L17.3231 36.4978L17.503 36.2968L17.5665 36.3497L18.5824 37.101L19.3655 37.5772L19.4395 37.4608L19.3655 37.5772L19.6406 37.7465C19.757 37.81 19.9051 37.8841 20.085 37.9687C20.1909 38.0216 20.3073 38.0745 20.4342 38.138C20.72 38.2756 21.048 38.4238 21.4184 38.5507L21.3231 38.7941L21.9263 39.0163C22.1591 39.0798 22.4448 39.1539 22.7517 39.2386C22.921 39.2809 23.0903 39.3232 23.2597 39.3656L23.7676 39.4502C24.0956 39.5031 24.4025 39.5455 24.6882 39.5878L25.3126 39.6195L25.3232 39.355C25.5348 39.3656 25.757 39.3761 25.9898 39.3761C26.5401 39.3761 27.1327 39.3444 27.757 39.2597L27.7994 39.5349L28.392 39.4396C28.6671 39.4185 28.9846 39.3338 29.302 39.2386C29.4502 39.1962 29.6089 39.1539 29.7676 39.1222C29.9899 39.0693 30.2015 38.9952 30.392 38.9211L31.101 38.6671C31.2703 38.6142 31.4079 38.5402 31.5031 38.4978L31.7147 38.4026L31.5983 38.1592C31.9687 37.9899 32.3285 37.7994 32.6777 37.5984C33.0269 37.3973 33.3761 37.1751 33.7042 36.9423L33.8629 37.1645L34.3497 36.8047C34.5931 36.646 34.8365 36.4237 35.0904 36.1803C35.1963 36.0851 35.3127 35.9793 35.4185 35.8841C35.5878 35.7465 35.7359 35.5878 35.8629 35.4396L36.392 34.8576C36.4978 34.7412 36.5825 34.6354 36.646 34.5507C36.6672 34.519 36.6883 34.4978 36.7095 34.466L36.8153 34.3285L36.6037 34.1698C37.1116 33.5031 37.5455 32.8152 37.9158 32.1168L38.1487 32.2332L38.519 31.4713L38.9317 30.3814C39.0164 30.1803 39.0693 29.9792 39.1116 29.8099L39.3127 29.0269C39.3656 28.8575 39.3868 28.72 39.3973 28.6142L39.4397 28.3708L39.1751 28.3284C39.1857 28.2544 39.1963 28.1697 39.2069 28.0956C39.2598 27.7993 39.3021 27.5242 39.3127 27.2702L39.3762 26.085H39.2915H39.3762L39.3127 24.8893C39.2915 24.6459 39.2492 24.3602 39.2069 24.0639C39.1963 23.9898 39.1857 23.9157 39.1751 23.8311L39.4397 23.7887L39.355 23.4713ZM38.9846 24.0215C39.0375 24.3284 39.0799 24.593 39.0905 24.8258L39.1539 26.011L39.0905 27.1962C39.0799 27.429 39.0375 27.6935 38.9846 28.0004C38.9741 28.0745 38.9635 28.1591 38.9529 28.2332L38.6883 28.1909L38.646 28.4448C38.6354 28.5401 38.6143 28.6459 38.5825 28.7729L38.3815 29.5665C38.3391 29.7359 38.2968 29.8946 38.2333 30.0533L37.8947 30.974L37.482 31.8523L37.7254 31.9687C37.3656 32.6565 36.9317 33.3444 36.4344 34.0004L36.2227 33.8417L36.1275 33.9687C36.1063 34.0004 36.0746 34.0322 36.0534 34.0745C36.0005 34.1486 35.9476 34.2227 35.8629 34.3073L35.3232 34.8999C35.2068 35.0269 35.0904 35.1645 34.9529 35.2809C34.8365 35.3867 34.7201 35.4925 34.6037 35.5983C34.3708 35.8206 34.1486 36.0216 33.937 36.1592L33.4396 36.5296L33.5984 36.7412C33.2703 36.974 32.9317 37.1962 32.5931 37.3867C32.2438 37.5878 31.8841 37.7782 31.5243 37.937L31.4079 37.6936L31.1962 37.7994C31.1116 37.8417 31.0057 37.8946 30.8682 37.937L30.1486 38.2015C29.9793 38.265 29.7994 38.3285 29.6195 38.3708C29.4502 38.4132 29.2914 38.4555 29.1327 38.4978C28.8364 38.5825 28.5613 38.6566 28.3179 38.6777L27.7041 38.773L27.7465 39.0375C26.8682 39.1539 26.0533 39.1645 25.3443 39.1328L25.3549 38.8576L24.7623 38.8259C24.5083 38.7941 24.212 38.7412 23.884 38.6989L23.429 38.6248C23.2597 38.5825 23.0903 38.5402 22.9316 38.4978C22.6353 38.4238 22.3602 38.3497 22.1591 38.2968L21.5771 38.0851L21.4819 38.3391C21.1221 38.2121 20.794 38.0745 20.5189 37.937C20.3919 37.8735 20.2755 37.8206 20.1697 37.7677C19.9898 37.683 19.8416 37.6089 19.7358 37.556L19.4713 37.3973L18.6776 36.9211L17.7676 36.2438L17.6406 36.1274L17.8099 35.937L17.1961 35.3761C17.1009 35.2915 16.9951 35.1962 16.8998 35.1116L16.4025 34.5613C16.1591 34.3073 15.9474 34.0216 15.757 33.7676C15.6935 33.683 15.63 33.5983 15.5771 33.5348C15.5347 33.4819 15.4924 33.429 15.4607 33.3761C15.4078 33.302 15.3654 33.2491 15.3337 33.1962L15.249 33.0481L15.0268 33.1856C14.6353 32.5824 14.2331 31.8734 13.9051 31.0586L14.1485 30.9634L13.9368 30.3814C13.9157 30.3179 13.8839 30.2544 13.8628 30.1803C13.8204 30.0639 13.7675 29.9263 13.7252 29.8099L13.5347 29.0904C13.4289 28.7411 13.376 28.3708 13.3231 28.0427C13.3125 27.9581 13.3019 27.8628 13.2808 27.7888L13.2173 27.3549C13.2067 27.2702 13.2067 27.2279 13.2067 27.2173H12.9315C12.8892 26.8152 12.8786 26.4131 12.8786 26.011C12.8786 25.6088 12.8998 25.2067 12.9315 24.8046H13.2067C13.2067 24.794 13.2067 24.7517 13.2173 24.6882L13.2808 24.2438C13.2913 24.1591 13.3019 24.0744 13.3231 23.9898C13.376 23.6617 13.4289 23.302 13.5347 22.9316L13.7146 22.2437C13.7569 22.1062 13.8099 21.9792 13.8522 21.8522C13.8734 21.7781 13.9051 21.7146 13.9263 21.6617L14.1379 21.0797L13.8945 20.9845C14.2331 20.1802 14.6247 19.4712 15.0162 18.8575L15.2384 18.995L15.3231 18.8469C15.3548 18.794 15.3972 18.7411 15.4501 18.667C15.4818 18.6141 15.5242 18.5612 15.5665 18.5188C15.6194 18.4448 15.6829 18.3601 15.7464 18.2755C15.9369 18.0215 16.1485 17.7358 16.4025 17.4712L16.8787 16.9421C16.9845 16.8363 17.0903 16.7411 17.1855 16.6564L17.7993 16.0956L17.6194 15.8945L17.6617 15.8522L18.6565 15.1114L19.4395 14.6352L19.7041 14.4765C19.8205 14.413 19.9686 14.3495 20.1485 14.2649C20.2543 14.2119 20.3708 14.159 20.4977 14.0955C20.7835 13.958 21.1009 13.8204 21.4607 13.6934L21.5559 13.9474L22.1168 13.7357C22.339 13.6723 22.6247 13.5982 22.9104 13.5241C23.0692 13.4818 23.2385 13.4394 23.4078 13.3971L23.8628 13.323C24.1803 13.2701 24.4872 13.2278 24.7094 13.1961L25.3337 13.1643L25.3232 12.8892C26.0322 12.8574 26.847 12.868 27.7253 12.9844L27.683 13.249L28.3179 13.3442C28.5401 13.3654 28.8153 13.4395 29.1116 13.5241C29.2703 13.5664 29.4396 13.6088 29.6089 13.6511C29.7888 13.6934 29.9581 13.7569 30.138 13.8204L30.8682 14.085C30.9952 14.1273 31.0904 14.1802 31.1856 14.2225L31.3973 14.3283L31.5137 14.085C31.8841 14.2543 32.2333 14.4342 32.5825 14.6352C32.9317 14.8363 33.2597 15.0479 33.5878 15.2807L33.429 15.4924L33.9476 15.8733C34.138 16.0003 34.3603 16.212 34.6037 16.4236C34.7201 16.5294 34.8259 16.6352 34.9529 16.7411C35.0798 16.8469 35.2068 16.9844 35.3232 17.1114L35.8735 17.7146C35.9476 17.7887 36.0005 17.8733 36.0534 17.9368C36.0851 17.9792 36.1063 18.0109 36.1169 18.0321L36.2227 18.1696L36.4344 18.0109C36.9317 18.667 37.3656 19.3443 37.7254 20.0427L37.482 20.1591L37.8735 20.9633L38.2439 21.9792C38.3074 22.1273 38.3391 22.2861 38.3815 22.4554C38.392 22.5189 38.4132 22.5824 38.4238 22.6353L38.5825 23.2702C38.6143 23.3866 38.6354 23.4924 38.646 23.5877L38.6883 23.8416L38.9529 23.7993C38.9635 23.8628 38.9741 23.9475 38.9846 24.0215Z" fill="white"/>
<path d="M41.4713 28.9843C41.4713 29.0267 41.4607 29.0584 41.4607 29.0902L41.6194 29.1219C41.63 29.0902 41.63 29.0478 41.63 29.0161L41.757 28.2118L41.5983 28.1907L41.4713 28.9843Z" fill="white"/>
<path d="M41.6996 27.2697L41.6848 27.5762L41.8434 27.5838L41.8582 27.2773L41.6996 27.2697Z" fill="white"/>
<path d="M36.159 38.0531C36.085 38.1166 36.0215 38.1695 35.9474 38.233L36.0532 38.3599C36.1273 38.2965 36.1908 38.2435 36.2649 38.18L36.286 38.1589L36.1696 38.0425L36.159 38.0531Z" fill="white"/>
<path d="M36.6459 37.6194L36.7517 37.7463C37.0797 37.45 37.376 37.1749 37.6406 36.868L37.5136 36.7622C37.2596 37.0585 36.9633 37.3231 36.6459 37.6194Z" fill="white"/>
<path d="M38.1484 36.0531L37.8203 36.4129L37.9473 36.5187L38.2119 36.2224L38.5399 35.7991L38.4129 35.7039L38.1484 36.0531Z" fill="white"/>
<path d="M30.0003 41.2384C29.7992 41.3019 29.5876 41.3548 29.3654 41.3971L29.3971 41.5559C29.6193 41.503 29.831 41.45 30.0426 41.3866C30.2225 41.3442 30.413 41.2913 30.6035 41.2278L30.5611 41.0691C30.3707 41.1432 30.1802 41.1961 30.0003 41.2384Z" fill="white"/>
<path d="M30.995 40.9526L31.0479 41.1114C31.3336 41.0161 31.6299 40.9103 31.9156 40.7939L31.8521 40.6458C31.577 40.741 31.2807 40.8468 30.995 40.9526Z" fill="white"/>
<path d="M34.7091 39.1431L34.8043 39.2807C35.0689 39.1114 35.3229 38.9315 35.5663 38.741L35.471 38.614C35.2276 38.7939 34.9737 38.9738 34.7091 39.1431Z" fill="white"/>
<path d="M32.4235 40.3919L32.487 40.54C32.5822 40.4977 32.6774 40.4554 32.7727 40.413L32.6986 40.2649C32.6139 40.3072 32.5187 40.3495 32.4235 40.3919Z" fill="white"/>
<path d="M33.2594 39.9897L33.3335 40.1378C33.7038 39.9473 34.0636 39.7463 34.4128 39.524L34.3282 39.3865C33.979 39.5981 33.6192 39.7992 33.2594 39.9897Z" fill="white"/>
<path d="M41.1433 30.3707C41.1222 30.466 41.0904 30.5718 41.0481 30.7094L41.2068 30.7623C41.2492 30.6247 41.2809 30.5083 41.3021 30.4131L41.5243 29.5665L41.3656 29.5242L41.1433 30.3707Z" fill="white"/>
<path d="M27.7357 41.6724C27.5558 41.7041 27.3971 41.7041 27.2701 41.7041C27.2066 41.7041 27.1431 41.7041 27.0902 41.7147L26.9209 41.7253L26.9315 41.884L27.1008 41.8734C27.1537 41.8734 27.2066 41.8628 27.2701 41.8628C27.3971 41.8628 27.5664 41.8523 27.7569 41.8205C27.7886 41.8099 27.831 41.8099 27.8627 41.7994L27.831 41.6406C27.8098 41.6618 27.778 41.6618 27.7357 41.6724Z" fill="white"/>
<path d="M39.852 33.545L39.6404 33.8943C39.5769 33.9895 39.5239 34.0847 39.4605 34.1905C39.4075 34.2858 39.3546 34.3704 39.2911 34.4657L39.4287 34.5503C39.4816 34.4551 39.5451 34.3704 39.598 34.2752C39.6615 34.18 39.7144 34.0847 39.7779 33.9789L39.9896 33.6297C40.0213 33.5768 40.0425 33.5239 40.0636 33.4815L39.9155 33.4075C39.8943 33.4498 39.8732 33.4921 39.852 33.545Z" fill="white"/>
<path d="M38.7832 35.2174L38.9102 35.3126C38.9737 35.2279 39.0372 35.1433 39.0901 35.0586L38.9525 34.9634C38.9102 35.048 38.8467 35.1327 38.7832 35.2174Z" fill="white"/>
<path d="M40.3388 32.5188L40.1166 32.9738L40.2647 33.0479L40.487 32.5929C40.5504 32.4765 40.6033 32.3495 40.6668 32.2119L40.5187 32.1484C40.4658 32.286 40.4023 32.4024 40.3388 32.5188Z" fill="white"/>
<path d="M28.4658 41.5667L28.487 41.7255C28.5822 41.7149 28.688 41.6937 28.7939 41.6831L28.7727 41.5244C28.6669 41.535 28.5611 41.5456 28.4658 41.5667Z" fill="white"/>
<path d="M40.8258 31.3127C40.7941 31.3973 40.7623 31.482 40.7306 31.5772L40.8893 31.6301C40.9211 31.5455 40.9528 31.4608 40.9846 31.3762L40.9951 31.3444L40.847 31.2915L40.8258 31.3127Z" fill="white"/>
<path d="M26.0001 41.7778L25.3546 41.7461L25.344 41.9048L25.9895 41.9366L26.0001 41.8519V41.9366L26.6456 41.9048V41.7461L26.0001 41.7778Z" fill="white"/>
<path d="M24.4351 41.7028L24.4272 41.8613L24.7338 41.8765L24.7416 41.718L24.4351 41.7028Z" fill="white"/>
<path d="M22.9208 41.4712L22.889 41.6299C22.9208 41.6405 22.9631 41.6405 22.9949 41.6405L23.7991 41.7675L23.8203 41.6088L23.0054 41.4818C22.9843 41.4818 22.9525 41.4712 22.9208 41.4712Z" fill="white"/>
<path d="M12.7302 34.8151C12.8995 35.0797 13.0794 35.3336 13.2699 35.577L13.3969 35.4818C13.217 35.2384 13.0371 34.9844 12.8678 34.7305L12.7302 34.8151Z" fill="white"/>
<path d="M13.7779 35.9578L13.6509 36.0636C13.7038 36.1377 13.7673 36.2012 13.8308 36.2752L13.8519 36.2964L13.9683 36.18L13.9472 36.1588C13.8943 36.0953 13.8414 36.0318 13.7779 35.9578Z" fill="white"/>
<path d="M14.3917 36.6562L14.2753 36.7621C14.5716 37.0901 14.8467 37.3864 15.1536 37.651L15.2594 37.524C14.9525 37.27 14.688 36.9737 14.3917 36.6562Z" fill="white"/>
<path d="M11.873 33.3443C12.0635 33.7147 12.2646 34.0745 12.4868 34.4237L12.6244 34.3391C12.4127 34.0004 12.2117 33.6406 12.0212 33.2703L11.873 33.3443Z" fill="white"/>
<path d="M15.5981 37.8311L15.4817 37.958L15.778 38.2226L16.2013 38.5506L16.2965 38.4236L15.9579 38.1591L15.5981 37.8311Z" fill="white"/>
<path d="M10.762 30.0109C10.6986 29.8098 10.6456 29.5982 10.6033 29.376L10.4446 29.4077C10.4975 29.6299 10.5504 29.8416 10.6139 30.0532C10.6562 30.2331 10.7091 30.4236 10.7726 30.6141L10.9314 30.5718C10.8679 30.3813 10.815 30.1908 10.762 30.0109Z" fill="white"/>
<path d="M10.3387 27.7459C10.3176 27.566 10.307 27.4073 10.307 27.2803C10.307 27.2168 10.307 27.1533 10.2964 27.1004L10.2858 26.9417L10.1271 26.9522L10.1377 27.1215C10.1377 27.1745 10.1482 27.2274 10.1482 27.2909C10.1482 27.4178 10.1588 27.5872 10.1906 27.7776C10.2012 27.8094 10.2011 27.8517 10.2117 27.8835L10.3705 27.8517C10.3493 27.82 10.3387 27.7882 10.3387 27.7459Z" fill="white"/>
<path d="M10.8994 31.0583C10.9947 31.344 11.1005 31.6403 11.2275 31.9366L11.3756 31.8731C11.2592 31.5874 11.1534 31.2911 11.0581 31.0054L10.8994 31.0583Z" fill="white"/>
<path d="M11.4708 32.4978C11.5132 32.5931 11.5555 32.6883 11.5978 32.7835L11.746 32.7095C11.7036 32.6142 11.6613 32.519 11.619 32.4343L11.4708 32.4978Z" fill="white"/>
<path d="M10.4445 28.4761L10.2858 28.4972C10.2963 28.5925 10.3175 28.6983 10.3281 28.8041L10.4868 28.783C10.4762 28.6771 10.4551 28.5713 10.4445 28.4761Z" fill="white"/>
<path d="M21.3017 41.0586L21.2488 41.2173C21.3863 41.2597 21.5027 41.2914 21.598 41.3126L22.4446 41.5348L22.4869 41.3761L21.6297 41.1538C21.5451 41.1327 21.4287 41.1009 21.3017 41.0586Z" fill="white"/>
<path d="M16.6986 38.9208C16.7833 38.9843 16.8679 39.0478 16.9526 39.1007L17.0478 38.9631C16.9632 38.9102 16.8785 38.8467 16.8044 38.7832L16.6986 38.9208Z" fill="white"/>
<path d="M20.4341 40.7415L20.3812 40.9002C20.4659 40.9319 20.5505 40.9637 20.6352 40.9954L20.6669 41.006L20.7199 40.8579L20.6881 40.8473C20.6034 40.8049 20.5188 40.7732 20.4341 40.7415Z" fill="white"/>
<path d="M18.1164 39.651C18.0212 39.5875 17.9259 39.5346 17.8201 39.4711C17.7249 39.4182 17.6402 39.3653 17.545 39.3018L17.4603 39.4393C17.5556 39.4922 17.6402 39.5557 17.7355 39.6086C17.8307 39.6721 17.9365 39.725 18.0318 39.7885L18.381 40.0002C18.4339 40.0319 18.4868 40.0531 18.5397 40.0742L18.6138 39.9261C18.5609 39.9049 18.5185 39.8732 18.4656 39.852L18.1164 39.651Z" fill="white"/>
<path d="M19.0266 40.1272L18.9525 40.2753L19.4075 40.4976C19.5239 40.5611 19.6509 40.6246 19.7885 40.6775L19.852 40.5293C19.7144 40.4764 19.598 40.4129 19.4816 40.3494L19.0266 40.1272Z" fill="white"/>
<path d="M10.2328 26.0106L10.2646 25.3651L10.1058 25.3545L10.0741 26L10.1482 26.0106H10.0741L10.1058 26.6561H10.2646L10.2328 26.0106Z" fill="white"/>
<path d="M10.1444 24.4428L10.1293 24.7493L10.2878 24.7571L10.3029 24.4506L10.1444 24.4428Z" fill="white"/>
<path d="M10.5186 23.0262C10.5186 22.9839 10.5292 22.9522 10.5292 22.9204L10.3704 22.8887C10.3599 22.9204 10.3599 22.9627 10.3493 22.9945L10.2223 23.7987L10.381 23.8199L10.5186 23.0262Z" fill="white"/>
<path d="M17.2806 12.8785L17.196 12.741C16.9314 12.9103 16.6775 13.0902 16.4341 13.2807L16.5293 13.4076C16.7727 13.2277 17.0267 13.0478 17.2806 12.8785Z" fill="white"/>
<path d="M18.7407 12.0317L18.6667 11.8835C18.2963 12.074 17.9365 12.2751 17.5873 12.4973L17.6719 12.6349C18.0106 12.4232 18.3704 12.2222 18.7407 12.0317Z" fill="white"/>
<path d="M13.2172 16.8042L13.0902 16.709C13.0267 16.7936 12.9632 16.8783 12.9103 16.963L13.0478 17.0582C13.0902 16.963 13.1537 16.8889 13.2172 16.8042Z" fill="white"/>
<path d="M15.3546 14.4024L15.2488 14.2754C14.9207 14.5717 14.6244 14.8468 14.3599 15.1537L14.4868 15.2595C14.7408 14.9632 15.0265 14.6987 15.3546 14.4024Z" fill="white"/>
<path d="M15.8415 13.9683C15.9155 13.9048 15.979 13.8519 16.0531 13.7884L15.9473 13.6614C15.8732 13.7249 15.8097 13.7778 15.7356 13.8413L15.7145 13.8624L15.8309 13.9788L15.8415 13.9683Z" fill="white"/>
<path d="M22.0003 10.7728C22.2013 10.7093 22.413 10.6564 22.6352 10.6141L22.6035 10.4553C22.3812 10.5082 22.1696 10.5611 21.9579 10.6246C21.778 10.667 21.5876 10.7199 21.3971 10.7834L21.45 10.9421C21.6299 10.8786 21.8098 10.8257 22.0003 10.7728Z" fill="white"/>
<path d="M21.0053 11.0689L20.9524 10.9102C20.6667 11.0054 20.3704 11.1112 20.0741 11.2276L20.1376 11.3758C20.4233 11.2699 20.7196 11.1641 21.0053 11.0689Z" fill="white"/>
<path d="M19.5663 11.6296L19.5028 11.4814C19.4075 11.5238 19.3123 11.5661 19.217 11.6084L19.2805 11.7566C19.3864 11.7143 19.4816 11.6719 19.5663 11.6296Z" fill="white"/>
<path d="M13.8413 15.9684L14.1693 15.6086L14.0529 15.4922L13.7884 15.7885L13.4603 16.2118L13.5873 16.307L13.8413 15.9684Z" fill="white"/>
<path d="M23.5346 10.4551L23.5134 10.2964C23.4182 10.307 23.3124 10.3281 23.2065 10.3387L23.2277 10.4974C23.3335 10.4869 23.4394 10.4657 23.5346 10.4551Z" fill="white"/>
<path d="M24.2541 10.3496C24.434 10.3178 24.5927 10.3178 24.7197 10.3178C24.7832 10.3178 24.8467 10.3178 24.8996 10.3073L25.0689 10.2967L25.0583 10.1379L24.889 10.1485C24.8361 10.1485 24.7832 10.1591 24.7197 10.1591C24.5927 10.1591 24.4234 10.1697 24.2329 10.2014C24.2011 10.212 24.1588 10.212 24.1271 10.2226L24.1482 10.3813C24.18 10.3602 24.2223 10.3496 24.2541 10.3496Z" fill="white"/>
<path d="M11.1641 20.6986C11.1958 20.6139 11.2276 20.5293 11.2593 20.434L11.1006 20.3811C11.0688 20.4658 11.0371 20.5504 11.0053 20.6351L10.9948 20.6668L11.1429 20.7197L11.1641 20.6986Z" fill="white"/>
<path d="M10.8572 21.6511C10.8783 21.5558 10.9101 21.45 10.9524 21.3124L10.7937 21.2595C10.7513 21.3971 10.7196 21.5135 10.6984 21.6087L10.4762 22.4553L10.6349 22.4976L10.8572 21.6511Z" fill="white"/>
<path d="M12.1482 18.4765L12.3598 18.1273C12.4233 18.032 12.4762 17.9368 12.5397 17.831C12.5926 17.7357 12.6455 17.6511 12.709 17.5558L12.5714 17.4712C12.5185 17.5664 12.4656 17.6511 12.4021 17.7463C12.3386 17.8416 12.2857 17.9368 12.2222 18.0426L12.0106 18.3918C11.9788 18.4447 11.9577 18.4977 11.9365 18.54L12.0847 18.6141C12.0953 18.5717 12.127 18.5188 12.1482 18.4765Z" fill="white"/>
<path d="M11.651 19.4925L11.8733 19.0375L11.7251 18.9634L11.5029 19.4184C11.4394 19.5348 11.3865 19.6618 11.323 19.7994L11.4711 19.8629C11.5346 19.7359 11.5876 19.6089 11.651 19.4925Z" fill="white"/>
<path d="M26.0001 10.2437L26.6456 10.2754V10.1167L26.0001 10.085V10.159L25.9895 10.085L25.344 10.1167L25.3546 10.2754L26.0001 10.2437Z" fill="white"/>
<path d="M29.0795 10.5502L29.1113 10.3915C29.0795 10.3809 29.0372 10.3809 29.0055 10.3809L28.2012 10.2539L28.1801 10.4126L28.9949 10.5396C29.016 10.5396 29.0478 10.5396 29.0795 10.5502Z" fill="white"/>
<path d="M27.2672 10.1484L27.2592 10.3069L27.5656 10.3223L27.5736 10.1638L27.2672 10.1484Z" fill="white"/>
<path d="M39.2593 17.2065C39.09 16.9419 38.9101 16.688 38.7196 16.4446L38.5927 16.5398C38.7725 16.7832 38.9524 17.0372 39.1218 17.2911L39.2593 17.2065Z" fill="white"/>
<path d="M38.2226 16.053L38.3496 15.9472C38.2861 15.8731 38.2332 15.8096 38.1697 15.7355L38.1485 15.7144L38.0321 15.8308L38.0533 15.8519C38.1062 15.9154 38.1591 15.9895 38.2226 16.053Z" fill="white"/>
<path d="M40.1272 18.6775C39.9367 18.3071 39.7356 17.9474 39.5134 17.5981L39.3759 17.6828C39.5875 18.0214 39.7886 18.3812 39.979 18.7516L40.1272 18.6775Z" fill="white"/>
<path d="M37.6086 15.3651L37.7356 15.2593C37.4393 14.9312 37.1642 14.6349 36.8573 14.3704L36.7515 14.4973C37.0478 14.7513 37.3123 15.037 37.6086 15.3651Z" fill="white"/>
<path d="M41.0901 20.963C40.9949 20.6773 40.8891 20.381 40.7727 20.0847L40.6245 20.1482C40.7409 20.4339 40.8467 20.7302 40.942 21.0159L41.0901 20.963Z" fill="white"/>
<path d="M41.5556 23.5456L41.7144 23.5244C41.7038 23.4292 41.6826 23.3234 41.672 23.2175L41.5133 23.2387C41.5239 23.3445 41.5345 23.4503 41.5556 23.5456Z" fill="white"/>
<path d="M41.6617 24.2648C41.6935 24.4447 41.6935 24.6034 41.6935 24.7304C41.6935 24.7939 41.6935 24.8574 41.7041 24.9103L41.7147 25.069L41.8734 25.0584L41.8628 24.8891C41.8628 24.8362 41.8522 24.7833 41.8522 24.7198C41.8522 24.5928 41.8416 24.4235 41.8099 24.233C41.7993 24.2013 41.7993 24.1589 41.7887 24.1272L41.63 24.1589C41.6512 24.1907 41.6512 24.233 41.6617 24.2648Z" fill="white"/>
<path d="M41.2278 22.0104C41.2913 22.2115 41.3442 22.4231 41.3865 22.6453L41.5453 22.6136C41.4923 22.3914 41.4394 22.1797 41.3759 21.9681C41.3336 21.7882 41.2807 21.5977 41.2172 21.4072L41.0585 21.4496C41.1325 21.64 41.1855 21.8199 41.2278 22.0104Z" fill="white"/>
<path d="M36.4024 14.1799L36.5082 14.0635L36.2119 13.799L35.7886 13.4709L35.6934 13.5979L36.0426 13.8519L36.4024 14.1799Z" fill="white"/>
<path d="M40.5295 19.5135C40.4872 19.4183 40.4449 19.323 40.4025 19.2278L40.2544 19.3019C40.2967 19.3971 40.3391 19.4923 40.3814 19.577L40.5295 19.5135Z" fill="white"/>
<path d="M30.6986 10.963L30.7515 10.8043C30.614 10.762 30.4976 10.7302 30.4023 10.709L29.5558 10.4868L29.5134 10.6455L30.3706 10.8678C30.4552 10.8889 30.5716 10.9207 30.6986 10.963Z" fill="white"/>
<path d="M31.5664 11.2802L31.6193 11.1214C31.5346 11.0897 31.45 11.058 31.3653 11.0262L31.3336 11.0156L31.2806 11.1638L31.3124 11.1744C31.3865 11.2167 31.4711 11.2484 31.5664 11.2802Z" fill="white"/>
<path d="M35.302 13.0898C35.2173 13.0263 35.1327 12.9628 35.048 12.9099L34.9528 13.0475C35.0374 13.1004 35.1221 13.1639 35.1962 13.2274L35.302 13.0898Z" fill="white"/>
<path d="M32.9737 11.8835L33.0478 11.7354L32.5927 11.5131C32.4763 11.4497 32.3493 11.3862 32.2118 11.3333L32.1377 11.492C32.2753 11.5449 32.3917 11.6084 32.5081 11.6719L32.9737 11.8835Z" fill="white"/>
<path d="M33.8734 12.3703C33.9686 12.4338 34.0639 12.4867 34.1697 12.5502C34.2649 12.6031 34.3496 12.656 34.4448 12.7195L34.5295 12.5819C34.4343 12.529 34.3496 12.4655 34.2544 12.4126C34.1591 12.3491 34.0639 12.2962 33.9686 12.2327L33.6194 12.0211C33.5665 11.9894 33.5136 11.9682 33.4713 11.947L33.3972 12.0952C33.4501 12.1163 33.4925 12.1481 33.5454 12.1692L33.8734 12.3703Z" fill="white"/>
<path d="M41.8943 25.3545L41.7356 25.3651L41.7673 26.0106L41.7356 26.6561H41.8943L41.9261 26.0106H41.8414L41.9261 26L41.8943 25.3545Z" fill="white"/>
<path d="M32.0956 43.9792L32.1485 44.1485L32.8257 43.9052L32.7623 43.7358L32.0956 43.9792Z" fill="white"/>
<path d="M26.4764 44.9739L26.487 45.1538L27.2066 45.122L27.196 44.9421L26.4764 44.9739Z" fill="white"/>
<path d="M30.7197 44.3813L30.7621 44.5612L31.4605 44.3813L31.4181 44.2014L30.7197 44.3813Z" fill="white"/>
<path d="M44.9874 26.0087L44.9508 26.7273L45.1305 26.7364L45.167 26.0178L44.9874 26.0087Z" fill="white"/>
<path d="M29.6405 44.6461L29.3336 44.6884L29.3654 44.8683L29.6722 44.826C29.7886 44.8154 29.9156 44.7837 30.0744 44.7413L30.032 44.572C29.8733 44.6038 29.7463 44.6249 29.6405 44.6461Z" fill="white"/>
<path d="M44.4025 30.6141L44.3179 30.9527L44.4872 30.9951L44.5718 30.6564C44.6036 30.54 44.6353 30.4236 44.6671 30.3072L44.4978 30.2649C44.466 30.3813 44.4343 30.4977 44.4025 30.6141Z" fill="white"/>
<path d="M43.524 33.3439C43.4817 33.4497 43.4288 33.5556 43.3865 33.6508L43.5452 33.7249C43.5981 33.6191 43.651 33.5132 43.6934 33.3968L43.8203 33.0476L43.651 32.9841L43.524 33.3439Z" fill="white"/>
<path d="M44.8893 27.958L44.8575 28.1485L45.0374 28.1802L45.0692 27.9791L45.1009 27.45L44.921 27.4395L44.8893 27.958Z" fill="white"/>
<path d="M33.8944 43.2702C33.8309 43.3019 33.7569 43.3337 33.6934 43.3654C33.6087 43.4078 33.5241 43.4501 33.4288 43.4924L33.5029 43.6512C33.5876 43.6088 33.6828 43.5665 33.7675 43.5242C33.831 43.4924 33.905 43.4607 33.9685 43.4289L34.1484 43.3443L34.0743 43.1855L33.8944 43.2702Z" fill="white"/>
<path d="M44.7502 28.8462L44.6403 29.5574L44.818 29.5849L44.928 28.8737L44.7502 28.8462Z" fill="white"/>
<path d="M43.8944 32.3178L44.0637 32.3813L44.2754 31.8099L44.3071 31.6935L44.1378 31.6511L43.8944 32.3178Z" fill="white"/>
<path d="M27.9579 44.8999H27.9155L27.9261 45.0798L28.6457 44.974L28.6139 44.8047L27.9579 44.8999Z" fill="white"/>
<path d="M41.2068 37.3442L41.3549 37.45C41.5031 37.2596 41.6406 37.0585 41.7782 36.868L41.6301 36.7622C41.4925 36.9633 41.3549 37.1537 41.2068 37.3442Z" fill="white"/>
<path d="M39.4288 39.4392L39.3441 39.5239L39.4711 39.6509L39.5558 39.5662C39.6933 39.4181 39.8309 39.2699 39.9685 39.1218L39.8309 39.0054C39.7039 39.1535 39.5663 39.2911 39.4288 39.4392Z" fill="white"/>
<path d="M40.3179 38.4659L40.4554 38.5823C40.6142 38.4024 40.7623 38.2119 40.9105 38.0214L40.7729 37.905C40.6248 38.1061 40.466 38.286 40.3179 38.4659Z" fill="white"/>
<path d="M35.0585 42.7094L34.7305 42.8682L34.8045 43.0269L35.1432 42.8682C35.249 42.8153 35.3442 42.7518 35.45 42.6883L35.3548 42.5295C35.2596 42.593 35.1537 42.6459 35.0585 42.7094Z" fill="white"/>
<path d="M42.0215 36.1697L42.1696 36.2649C42.2966 36.0638 42.4236 35.8522 42.5506 35.6511L42.3919 35.5559C42.286 35.7675 42.1591 35.9686 42.0215 36.1697Z" fill="white"/>
<path d="M37.1538 41.3549L37.2596 41.5031C37.4501 41.3655 37.6406 41.2174 37.8311 41.0692L37.7252 40.9316C37.5348 41.0692 37.3443 41.2174 37.1538 41.3549Z" fill="white"/>
<path d="M35.9685 42.1591L36.0637 42.3073C36.2648 42.1803 36.4659 42.0427 36.6669 41.9157L36.5611 41.7676C36.3706 41.9051 36.1696 42.0321 35.9685 42.1591Z" fill="white"/>
<path d="M42.7516 34.9525L42.9103 35.0266L43.2278 34.381L43.069 34.2964L42.7516 34.9525Z" fill="white"/>
<path d="M38.2753 40.4764L38.3917 40.614C38.5716 40.4553 38.762 40.3071 38.9419 40.1378L38.8255 40.0002C38.6456 40.1696 38.4657 40.3177 38.2753 40.4764Z" fill="white"/>
<path d="M8.02112 32.1062L7.85181 32.1591L8.09519 32.8364H8.10578L8.26451 32.7729L8.02112 32.1062Z" fill="white"/>
<path d="M9.69312 36.0743C9.8201 36.2754 9.95767 36.4764 10.0847 36.6775L10.2328 36.5717C10.0952 36.3706 9.96825 36.1696 9.84126 35.9685L9.69312 36.0743Z" fill="white"/>
<path d="M8.64554 33.7042C8.60321 33.6195 8.56088 33.5349 8.51855 33.4502L8.34924 33.5243C8.39157 33.6089 8.4339 33.7042 8.47623 33.7888C8.50797 33.8523 8.53972 33.9264 8.57146 33.9899L8.65612 34.1698L8.81485 34.0957L8.7302 33.9158C8.70903 33.8417 8.67729 33.7677 8.64554 33.7042Z" fill="white"/>
<path d="M9.14298 34.741L8.98425 34.815L9.14298 35.1537C9.19589 35.2595 9.25939 35.3547 9.32288 35.4605L9.48161 35.3653C9.41812 35.2595 9.36521 35.1642 9.31229 35.069L9.14298 34.741Z" fill="white"/>
<path d="M7.31234 29.3337L7.13245 29.3655L7.18536 29.6724C7.19594 29.7888 7.22768 29.9158 7.27001 30.0745L7.43933 30.0322C7.397 29.8734 7.37583 29.757 7.36525 29.6406L7.31234 29.3337Z" fill="white"/>
<path d="M10.5081 37.2699C10.6456 37.4604 10.7938 37.6508 10.9419 37.8413L11.0795 37.7355C10.9313 37.545 10.7832 37.3545 10.6456 37.1641L10.5081 37.2699Z" fill="white"/>
<path d="M8.19058 32.8047L8.10592 32.8364H8.09534L8.19058 32.8047Z" fill="white"/>
<path d="M7.02878 26.4828L6.84912 26.4919L6.88574 27.2106L7.0654 27.2014L7.02878 26.4828Z" fill="white"/>
<path d="M7.11125 27.9686L7.10067 27.9263L6.92078 27.9369L7.0266 28.6564L7.20649 28.6247L7.11125 27.9686Z" fill="white"/>
<path d="M7.44995 30.7728L7.62984 31.4712L7.79916 31.4289L7.61926 30.7305L7.44995 30.7728Z" fill="white"/>
<path d="M18.36 43.3862L18.2859 43.545C18.3917 43.5979 18.4975 43.6508 18.6139 43.6931L18.9631 43.8201L19.0266 43.6508L18.6774 43.5238C18.561 43.4921 18.4552 43.4391 18.36 43.3862Z" fill="white"/>
<path d="M22.4397 44.6557L22.4126 44.8335L23.124 44.9418L23.151 44.7639L22.4397 44.6557Z" fill="white"/>
<path d="M19.6191 44.0743L20.1906 44.286L20.307 44.3177L20.3493 44.1484L19.6826 43.905L19.6191 44.0743Z" fill="white"/>
<path d="M21.0478 44.3284L21.0055 44.4977L21.3441 44.5823C21.4605 44.6141 21.5769 44.6458 21.6933 44.6776L21.7357 44.5083C21.6193 44.4765 21.5029 44.4448 21.3759 44.413L21.0478 44.3284Z" fill="white"/>
<path d="M23.8627 44.8682L23.8309 45.0481L24.032 45.0798L24.5611 45.1116V44.9317L24.0532 44.8999L23.8627 44.8682Z" fill="white"/>
<path d="M25.2806 45.1433L25.9896 45.1856L26.0002 45.0057L25.2806 44.9634V45.1433Z" fill="white"/>
<path d="M11.3969 38.4025C11.5556 38.5823 11.7037 38.7728 11.873 38.9527L12.0106 38.8363C11.8519 38.6564 11.6931 38.4765 11.545 38.2966L11.3969 38.4025Z" fill="white"/>
<path d="M13.4182 40.4659C13.5981 40.6247 13.7886 40.7728 13.9791 40.921L14.0955 40.7834C13.905 40.6352 13.7251 40.4871 13.5452 40.3284L13.4182 40.4659Z" fill="white"/>
<path d="M17.0627 42.765L16.9845 42.927L17.6326 43.2397L17.7108 43.0776L17.0627 42.765Z" fill="white"/>
<path d="M12.4867 39.3547L12.3597 39.4817L12.4444 39.5664C12.5925 39.7039 12.7407 39.8415 12.8888 39.9791L13.0052 39.8415C12.8571 39.7039 12.7089 39.5664 12.5714 39.4288L12.4867 39.3547Z" fill="white"/>
<path d="M14.5504 41.3654C14.7409 41.5136 14.942 41.6511 15.1324 41.7887L15.2383 41.6406C15.0478 41.503 14.8467 41.3654 14.6562 41.2173L14.5504 41.3654Z" fill="white"/>
<path d="M15.7356 42.191C15.9367 42.3179 16.1483 42.4449 16.3494 42.5719L16.4446 42.4132C16.2435 42.2862 16.0425 42.1698 15.8414 42.0322L15.7356 42.191Z" fill="white"/>
<path d="M18.1059 8.75156C18.1694 8.71981 18.2435 8.68807 18.307 8.65632C18.3916 8.61399 18.4763 8.57167 18.5715 8.52934L18.4974 8.37061C18.4128 8.41293 18.3175 8.45526 18.2329 8.49759C18.1694 8.52934 18.0953 8.56108 18.0318 8.59283L17.8519 8.67749L17.926 8.83622L18.1059 8.75156Z" fill="white"/>
<path d="M16.9418 9.31234L17.2699 9.1536L17.1958 8.99487L16.8572 9.1536C16.7514 9.20651 16.6561 9.27001 16.5503 9.3335L16.6455 9.49223C16.7408 9.42874 16.8466 9.36525 16.9418 9.31234Z" fill="white"/>
<path d="M19.905 8.03186L19.8415 7.86255L19.1748 8.10594L19.2383 8.27525L19.905 8.03186Z" fill="white"/>
<path d="M16.0319 9.86226L15.9367 9.71411C15.7356 9.8411 15.5346 9.97866 15.3335 10.1056L15.4393 10.2538C15.6298 10.1162 15.8309 9.98924 16.0319 9.86226Z" fill="white"/>
<path d="M14.8467 10.667L14.7409 10.5188C14.5504 10.6564 14.3493 10.8045 14.1694 10.9527L14.2753 11.0902C14.4657 10.9421 14.6562 10.8045 14.8467 10.667Z" fill="white"/>
<path d="M25.524 7.03707L25.5134 6.85718L24.7938 6.89951L24.8044 7.0794L25.524 7.03707Z" fill="white"/>
<path d="M21.2354 7.45848L20.5386 7.63794L20.5834 7.81215L21.2803 7.63268L21.2354 7.45848Z" fill="white"/>
<path d="M24.0426 7.12163L24.0849 7.11105L24.0743 6.93115L23.3547 7.03697L23.3759 7.21687L24.0426 7.12163Z" fill="white"/>
<path d="M22.36 7.37579L22.6669 7.33346L22.6351 7.15356L22.3283 7.19589C22.2119 7.20647 22.0849 7.23822 21.9261 7.28055L21.9685 7.44986C22.1272 7.41812 22.2436 7.38637 22.36 7.37579Z" fill="white"/>
<path d="M7.10047 24.0635L7.13222 23.8731L6.95232 23.8413L6.93116 24.0424L6.89941 24.5715L7.07931 24.5821L7.10047 24.0635Z" fill="white"/>
<path d="M7.17063 22.4246L7.06104 23.1357L7.23883 23.1631L7.34842 22.452L7.17063 22.4246Z" fill="white"/>
<path d="M6.85606 25.2914L6.82007 26.01L6.99973 26.019L7.03573 25.3004L6.85606 25.2914Z" fill="white"/>
<path d="M8.1059 19.6934L7.93659 19.6299L7.72494 20.2013L7.68262 20.3177L7.86251 20.36L8.1059 19.6934Z" fill="white"/>
<path d="M8.47623 18.6771C8.51856 18.5713 8.57147 18.4655 8.6138 18.3702L8.45507 18.2961C8.40216 18.402 8.34924 18.5078 8.30691 18.6242L8.17993 18.9734L8.34925 19.0369L8.47623 18.6771Z" fill="white"/>
<path d="M7.59801 21.3968L7.68267 21.0582L7.50277 21.0159L7.41811 21.3545C7.38637 21.4709 7.35462 21.5873 7.32288 21.7037L7.49219 21.746C7.53452 21.6402 7.56626 21.5238 7.59801 21.3968Z" fill="white"/>
<path d="M13.7144 11.5453L13.598 11.4077C13.4181 11.5664 13.2276 11.7146 13.0477 11.8839L13.1641 12.0215C13.3546 11.8522 13.5345 11.6934 13.7144 11.5453Z" fill="white"/>
<path d="M9.08019 16.9898L8.7666 17.6375L8.92853 17.7159L9.24212 17.0682L9.08019 16.9898Z" fill="white"/>
<path d="M10.7937 14.6666L10.6456 14.5608C10.4974 14.7513 10.3599 14.9523 10.2223 15.1428L10.3704 15.2486C10.508 15.0581 10.6456 14.8571 10.7937 14.6666Z" fill="white"/>
<path d="M11.6826 13.5451L11.545 13.4287C11.3863 13.6086 11.2381 13.7991 11.09 13.9896L11.2275 14.106C11.3757 13.9155 11.5238 13.7356 11.6826 13.5451Z" fill="white"/>
<path d="M12.5715 12.5822L12.6562 12.4976L12.5292 12.3706L12.4446 12.4553C12.307 12.6034 12.1694 12.7516 12.0319 12.8997L12.1694 13.0161C12.2964 12.868 12.434 12.7198 12.5715 12.5822Z" fill="white"/>
<path d="M9.96819 15.8413L9.82004 15.7461C9.69306 15.9472 9.56607 16.1482 9.43909 16.3599L9.59782 16.4551C9.71422 16.2434 9.84121 16.0424 9.96819 15.8413Z" fill="white"/>
<path d="M42.2966 15.9474C42.1697 15.7464 42.0321 15.5453 41.9051 15.3442L41.757 15.4501C41.8945 15.6511 42.0215 15.8522 42.1485 16.0532L42.2966 15.9474Z" fill="white"/>
<path d="M43.8099 19.2062L43.884 19.1851H43.8946L43.8099 19.2062Z" fill="white"/>
<path d="M42.8575 17.2806L43.0163 17.2065L42.8575 16.8679C42.8046 16.7621 42.7411 16.6669 42.6777 16.561L42.5189 16.6563C42.5824 16.7621 42.6353 16.8573 42.6882 16.9526L42.8575 17.2806Z" fill="white"/>
<path d="M43.3548 18.3176C43.3972 18.4022 43.4395 18.4869 43.4818 18.5821L43.6405 18.5081C43.5982 18.4234 43.5559 18.3282 43.5136 18.2435C43.4818 18.18 43.4501 18.1059 43.4183 18.0424L43.3337 17.8625L43.1749 17.9366L43.2596 18.1165C43.2913 18.18 43.3231 18.2435 43.3548 18.3176Z" fill="white"/>
<path d="M43.9686 19.9152L44.1379 19.8517L43.8945 19.1851H43.884L43.7252 19.2485L43.9686 19.9152Z" fill="white"/>
<path d="M44.376 20.5509L44.2018 20.5959L44.3819 21.2926L44.5561 21.2476L44.376 20.5509Z" fill="white"/>
<path d="M45.1137 24.7997L44.9341 24.8088L44.9707 25.5275L45.1504 25.5183L45.1137 24.7997Z" fill="white"/>
<path d="M44.8893 24.0531V24.0954L45.0692 24.0848L44.9634 23.3652L44.7941 23.397L44.8893 24.0531Z" fill="white"/>
<path d="M44.6774 22.677L44.8573 22.6453L44.815 22.3384C44.7938 22.222 44.7727 22.095 44.7303 21.9363L44.561 21.9786C44.6034 22.1373 44.6245 22.2537 44.6351 22.3701L44.6774 22.677Z" fill="white"/>
<path d="M36.2649 9.83115C36.0638 9.70416 35.8628 9.57718 35.6511 9.4502L35.5559 9.60893C35.757 9.73591 35.958 9.85231 36.1591 9.98988L36.2649 9.83115Z" fill="white"/>
<path d="M26.7198 6.87851L26.0002 6.83618L25.9896 7.01608L26.7092 7.04782L26.7198 6.87851Z" fill="white"/>
<path d="M30.9526 7.6932L30.9949 7.52389L30.6563 7.43924C30.5399 7.40749 30.4235 7.37574 30.3071 7.34399L30.2648 7.51331C30.3812 7.54505 30.4976 7.5768 30.6246 7.60855L30.9526 7.6932Z" fill="white"/>
<path d="M32.3704 7.94708L31.799 7.73544L31.6826 7.69312L31.6403 7.87301L32.3069 8.1164L32.3704 7.94708Z" fill="white"/>
<path d="M41.4925 14.7514C41.3549 14.5609 41.2067 14.3704 41.0586 14.1799L40.921 14.2858C41.0692 14.4762 41.2067 14.6667 41.3549 14.8572L41.4925 14.7514Z" fill="white"/>
<path d="M33.6404 8.63504L33.7145 8.47631C33.6087 8.4234 33.5029 8.37049 33.3865 8.32816L33.0372 8.20117L32.9738 8.37049L33.323 8.49747C33.4394 8.52922 33.5346 8.58213 33.6404 8.63504Z" fill="white"/>
<path d="M28.8694 7.07826L28.8423 7.2561L29.5537 7.36447L29.5808 7.18663L28.8694 7.07826Z" fill="white"/>
<path d="M28.138 7.14296L28.1591 6.96307L27.9686 6.9419L27.4395 6.91016L27.429 7.09005L27.9475 7.11122L28.138 7.14296Z" fill="white"/>
<path d="M35.0162 9.08984L34.3707 8.78296L34.286 8.94169L34.9421 9.25915L35.0162 9.08984Z" fill="white"/>
<path d="M39.5134 12.6671L39.6404 12.5401L39.5557 12.4554C39.4076 12.3179 39.27 12.1803 39.1113 12.0427L38.9949 12.1803C39.143 12.3179 39.2912 12.4554 39.4287 12.593L39.5134 12.6671Z" fill="white"/>
<path d="M40.6034 13.6089C40.4447 13.429 40.2965 13.2385 40.1272 13.0586L39.9896 13.175C40.1484 13.3549 40.3071 13.5348 40.4552 13.7147L40.6034 13.6089Z" fill="white"/>
<path d="M37.4499 10.6559C37.2594 10.5078 37.0584 10.3702 36.8679 10.2327L36.7621 10.3808C36.9526 10.5184 37.1536 10.6559 37.3441 10.8041L37.4499 10.6559Z" fill="white"/>
<path d="M38.5715 11.5556C38.3916 11.3969 38.2012 11.2487 38.0107 11.1006L37.8943 11.2382C38.0848 11.3863 38.2647 11.5345 38.4446 11.6932L38.5715 11.5556Z" fill="white"/>
<path d="M26.0003 5.68237C14.7939 5.68237 5.67212 14.8041 5.67212 26.0106C5.67212 37.217 14.7939 46.3387 26.0003 46.3387C37.2067 46.3387 46.3285 37.217 46.3285 26.0106C46.3285 14.8041 37.2067 5.68237 26.0003 5.68237ZM26.0003 45.8308C15.069 45.8308 6.18006 36.9419 6.18006 26.0106C6.18006 15.0793 15.069 6.19031 26.0003 6.19031C36.9316 6.19031 45.8205 15.0793 45.8205 26.0106C45.8205 36.9419 36.9316 45.8308 26.0003 45.8308Z" fill="white"/>
<path d="M26.0002 0C11.6615 0 0 11.6615 0 26.0002C0 40.3389 11.6615 52.0109 26.0002 52.0109C40.3389 52.0109 52.0004 40.3495 52.0004 26.0108C52.0004 11.672 40.3389 0 26.0002 0ZM26.0002 51.0056C12.2223 51.0056 1.0053 39.7886 1.0053 26.0108C1.0053 12.2329 12.2117 1.01588 26.0002 1.01588C39.7781 1.01588 50.9951 12.2329 50.9951 26.0108C50.9951 39.7886 39.7781 51.0056 26.0002 51.0056Z" fill="white"/>
<path d="M22.8786 16.2964H20.3812V16.9419H22.8786V16.2964Z" fill="white"/>
<path d="M26.8256 15.1748H24.3282V15.8203H26.8256V15.1748Z" fill="white"/>
<path d="M30.7515 16.2964H28.2542V16.9419H30.7515V16.2964Z" fill="white"/>
<path d="M30.0319 15.1748H28.9949V15.8203H30.0319V15.1748Z" fill="white"/>
<path d="M26.0954 14.0422H25.0583V14.6877H26.0954V14.0422Z" fill="white"/>
<path d="M27.1642 14.0422H26.6456V14.6877H27.1642V14.0422Z" fill="white"/>
<path d="M24.5083 14.0422H23.9897V14.6877H24.5083V14.0422Z" fill="white"/>
<path d="M28.2647 15.1748H27.5769V15.8203H28.2647V15.1748Z" fill="white"/>
<path d="M22.3176 15.1748H21.2805V15.8203H22.3176V15.1748Z" fill="white"/>
<path d="M23.7461 15.1748H23.0582V15.8203H23.7461V15.1748Z" fill="white"/>
<path d="M27.4182 16.2964H23.7462V16.9419H27.4182V16.2964Z" fill="white"/>
<path d="M22.8786 35.0054H20.3812V35.6509H22.8786V35.0054Z" fill="white"/>
<path d="M26.8256 36.1272H24.3282V36.7727H26.8256V36.1272Z" fill="white"/>
<path d="M30.7515 35.0054H28.2542V35.6509H30.7515V35.0054Z" fill="white"/>
<path d="M30.0319 36.1272H28.9949V36.7727H30.0319V36.1272Z" fill="white"/>
<path d="M26.0954 37.249H25.0583V37.8945H26.0954V37.249Z" fill="white"/>
<path d="M27.1642 37.249H26.6456V37.8945H27.1642V37.249Z" fill="white"/>
<path d="M24.5083 37.249H23.9897V37.8945H24.5083V37.249Z" fill="white"/>
<path d="M28.2647 36.1272H27.5769V36.7727H28.2647V36.1272Z" fill="white"/>
<path d="M22.3176 36.1272H21.2805V36.7727H22.3176V36.1272Z" fill="white"/>
<path d="M23.7461 36.1272H23.0582V36.7727H23.7461V36.1272Z" fill="white"/>
<path d="M27.4182 35.0054H23.7462V35.6509H27.4182V35.0054Z" fill="white"/>
<path d="M35.577 29.0796H34.9315V31.577H35.577V29.0796Z" fill="white"/>
<path d="M36.6986 25.1323H36.0531V27.6297H36.6986V25.1323Z" fill="white"/>
<path d="M35.577 21.2065H34.9315V23.7039H35.577V21.2065Z" fill="white"/>
<path d="M36.6986 21.9258H36.0531V22.9628H36.6986V21.9258Z" fill="white"/>
<path d="M37.8203 25.873H37.1748V26.9101H37.8203V25.873Z" fill="white"/>
<path d="M37.8203 24.7937H37.1748V25.3122H37.8203V24.7937Z" fill="white"/>
<path d="M37.8203 27.45H37.1748V27.9685H37.8203V27.45Z" fill="white"/>
<path d="M36.6986 23.7144H36.0531V24.4022H36.6986V23.7144Z" fill="white"/>
<path d="M36.6986 29.6511H36.0531V30.6882H36.6986V29.6511Z" fill="white"/>
<path d="M36.6986 28.2222H36.0531V28.91H36.6986V28.2222Z" fill="white"/>
<path d="M35.577 24.5508H34.9315V28.2228H35.577V24.5508Z" fill="white"/>
<path d="M17.1853 29.0796H16.5398V31.577H17.1853V29.0796Z" fill="white"/>
<path d="M16.0636 25.1323H15.4181V27.6297H16.0636V25.1323Z" fill="white"/>
<path d="M17.1853 21.2065H16.5398V23.7039H17.1853V21.2065Z" fill="white"/>
<path d="M16.0636 21.9258H15.4181V22.9628H16.0636V21.9258Z" fill="white"/>
<path d="M14.9419 25.873H14.2964V26.9101H14.9419V25.873Z" fill="white"/>
<path d="M14.9419 24.7937H14.2964V25.3122H14.9419V24.7937Z" fill="white"/>
<path d="M14.9419 27.45H14.2964V27.9685H14.9419V27.45Z" fill="white"/>
<path d="M16.0636 23.7144H15.4181V24.4022H16.0636V23.7144Z" fill="white"/>
<path d="M16.0636 29.6511H15.4181V30.6882H16.0636V29.6511Z" fill="white"/>
<path d="M16.0636 28.2222H15.4181V28.91H16.0636V28.2222Z" fill="white"/>
<path d="M17.1853 24.5508H16.5398V28.2228H17.1853V24.5508Z" fill="white"/>
<path d="M81.926 33V18.552H79.196V29.01L69.284 18.552H66.239V33H68.948V22.353L79.133 33H81.926ZM97.7239 27.246V24.726H87.2239V21.408H97.9549V18.552H84.3889V33H87.2239V27.246H97.7239ZM107.693 33V21.408H112.964V18.552H99.587V21.408H104.858V33H107.693ZM125.601 33L125.958 30.564H118.062C117.096 30.564 116.508 30.165 116.508 29.01V28.317H126.189V25.65C126.189 22.815 124.572 21.66 121.821 21.66H118.062C115.332 21.66 113.715 22.815 113.715 25.65V29.01C113.715 31.845 115.332 33 118.062 33H125.601ZM123.375 26.553H116.508V25.65C116.508 24.579 116.949 24.096 118.062 24.096H121.821C122.934 24.096 123.375 24.579 123.375 25.797V26.553ZM140.489 33L140.846 30.564H132.95C131.984 30.564 131.396 30.165 131.396 29.01V28.317H141.077V25.65C141.077 22.815 139.46 21.66 136.709 21.66H132.95C130.22 21.66 128.603 22.815 128.603 25.65V29.01C128.603 31.845 130.22 33 132.95 33H140.489ZM138.263 26.553H131.396V25.65C131.396 24.579 131.837 24.096 132.95 24.096H136.709C137.822 24.096 138.263 24.579 138.263 25.797V26.553ZM151.472 33C154.181 33 155.441 32.454 155.441 30.354V29.094C155.441 27.204 154.181 26.469 151.619 26.469H147.461C146.684 26.469 146.306 26.217 146.306 25.293C146.306 24.348 146.684 24.117 147.461 24.117H154.664L155.063 21.66H147.335C144.626 21.66 143.366 22.227 143.366 24.327V25.545C143.366 27.456 144.605 28.17 147.188 28.17H151.346C152.123 28.17 152.501 28.401 152.501 29.367C152.501 30.333 152.123 30.564 151.346 30.564H143.492C143.366 31.383 143.24 32.202 143.093 33H151.472Z" fill="white"/>
</svg>
