<svg width="90" height="15" viewBox="0 0 90 15" fill="none" xmlns="http://www.w3.org/2000/svg">
<path d="M15.926 15V0.552H13.196V11.01L3.284 0.552H0.239V15H2.948V4.353L13.133 15H15.926ZM31.7239 9.246V6.726H21.2239V3.408H31.9549V0.552H18.3889V15H21.2239V9.246H31.7239ZM41.693 15V3.408H46.964V0.552H33.587V3.408H38.858V15H41.693ZM59.6006 15L59.9576 12.564H52.0616C51.0956 12.564 50.5076 12.165 50.5076 11.01V10.317H60.1886V7.65C60.1886 4.815 58.5716 3.66 55.8206 3.66H52.0616C49.3316 3.66 47.7146 4.815 47.7146 7.65V11.01C47.7146 13.845 49.3316 15 52.0616 15H59.6006ZM57.3746 8.553H50.5076V7.65C50.5076 6.579 50.9486 6.096 52.0616 6.096H55.8206C56.9336 6.096 57.3746 6.579 57.3746 7.797V8.553ZM74.4893 15L74.8463 12.564H66.9503C65.9843 12.564 65.3963 12.165 65.3963 11.01V10.317H75.0773V7.65C75.0773 4.815 73.4603 3.66 70.7093 3.66H66.9503C64.2203 3.66 62.6033 4.815 62.6033 7.65V11.01C62.6033 13.845 64.2203 15 66.9503 15H74.4893ZM72.2633 8.553H65.3963V7.65C65.3963 6.579 65.8373 6.096 66.9503 6.096H70.7093C71.8223 6.096 72.2633 6.579 72.2633 7.797V8.553ZM85.4719 15C88.1809 15 89.4409 14.454 89.4409 12.354V11.094C89.4409 9.204 88.1809 8.469 85.6189 8.469H81.4609C80.6839 8.469 80.3059 8.217 80.3059 7.293C80.3059 6.348 80.6839 6.117 81.4609 6.117H88.6639L89.0629 3.66H81.3349C78.6259 3.66 77.3659 4.227 77.3659 6.327V7.545C77.3659 9.456 78.6049 10.17 81.1879 10.17H85.3459C86.1229 10.17 86.5009 10.401 86.5009 11.367C86.5009 12.333 86.1229 12.564 85.3459 12.564H77.4919C77.3659 13.383 77.2399 14.202 77.0929 15H85.4719Z" fill="white"/>
</svg>
