<svg width="200" height="200" viewBox="0 0 200 200" fill="none" xmlns="http://www.w3.org/2000/svg">
<path d="M72.9197 21.8108L71.1292 15.707L78.7793 20.1017L80.3663 19.6541L77.9655 11.353L76.3785 11.8006L78.1282 17.823L70.6816 13.469L68.9319 13.9573L71.3734 22.2584L72.9197 21.8108Z" fill="#393A3C"/>
<path d="M83.3367 19.1251L82.767 15.707L88.9522 14.6897L88.708 13.1841L82.5229 14.2421L82.1974 12.2889L88.5453 11.2309L88.2604 9.52187L80.2441 10.8647L81.6684 19.41L83.3367 19.1251Z" fill="#393A3C"/>
<path d="M93.2655 10.8647L93.6317 17.823L95.3408 17.7009L94.9339 10.7833L98.1078 10.6206L98.0264 8.9115L90.0101 9.35911L90.0915 11.0682L93.2655 10.8647Z" fill="#393A3C"/>
<path d="M101.404 17.6602L105.921 17.8637L106.205 16.3988L101.485 16.1953C101.2 16.1953 100.956 16.1139 100.793 15.9512C100.631 15.8291 100.549 15.5443 100.59 15.2187V14.8118L106.368 15.056L106.45 13.469C106.49 12.6145 106.287 12.0041 105.839 11.5972C105.392 11.1902 104.781 10.9868 103.927 10.9461L101.689 10.8647C100.875 10.824 100.224 10.9868 99.7355 11.353C99.2472 11.7192 99.003 12.2889 98.9623 13.1434L98.8809 15.1373C98.8402 15.9919 99.0437 16.6022 99.4913 17.0092C99.9389 17.4161 100.59 17.6195 101.404 17.6602ZM100.671 13.2248C100.671 12.8993 100.753 12.6551 100.916 12.5331C101.078 12.3703 101.322 12.3296 101.648 12.3296L103.886 12.411C104.212 12.411 104.456 12.5331 104.578 12.6551C104.7 12.8179 104.781 13.0621 104.741 13.469V13.9166L100.631 13.7538L100.671 13.2248Z" fill="#393A3C"/>
<path d="M110.112 18.352L114.588 19.0031L115.036 17.5788L110.356 16.8871C110.071 16.8464 109.868 16.7243 109.705 16.6022C109.583 16.4395 109.502 16.1953 109.583 15.8291L109.664 15.4222L115.402 16.2767L115.646 14.6897C115.768 13.8352 115.646 13.2248 115.239 12.7772C114.832 12.3296 114.222 12.0448 113.408 11.9227L111.17 11.5972C110.356 11.4751 109.705 11.5565 109.176 11.882C108.688 12.1668 108.362 12.7365 108.24 13.591L107.955 15.5849C107.833 16.4395 107.955 17.0499 108.362 17.4975C108.688 17.9858 109.298 18.2299 110.112 18.352ZM109.868 13.8759C109.909 13.5504 110.031 13.3469 110.193 13.2248C110.356 13.1028 110.6 13.0621 110.926 13.1027L113.164 13.4283C113.489 13.469 113.734 13.5911 113.856 13.7538C113.978 13.9166 114.018 14.2014 113.937 14.5677L113.856 15.0153L109.786 14.4049L109.868 13.8759Z" fill="#393A3C"/>
<path d="M121.872 20.7528C122.157 20.7935 122.442 20.7528 122.645 20.7121C122.848 20.6307 123.052 20.5086 123.174 20.3459C123.337 20.1831 123.418 19.939 123.499 19.6134L123.703 18.881C123.825 18.3113 123.744 17.9044 123.459 17.5788C123.133 17.2533 122.645 17.0092 121.872 16.8057L119.471 16.1953C119.227 16.1546 119.105 16.0325 118.983 15.9105C118.901 15.7884 118.901 15.5849 118.942 15.3408C119.023 15.0559 119.105 14.8932 119.268 14.8525C119.39 14.7711 119.593 14.7711 119.797 14.8525L123.988 15.9105L124.598 14.527L120.122 13.3876C119.715 13.3062 119.39 13.2248 119.064 13.1841C118.779 13.1434 118.494 13.1841 118.291 13.2248C118.087 13.3062 117.884 13.4283 117.762 13.591C117.599 13.7538 117.518 13.998 117.436 14.3235L117.274 15.0153C117.111 15.5849 117.192 16.0325 117.518 16.3174C117.803 16.6429 118.332 16.8871 119.105 17.0905L121.506 17.7009C121.75 17.7416 121.872 17.8637 121.994 17.9451C122.075 18.0671 122.075 18.2706 121.994 18.5554C121.913 18.8403 121.831 19.003 121.668 19.0844C121.546 19.1658 121.343 19.1658 121.139 19.0844L116.582 17.9044C116.5 18.1485 116.378 18.352 116.297 18.5961C116.216 18.8403 116.094 19.0437 116.012 19.2879L120.814 20.5493C121.221 20.6714 121.546 20.7121 121.872 20.7528Z" fill="#393A3C"/>
<path d="M150.112 27.3449L151.17 36.1343L152.513 37.1109L157.681 30.234L156.378 29.2167L152.635 34.2218L151.658 25.6765L150.193 24.5778L144.985 31.4954L146.287 32.472L150.112 27.3449Z" fill="#393A3C"/>
<path d="M154.669 39.1862L157.07 36.704L161.587 41.058L162.645 39.9593L158.087 35.6053L159.471 34.1811L164.11 38.6165L165.29 37.3957L159.43 31.7396L153.449 38.0061L154.669 39.1862Z" fill="#393A3C"/>
<path d="M167.202 42.1974L161.872 46.6328L162.97 47.9349L168.301 43.4995L170.295 45.941L171.638 44.8423L166.47 38.6979L165.168 39.7965L167.202 42.1974Z" fill="#393A3C"/>
<path d="M168.789 48.1383L167.121 49.2777C166.429 49.766 166.063 50.295 165.982 50.8647C165.941 51.4344 166.144 52.0855 166.592 52.7772L169.115 56.5209L170.458 55.8698L167.813 51.9634C167.65 51.7192 167.569 51.4751 167.609 51.2716C167.609 51.0682 167.772 50.8647 168.057 50.6612L168.382 50.4171L171.638 55.2187L172.94 54.3235C173.632 53.8352 173.998 53.3062 174.079 52.7365C174.12 52.1261 173.917 51.5158 173.469 50.824L172.207 48.9522C171.76 48.2604 171.231 47.8535 170.661 47.6907C170.132 47.528 169.522 47.6907 168.789 48.1383ZM171.027 49.766L172.289 51.6378C172.492 51.9227 172.533 52.1668 172.492 52.3703C172.452 52.5738 172.289 52.7772 171.963 52.9807L171.597 53.2248L169.278 49.8474L169.725 49.5626C169.969 49.3998 170.214 49.3184 170.417 49.3591C170.661 49.3591 170.865 49.5219 171.027 49.766Z" fill="#393A3C"/>
<path d="M172.167 56.765C171.434 57.1719 170.987 57.6602 170.865 58.2299C170.743 58.7996 170.905 59.4506 171.272 60.1831L173.388 64.1709L174.771 63.6826L172.533 59.532C172.411 59.2879 172.33 59.0437 172.37 58.8403C172.411 58.6368 172.574 58.4334 172.899 58.2706L173.265 58.0671L175.992 63.1943L177.416 62.4211C178.148 62.0142 178.596 61.5259 178.718 60.9562C178.84 60.3866 178.677 59.7355 178.311 59.003L177.253 57.0091C176.846 56.2767 176.399 55.8291 175.87 55.5849C175.341 55.3408 174.69 55.4629 173.917 55.8291L172.167 56.765ZM174.73 57.294C175.015 57.1312 175.259 57.0905 175.463 57.1312C175.666 57.1719 175.829 57.3754 175.992 57.6602L177.05 59.6541C177.213 59.939 177.253 60.1831 177.172 60.3866C177.091 60.59 176.887 60.7528 176.562 60.9562L176.155 61.1597L174.201 57.5381L174.73 57.294Z" fill="#393A3C"/>
<path d="M177.294 64.9034C177.213 65.351 177.335 65.9207 177.62 66.6531L178.555 68.9725C178.637 69.176 178.678 69.3795 178.637 69.5015C178.596 69.6236 178.433 69.7864 178.149 69.8678C177.864 69.9898 177.66 69.9898 177.538 69.9491C177.416 69.8678 177.294 69.7457 177.213 69.5015L175.422 65.1475C175.178 65.1882 174.934 65.2696 174.69 65.3103C174.446 65.351 174.201 65.4324 173.957 65.4731L175.87 70.1119C176.033 70.4781 176.195 70.8037 176.317 71.0478C176.48 71.292 176.643 71.4954 176.846 71.6582C177.05 71.7803 177.253 71.8617 177.457 71.8617C177.66 71.8617 177.945 71.821 178.23 71.6989L178.922 71.4141C179.451 71.2106 179.736 70.8851 179.817 70.4375C179.898 69.9898 179.776 69.4201 179.491 68.6877L178.555 66.3683C178.474 66.1648 178.433 65.9613 178.474 65.8393C178.515 65.7172 178.678 65.5951 178.922 65.4731C179.166 65.351 179.369 65.351 179.491 65.4324C179.613 65.5137 179.736 65.6358 179.817 65.88L181.445 69.8678L182.909 69.5422L181.16 65.2696C180.997 64.9034 180.834 64.5778 180.671 64.3337C180.509 64.0895 180.346 63.8861 180.142 63.7233C179.98 63.6012 179.736 63.5199 179.532 63.5199C179.288 63.5199 179.044 63.5605 178.759 63.6826L178.067 63.9675C177.66 64.1302 177.375 64.4558 177.294 64.9034Z" fill="#393A3C"/>
<path d="M181.404 93.7538L187.792 93.469L181.689 99.8169L181.729 101.526L190.397 101.119L190.315 99.4914L184.049 99.7762L190.071 93.591L189.99 91.7599L181.323 92.1261L181.404 93.7538Z" fill="#393A3C"/>
<path d="M181.526 104.496L184.985 104.781L184.496 111.048L186.002 111.129L186.49 104.863L188.444 105.025L187.955 111.455L189.664 111.577L190.275 103.479L181.689 102.787L181.526 104.496Z" fill="#393A3C"/>
<path d="M187.141 116.094L180.305 114.791L180.02 116.46L186.816 117.762L186.246 120.855L187.915 121.18L189.42 113.327L187.752 113.001L187.141 116.094Z" fill="#393A3C"/>
<path d="M183.561 121.099L181.648 120.529C180.834 120.285 180.183 120.326 179.695 120.651C179.207 120.977 178.84 121.546 178.637 122.319L177.375 126.633L178.718 127.243L180.061 122.726C180.142 122.442 180.264 122.238 180.427 122.116C180.59 121.994 180.875 121.994 181.2 122.075L181.607 122.197L179.98 127.772L181.526 128.22C182.34 128.464 182.991 128.423 183.479 128.057C183.967 127.731 184.334 127.162 184.578 126.389L185.229 124.232C185.473 123.459 185.473 122.767 185.229 122.238C184.863 121.75 184.374 121.343 183.561 121.099ZM183.723 123.866L183.072 126.022C182.991 126.348 182.828 126.551 182.665 126.633C182.462 126.714 182.218 126.714 181.851 126.633L181.404 126.511L182.543 122.564L183.072 122.726C183.398 122.808 183.601 122.97 183.683 123.133C183.805 123.296 183.805 123.54 183.723 123.866Z" fill="#393A3C"/>
<path d="M180.875 129.929L179.003 129.156C178.23 128.83 177.579 128.83 177.05 129.074C176.521 129.359 176.114 129.888 175.788 130.621L174.079 134.812L175.341 135.585L177.131 131.231C177.253 130.946 177.375 130.783 177.579 130.661C177.782 130.58 178.026 130.58 178.352 130.702L178.718 130.865L176.521 136.236L177.986 136.846C178.759 137.172 179.41 137.172 179.939 136.887C180.468 136.602 180.875 136.073 181.2 135.341L182.055 133.266C182.38 132.492 182.421 131.841 182.258 131.272C182.136 130.702 181.648 130.254 180.875 129.929ZM180.712 132.696L179.858 134.771C179.735 135.097 179.573 135.259 179.369 135.341C179.166 135.422 178.922 135.381 178.555 135.219L178.149 135.056L179.735 131.272L180.224 131.475C180.509 131.597 180.712 131.76 180.793 131.923C180.875 132.126 180.834 132.411 180.712 132.696Z" fill="#393A3C"/>
<path d="M177.986 138.718L177.335 138.393C176.806 138.108 176.399 138.108 175.992 138.311C175.626 138.515 175.219 138.962 174.852 139.654L173.672 141.851C173.55 142.055 173.428 142.177 173.306 142.258C173.184 142.299 172.981 142.258 172.736 142.136C172.492 142.014 172.33 141.851 172.289 141.729C172.248 141.567 172.289 141.404 172.411 141.2L174.649 137.05C174.446 136.887 174.242 136.765 174.079 136.602C173.876 136.439 173.672 136.317 173.51 136.155L171.15 140.59C170.946 140.956 170.824 141.282 170.702 141.567C170.58 141.851 170.539 142.096 170.58 142.34C170.58 142.584 170.661 142.787 170.783 142.95C170.905 143.113 171.109 143.276 171.394 143.438L172.045 143.805C172.533 144.09 172.981 144.089 173.388 143.886C173.794 143.683 174.161 143.235 174.527 142.543L175.707 140.346C175.829 140.142 175.951 140.02 176.073 139.939C176.195 139.898 176.399 139.939 176.643 140.061C176.887 140.183 177.05 140.346 177.05 140.468C177.091 140.631 177.05 140.793 176.928 140.997L174.893 144.781L176.073 145.676L178.271 141.607C178.474 141.241 178.596 140.916 178.718 140.631C178.8 140.346 178.84 140.102 178.84 139.858C178.84 139.613 178.759 139.41 178.596 139.247C178.474 139.044 178.271 138.881 177.986 138.718Z" fill="#393A3C"/>
<path d="M156.338 159.797L160.57 164.557L151.78 163.866L150.519 164.964L156.297 171.434L157.518 170.336L153.327 165.656L161.953 166.389L163.296 165.168L157.518 158.739L156.338 159.797Z" fill="#393A3C"/>
<path d="M148.118 166.714L150.071 169.522L144.903 173.143L145.799 174.364L150.926 170.783L152.065 172.411L146.816 176.073L147.792 177.497L154.425 172.818L149.501 165.738L148.118 166.714Z" fill="#393A3C"/>
<path d="M142.665 178.433L139.369 172.33L137.864 173.143L141.2 179.247L138.433 180.753L139.247 182.258L146.287 178.393L145.432 176.887L142.665 178.433Z" fill="#393A3C"/>
<path d="M135.748 176.968C135.422 176.195 134.975 175.707 134.405 175.544C133.835 175.382 133.184 175.463 132.411 175.788L128.26 177.538L128.627 178.962L132.981 177.131C133.265 177.009 133.469 177.009 133.672 177.05C133.876 177.091 134.039 177.294 134.201 177.62L134.364 177.986L129.034 180.265L129.644 181.729C129.969 182.503 130.417 182.991 130.987 183.154C131.556 183.316 132.207 183.235 132.981 182.909L135.056 182.014C135.829 181.689 136.317 181.282 136.602 180.753C136.887 180.224 136.846 179.573 136.521 178.8L135.748 176.968ZM135.056 180.224C134.975 180.427 134.812 180.59 134.486 180.712L132.411 181.607C132.085 181.729 131.841 181.77 131.678 181.689C131.475 181.607 131.312 181.404 131.19 181.038L131.027 180.631L134.812 179.044L135.015 179.532C135.097 179.776 135.137 180.02 135.056 180.224Z" fill="#393A3C"/>
<path d="M127.406 180.427C127.162 179.613 126.755 179.084 126.226 178.881C125.697 178.678 125.005 178.678 124.232 178.922L119.919 180.224L120.122 181.689L124.639 180.305C124.924 180.224 125.168 180.224 125.371 180.305C125.575 180.387 125.697 180.59 125.819 180.916L125.941 181.322L120.407 183.032L120.854 184.578C121.099 185.392 121.506 185.921 122.035 186.124C122.604 186.328 123.255 186.328 124.028 186.083L126.185 185.432C126.958 185.188 127.528 184.822 127.853 184.334C128.179 183.845 128.22 183.194 127.976 182.38L127.406 180.427ZM126.389 183.561C126.307 183.764 126.104 183.886 125.778 183.967L123.622 184.619C123.296 184.7 123.052 184.7 122.848 184.619C122.686 184.496 122.523 184.293 122.401 183.927L122.279 183.479L126.226 182.299L126.389 182.828C126.511 183.154 126.511 183.398 126.389 183.561Z" fill="#393A3C"/>
<path d="M119.268 184.985C119.145 184.415 118.901 184.049 118.494 183.886C118.087 183.723 117.477 183.723 116.745 183.886L114.303 184.374C114.059 184.415 113.896 184.415 113.774 184.334C113.652 184.252 113.571 184.09 113.489 183.805C113.449 183.52 113.449 183.316 113.53 183.194C113.611 183.072 113.774 182.991 114.018 182.95L118.616 182.055C118.616 181.811 118.616 181.567 118.576 181.322C118.576 181.078 118.576 180.834 118.535 180.59L113.611 181.567C113.204 181.648 112.879 181.729 112.594 181.851C112.309 181.974 112.065 182.096 111.902 182.258C111.74 182.421 111.617 182.584 111.577 182.828C111.536 183.032 111.536 183.316 111.577 183.601L111.74 184.334C111.862 184.903 112.106 185.27 112.513 185.432C112.92 185.595 113.53 185.595 114.262 185.432L116.704 184.944C116.948 184.903 117.111 184.903 117.233 184.985C117.355 185.066 117.436 185.229 117.518 185.514C117.558 185.799 117.558 186.002 117.477 186.083C117.396 186.205 117.233 186.287 116.989 186.328L112.757 187.182L112.798 188.688L117.355 187.792C117.762 187.711 118.087 187.63 118.372 187.508C118.657 187.386 118.901 187.263 119.064 187.101C119.227 186.938 119.349 186.775 119.39 186.531C119.43 186.287 119.43 186.043 119.39 185.758L119.268 184.985Z" fill="#393A3C"/>
<path d="M88.3825 188.647L83.3367 181.404L81.6683 181.16L80.3662 189.705L81.9532 189.949L82.9298 183.764L87.8128 190.844L89.6439 191.129L90.9461 182.584L89.3591 182.34L88.3825 188.647Z" fill="#393A3C"/>
<path d="M78.8199 180.346L77.884 183.683L71.821 181.974L71.414 183.438L77.4771 185.148L76.9074 187.06L70.7223 185.31L70.2747 186.938L78.0875 189.135L80.4476 180.834L78.8199 180.346Z" fill="#393A3C"/>
<path d="M68.9318 177.172L67.3448 176.521L64.7406 182.95L61.8107 181.77L61.1597 183.357L68.6063 186.368L69.2573 184.781L66.3275 183.601L68.9318 177.172Z" fill="#393A3C"/>
<path d="M62.0956 179.084L63.0315 177.294C63.4384 176.562 63.5198 175.911 63.2756 175.341C63.0315 174.812 62.5432 174.324 61.8514 173.957L57.8636 171.882L57.0091 173.062L61.2004 175.259C61.4445 175.382 61.648 175.544 61.7293 175.748C61.8107 175.951 61.77 176.195 61.6073 176.521L61.4038 176.887L56.2767 174.201L55.5442 175.626C55.1373 176.358 55.0559 177.009 55.3001 177.579C55.5442 178.108 56.0325 178.596 56.765 178.962L58.7589 180.02C59.4913 180.387 60.1424 180.549 60.7121 180.427C61.241 180.305 61.6887 179.858 62.0956 179.084ZM60.6307 178.311C60.4679 178.596 60.3051 178.759 60.1017 178.84C59.8982 178.922 59.6541 178.881 59.3692 178.718L57.3753 177.66C57.0905 177.497 56.887 177.335 56.8463 177.131C56.8056 176.928 56.8463 176.643 57.0091 176.317L57.2126 175.91L60.8748 177.823L60.6307 178.311Z" fill="#393A3C"/>
<path d="M55.5036 171.15C55.3408 170.58 54.8932 170.092 54.2014 169.603L50.4578 167.121L49.4812 168.22L53.4283 170.824C53.6724 170.987 53.8352 171.15 53.8759 171.353C53.9573 171.556 53.8759 171.801 53.6724 172.085L53.4283 172.411L48.586 169.196L47.6907 170.539C47.2024 171.231 47.0804 171.882 47.2431 172.452C47.4059 173.021 47.8535 173.51 48.5453 173.998L50.4171 175.259C51.1089 175.707 51.7192 175.91 52.3296 175.87C52.8993 175.829 53.4283 175.422 53.9166 174.73L55.0153 173.062C55.5442 172.37 55.707 171.719 55.5036 171.15ZM52.5738 173.835C52.411 174.12 52.2075 174.242 52.0041 174.324C51.8006 174.364 51.5565 174.283 51.2716 174.12L49.3998 172.859C49.115 172.655 48.9522 172.492 48.9115 172.248C48.8708 172.045 48.9522 171.801 49.1556 171.475L49.3998 171.109L52.8179 173.388L52.5738 173.835Z" fill="#393A3C"/>
<path d="M45.6155 166.999L43.703 165.412C43.5402 165.249 43.4181 165.127 43.3774 164.964C43.3367 164.802 43.4181 164.639 43.6216 164.395C43.825 164.151 43.9878 164.069 44.1099 164.069C44.2726 164.069 44.4354 164.151 44.5982 164.313L48.2198 167.284C48.4232 167.121 48.586 166.958 48.7894 166.796C48.9929 166.633 49.1557 166.47 49.3591 166.307L45.4934 163.133C45.1679 162.889 44.883 162.686 44.6389 162.523C44.3947 162.36 44.1506 162.279 43.9064 162.238C43.6623 162.197 43.4588 162.238 43.2554 162.319C43.0519 162.401 42.8484 162.564 42.645 162.848L42.1567 163.418C41.7905 163.866 41.6684 164.273 41.8311 164.72C41.9532 165.127 42.3194 165.615 42.9298 166.104L44.8423 167.691C45.0051 167.853 45.1272 167.976 45.1679 168.138C45.2086 168.301 45.1272 168.464 44.9237 168.667C44.761 168.871 44.5982 168.993 44.4354 168.993C44.2726 168.993 44.1099 168.911 43.9471 168.749L40.6104 166.022L39.5117 166.999L43.0926 169.929C43.4181 170.173 43.703 170.376 43.9471 170.539C44.232 170.702 44.4761 170.783 44.6796 170.824C44.9237 170.865 45.1272 170.824 45.3306 170.702C45.5341 170.621 45.7376 170.417 45.941 170.173L46.3886 169.603C46.7548 169.156 46.8769 168.708 46.7142 168.301C46.5514 167.935 46.1852 167.487 45.6155 166.999Z" fill="#393A3C"/>
<path d="M23.9268 148.118L26.3276 139.654L25.4731 138.189L18.0265 142.584L18.881 144.008L24.2523 140.834L21.8922 149.135L22.8281 150.682L30.2747 146.287L29.4202 144.903L23.9268 148.118Z" fill="#393A3C"/>
<path d="M24.2523 135.463L21.119 136.846L18.5961 131.109L17.2126 131.719L19.7355 137.457L17.9043 138.271L15.3408 132.37L13.7538 133.062L17.0091 140.509L24.944 137.05L24.2523 135.463Z" fill="#393A3C"/>
<path d="M13.8353 127.894L20.468 125.819L19.939 124.191L13.3469 126.267L12.411 123.255L10.7427 123.744L13.1435 131.394L14.7712 130.905L13.8353 127.894Z" fill="#393A3C"/>
<path d="M16.2767 119.715L15.8698 119.797L14.6897 114.14L13.1434 114.466C12.3296 114.629 11.7599 114.995 11.5158 115.524C11.2309 116.053 11.1902 116.704 11.353 117.518L11.8006 119.715C11.9634 120.529 12.2889 121.099 12.7365 121.465C13.1841 121.831 13.8352 121.913 14.649 121.75L16.6022 121.343C17.4161 121.18 17.9858 120.814 18.2706 120.285C18.5555 119.756 18.5961 119.105 18.4334 118.291L17.4975 113.856L16.0326 113.937L17.0092 118.576C17.0499 118.861 17.0499 119.105 16.9685 119.308C16.8464 119.512 16.6023 119.634 16.2767 119.715ZM14.2828 120.122C13.9573 120.203 13.7131 120.163 13.5504 120.041C13.3876 119.919 13.2655 119.715 13.1841 119.39L12.7365 117.192C12.6551 116.867 12.6958 116.623 12.8179 116.46C12.94 116.297 13.1841 116.175 13.5504 116.094L13.998 116.012L14.8525 120.041L14.2828 120.122Z" fill="#393A3C"/>
<path d="M12.8179 112.716L14.8118 112.513C15.6663 112.431 16.236 112.147 16.5615 111.658C16.8871 111.17 17.0092 110.519 16.9278 109.705L16.4802 105.229L15.0153 105.148L15.5036 109.868C15.5443 110.153 15.5036 110.397 15.3815 110.56C15.2594 110.722 15.0153 110.844 14.6897 110.885L14.2828 110.926L13.6724 105.148L12.0854 105.31C11.2309 105.392 10.6612 105.677 10.3357 106.206C10.0102 106.694 9.8881 107.345 9.96948 108.159L10.2136 110.397C10.295 111.211 10.5392 111.821 10.9461 112.228C11.353 112.635 12.0041 112.798 12.8179 112.716ZM11.5565 107.263C11.6785 107.101 11.9634 107.019 12.3296 106.979L12.7772 106.938L13.1841 111.048L12.6551 111.089C12.3296 111.129 12.0855 111.089 11.9227 110.966C11.7599 110.844 11.6785 110.6 11.6378 110.275L11.3937 108.037C11.3937 107.67 11.4344 107.426 11.5565 107.263Z" fill="#393A3C"/>
<path d="M10.4171 103.479C10.6205 103.561 10.9054 103.642 11.1902 103.642H11.9227C12.4923 103.642 12.8993 103.438 13.1434 103.072C13.3876 102.706 13.5096 102.136 13.5096 101.363V98.881C13.5096 98.6368 13.5503 98.474 13.6317 98.352C13.7131 98.2299 13.9166 98.1892 14.2014 98.1892C14.4862 98.1892 14.6897 98.2299 14.7711 98.352C14.8525 98.474 14.8932 98.6368 14.8932 98.881V103.601C15.1373 103.642 15.3815 103.683 15.6256 103.723C15.8698 103.764 16.1139 103.805 16.3581 103.845V98.8403C16.3581 98.4333 16.3174 98.0671 16.2767 97.7823C16.236 97.4974 16.1546 97.2126 16.0325 97.0498C15.9105 96.8464 15.7477 96.7243 15.5442 96.6022C15.3408 96.5208 15.0966 96.4395 14.7711 96.4395H13.9979C13.4283 96.4395 13.0213 96.6429 12.7772 97.0091C12.533 97.3754 12.411 97.9451 12.411 98.7182V101.2C12.411 101.445 12.3703 101.607 12.2482 101.729C12.1668 101.851 11.9634 101.892 11.6785 101.892C11.3937 101.892 11.1902 101.851 11.1088 101.729C11.0274 101.607 10.9868 101.445 10.9868 101.2V96.8871L9.52185 96.6429V101.282C9.52185 101.689 9.56255 102.055 9.60324 102.34C9.64393 102.625 9.7253 102.869 9.84738 103.072C10.0508 103.235 10.2136 103.398 10.4171 103.479Z" fill="#393A3C"/>
<path d="M20.3459 74.8322L14.3642 72.6348L22.4619 69.0946L23.0316 67.5483L14.8932 64.5778L14.3236 66.0834L20.2239 68.2401L12.289 71.6582L11.6786 73.3672L19.7763 76.3378L20.3459 74.8322Z" fill="#393A3C"/>
<path d="M24.3336 64.8627L21.2818 63.2757L24.1302 57.7009L22.7874 57.0092L19.9389 62.6246L18.1485 61.6887L21.0783 55.9919L19.532 55.2187L15.8698 62.4618L23.5605 66.3683L24.3336 64.8627Z" fill="#393A3C"/>
<path d="M23.6012 51.9634L29.4201 55.7884L30.3154 54.3642L24.5371 50.5392L26.2462 47.8942L24.822 46.999L20.4272 53.6724L21.8515 54.6084L23.6012 51.9634Z" fill="#393A3C"/>
<path d="M28.8098 48.708L30.3968 49.9695C31.0479 50.4985 31.6582 50.7019 32.2686 50.5799C32.8383 50.4578 33.408 50.0916 33.8963 49.4405L36.704 45.9003L35.6867 44.8016L32.7162 48.5046C32.5128 48.7487 32.35 48.8708 32.1465 48.9115C31.9431 48.9522 31.6989 48.8708 31.4141 48.6673L31.0886 48.4232L34.7101 43.9064L33.4487 42.8891C32.7976 42.3601 32.1872 42.1567 31.5769 42.2787C31.0072 42.4008 30.4375 42.8077 29.9492 43.4181L28.525 45.1679C27.996 45.8189 27.7518 46.4293 27.7518 46.999C27.8332 47.6094 28.1588 48.179 28.8098 48.708ZM29.705 46.1038L31.1293 44.354C31.3327 44.1099 31.5362 43.9471 31.7396 43.9471C31.9431 43.9471 32.1872 44.0285 32.4721 44.2726L32.8383 44.5575L30.2747 47.7721L29.8678 47.4466C29.6237 47.2431 29.4609 47.0397 29.4609 46.8362C29.4202 46.5921 29.5016 46.3479 29.705 46.1038Z" fill="#393A3C"/>
<path d="M36.0936 42.9705C36.704 43.5809 37.2736 43.825 37.884 43.7843C38.4537 43.703 39.0641 43.4181 39.6338 42.8077L42.8077 39.5931L41.9125 38.413L38.5758 41.7498C38.3723 41.9532 38.1689 42.0753 37.9654 42.0753C37.7619 42.116 37.5178 41.9939 37.2736 41.7498L36.9888 41.4649L41.058 37.355L39.9186 36.2157C39.3082 35.6053 38.7385 35.3611 38.1282 35.4018C37.5585 35.4832 36.9481 35.8088 36.3784 36.3784L34.7914 37.9654C34.2218 38.5351 33.8962 39.1455 33.8555 39.7152C33.8148 40.2849 34.059 40.8952 34.6694 41.5056L36.0936 42.9705ZM35.8494 39.0641L37.4364 37.4771C37.6806 37.233 37.884 37.1109 38.0875 37.1516C38.2909 37.1516 38.5351 37.2737 38.7792 37.5585L39.1048 37.884L36.2157 40.8138L35.8494 40.4476C35.6053 40.2035 35.5239 40 35.4832 39.7965C35.4832 39.5117 35.6053 39.3082 35.8494 39.0641Z" fill="#393A3C"/>
<path d="M40.6511 34.5473L41.0987 35.117C41.4649 35.5646 41.8718 35.7681 42.3194 35.6867C42.767 35.646 43.296 35.3612 43.8657 34.8729L45.7782 33.2859C45.941 33.1231 46.1037 33.0824 46.2665 33.0417C46.4293 33.0417 46.592 33.1638 46.7548 33.3673C46.9583 33.6114 46.999 33.7742 46.999 33.9369C46.9583 34.0997 46.8769 34.2218 46.6734 34.3845L43.0519 37.355C43.1739 37.5585 43.296 37.8027 43.4181 38.0061C43.5402 38.2096 43.6622 38.413 43.7843 38.6572L47.65 35.4832C47.9756 35.2391 48.2197 34.9949 48.4232 34.7508C48.6266 34.5066 48.7487 34.3032 48.8301 34.0997C48.9115 33.8962 48.9115 33.6521 48.8708 33.4486C48.8301 33.2452 48.708 33.001 48.5046 32.7569L48.0163 32.1872C47.65 31.7396 47.2431 31.5361 46.7955 31.6175C46.3479 31.6582 45.8189 31.943 45.2492 32.4313L43.3367 34.0183C43.1739 34.1811 42.9705 34.2218 42.8484 34.2218C42.6856 34.2218 42.5229 34.0997 42.3601 33.8962C42.1973 33.6928 42.116 33.4893 42.116 33.3673C42.1567 33.2045 42.238 33.0824 42.4415 32.9196L45.7782 30.1933L45.0458 28.8912L41.4649 31.821C41.1394 32.0651 40.8952 32.3093 40.6917 32.5534C40.4883 32.7976 40.3662 33.001 40.2848 33.2045C40.2034 33.4079 40.2034 33.6521 40.2441 33.8556C40.3255 34.059 40.4476 34.3032 40.6511 34.5473Z" fill="#393A3C"/>
<path d="M75.1171 83.9878C75.1171 80.8952 75.1171 77.8027 75.1171 74.6694C78.2096 74.6694 81.3022 74.7101 84.4355 74.6694C84.4355 73.8962 84.4355 73.1638 84.4355 72.3906C80.407 72.35 76.3785 72.3906 72.3093 72.3906C72.3093 76.2564 72.3093 80.1221 72.3093 83.9878C73.2859 83.9878 74.2218 83.9878 75.1171 83.9878Z" fill="#393A3C"/>
<path d="M115.524 72.3906C115.524 73.0824 115.524 73.7742 115.524 74.5066C118.616 74.588 121.75 74.5066 124.842 74.5473C124.842 77.6399 124.842 80.7325 124.842 83.825C125.778 83.825 126.714 83.825 127.609 83.825C127.609 80.0407 127.609 76.2157 127.609 72.4313C123.622 72.3906 119.593 72.3906 115.524 72.3906Z" fill="#393A3C"/>
<path d="M78.3317 77.3144C78.291 81.0173 78.3317 84.6796 78.3317 88.3825C81.9939 88.3825 85.6562 88.3825 89.3184 88.3825C89.3184 84.6796 89.3591 81.0173 89.3184 77.3144C85.6562 77.3144 81.9939 77.3144 78.3317 77.3144ZM87.8129 78.7793C87.8943 81.5056 87.8129 84.232 87.9349 86.9176C85.2493 86.9176 82.6043 86.9176 79.9187 86.9176C79.9187 84.1913 79.9187 81.5056 79.9187 78.7793C82.5229 78.7793 85.1679 78.82 87.8129 78.7793Z" fill="#393A3C"/>
<path d="M115.605 77.3144C113.327 77.3144 111.048 77.3144 108.769 77.3144C108.769 78.0468 108.769 78.7793 108.728 79.5524C108.077 79.5524 107.386 79.5524 106.734 79.5524C106.734 80.2849 106.734 80.9766 106.734 81.7091C106.002 81.7091 105.31 81.7091 104.578 81.7091C104.578 80.2442 104.578 78.82 104.578 77.3551C103.805 77.3144 103.072 77.3144 102.299 77.3144C102.299 78.0061 102.299 78.7386 102.299 79.471C101.648 79.471 100.956 79.471 100.305 79.471C100.305 78.7793 100.305 78.0468 100.305 77.3551C97.3753 77.3551 94.4048 77.3144 91.475 77.3551C91.475 78.1689 91.475 78.9827 91.475 79.7966C93.591 79.7966 95.7476 79.7966 97.8636 79.7966C97.8636 80.4476 97.8636 81.0987 97.8636 81.7498C95.6256 81.7498 93.4282 81.7498 91.1902 81.7498C91.1902 84.6796 91.1902 87.6094 91.1902 90.5392C90.5391 90.5392 89.8473 90.5392 89.1963 90.5392C89.1963 93.4283 89.1963 96.2767 89.1963 99.1658C88.5452 99.1658 87.8941 99.1658 87.2431 99.1658C87.2431 98.4741 87.2431 97.7416 87.2431 97.0499C84.9643 97.0499 82.6856 97.0499 80.3662 97.0499C80.3662 97.7823 80.3662 98.5148 80.3662 99.2472C79.6337 99.2472 78.9013 99.2472 78.1688 99.2472C78.1688 100.712 78.1688 102.177 78.1688 103.683C78.9827 103.683 79.7965 103.683 80.6103 103.683C80.6103 103.032 80.6103 102.34 80.651 101.689C81.3021 101.689 81.9532 101.689 82.6449 101.729C82.6449 102.38 82.6449 103.072 82.6449 103.723C83.3774 103.723 84.0691 103.723 84.8016 103.764C84.7609 105.229 84.8016 106.653 84.8016 108.118C85.534 108.118 86.3072 108.118 87.0396 108.118C87.0396 106.572 87.0396 105.025 87.0396 103.479C86.3479 103.479 85.6968 103.479 85.005 103.438C85.005 102.828 85.005 102.258 85.0457 101.648C86.5106 101.648 87.9755 101.648 89.4404 101.648C89.4404 100.916 89.4404 100.224 89.4404 99.4914C90.0508 99.4914 90.6205 99.4914 91.2309 99.4914C91.2309 100.142 91.2309 100.834 91.2309 101.485C91.9226 101.485 92.6551 101.485 93.3468 101.485C93.3468 102.136 93.3468 102.787 93.3468 103.438C91.9633 103.479 90.5798 103.438 89.1556 103.438C89.1556 104.985 89.1556 106.531 89.1556 108.077C89.8474 108.077 90.4984 108.077 91.1902 108.077C91.1902 109.542 91.1902 111.007 91.1902 112.472C92.004 112.472 92.8179 112.472 93.6317 112.472C93.6317 111.007 93.6317 109.542 93.6724 108.077C95.0559 108.077 96.3987 108.077 97.7823 108.118C97.7823 108.769 97.8229 109.42 97.8229 110.031C97.0498 110.031 96.3174 110.031 95.5442 110.031C95.5442 111.495 95.5442 112.96 95.5442 114.425C94.1607 114.425 92.7772 114.425 91.3936 114.425C91.3936 115.158 91.3936 115.931 91.3936 116.663C93.6317 116.663 95.829 116.704 98.0671 116.623C98.0264 115.239 98.0671 113.856 98.0264 112.472C99.4099 112.431 100.793 112.472 102.177 112.472C102.177 113.123 102.177 113.774 102.136 114.425C101.404 114.425 100.671 114.425 99.9796 114.425C99.9796 115.117 99.9796 115.809 99.9796 116.501C100.712 116.501 101.445 116.501 102.177 116.501C102.177 117.274 102.177 118.047 102.177 118.861C99.2472 118.861 96.3173 118.861 93.3875 118.861C93.3875 119.634 93.3875 120.366 93.3875 121.139C96.3987 121.139 99.4099 121.139 102.421 121.139C102.421 120.488 102.421 119.797 102.421 119.145C103.072 119.145 103.723 119.145 104.374 119.145C104.374 119.797 104.374 120.448 104.374 121.099C105.839 121.099 107.345 121.099 108.81 121.099C108.81 118.901 108.81 116.704 108.81 114.507C108.077 114.507 107.304 114.507 106.572 114.507C106.572 115.89 106.572 117.233 106.572 118.617C105.921 118.617 105.229 118.657 104.578 118.657C104.578 117.925 104.578 117.233 104.578 116.501C103.845 116.501 103.154 116.46 102.421 116.419C102.421 115.849 102.421 115.239 102.421 114.669C103.154 114.669 103.886 114.669 104.618 114.669C104.618 113.937 104.618 113.204 104.618 112.431C106.002 112.431 107.386 112.431 108.769 112.431C108.769 111.618 108.769 110.804 108.769 109.99C108.118 109.99 107.467 109.99 106.775 109.99C106.775 109.257 106.775 108.566 106.775 107.833C103.845 107.833 100.916 107.833 97.9857 107.833C97.9857 107.182 97.9857 106.49 97.9857 105.839C99.4506 105.799 100.916 105.839 102.38 105.839C102.38 105.188 102.38 104.496 102.38 103.845C103.764 103.845 105.147 103.845 106.531 103.845C106.572 104.537 106.572 105.229 106.572 105.921C107.223 105.921 107.915 105.921 108.566 105.921C108.566 106.653 108.566 107.345 108.566 108.077C110.112 108.077 111.658 108.077 113.164 108.077C113.164 107.264 113.164 106.45 113.164 105.636C111.699 105.595 110.234 105.636 108.769 105.636C108.769 105.066 108.769 104.456 108.769 103.886C109.501 103.886 110.275 103.886 111.007 103.886C111.007 101.689 110.966 99.4914 111.007 97.294C111.74 97.294 112.472 97.294 113.204 97.294C113.204 95.0967 113.204 92.8993 113.204 90.7019C113.855 90.7019 114.507 90.7019 115.158 90.7019C115.158 92.8993 115.158 95.1374 115.158 97.3347C115.849 97.3347 116.582 97.3347 117.274 97.3347C117.274 98.6775 117.274 99.9797 117.274 101.323C115.809 101.323 114.384 101.323 112.92 101.323C112.92 102.136 112.92 102.95 112.92 103.805C115.117 103.805 117.314 103.805 119.471 103.805C119.471 104.456 119.471 105.107 119.471 105.758C118.047 105.758 116.582 105.758 115.158 105.758C115.158 106.572 115.158 107.386 115.158 108.199C117.355 108.199 119.593 108.199 121.79 108.199C121.79 106.002 121.79 103.805 121.79 101.567C121.139 101.567 120.488 101.526 119.837 101.485C119.837 100.102 119.837 98.7182 119.837 97.3347C120.488 97.3347 121.139 97.3347 121.79 97.3347C121.79 95.7884 121.79 94.2421 121.79 92.6552C120.366 92.6552 118.983 92.6552 117.558 92.6552C117.558 92.0041 117.558 91.353 117.558 90.7019C118.291 90.7019 119.023 90.7019 119.756 90.7019C119.756 89.8881 119.756 89.0743 119.756 88.2604C118.291 88.2604 116.867 88.2604 115.402 88.2604C115.402 87.6094 115.402 86.9583 115.402 86.3072C116.134 86.3072 116.867 86.3072 117.599 86.3072C117.599 85.6155 117.599 84.9644 117.599 84.2727C118.25 84.2727 118.901 84.2727 119.552 84.2727C119.552 84.9644 119.552 85.6155 119.552 86.3072C120.325 86.3072 121.139 86.3072 121.912 86.3072C121.912 83.3367 121.953 80.4069 121.912 77.4364C121.099 77.4364 120.325 77.4364 119.552 77.4364C119.593 78.8606 119.512 80.2442 119.471 81.6684C117.274 81.6684 115.117 81.6684 112.92 81.6684C112.92 82.5229 112.92 83.4181 112.92 84.2727C113.652 84.2727 114.384 84.2727 115.076 84.3133C115.076 84.883 115.076 85.4934 115.076 86.0631C113.611 86.0631 112.146 86.0631 110.722 86.0631C110.682 87.528 110.722 88.9929 110.682 90.4578C110.112 90.4578 109.542 90.4578 108.972 90.4578C108.972 88.3825 108.972 86.3479 108.972 84.2727C109.624 84.2727 110.275 84.2727 110.926 84.232C110.926 83.4181 110.926 82.6043 110.926 81.7905C110.193 81.7905 109.461 81.7905 108.728 81.7905C108.728 81.1394 108.728 80.4476 108.728 79.7966C110.926 79.7966 113.123 79.7966 115.32 79.7966C115.605 78.9013 115.605 78.1282 115.605 77.3144ZM84.8423 101.16C84.1912 101.16 83.5808 101.16 82.9298 101.16C82.9298 100.59 82.9298 99.9797 82.9298 99.41C83.5808 99.41 84.2319 99.41 84.8423 99.41C84.8829 99.9797 84.8829 100.549 84.8423 101.16ZM104.334 110.234C104.334 110.885 104.334 111.536 104.334 112.187C103.764 112.187 103.154 112.187 102.584 112.187C102.584 111.536 102.584 110.885 102.584 110.234C103.154 110.234 103.764 110.234 104.334 110.234ZM100.387 86.1852C101.119 86.1852 101.851 86.1852 102.543 86.1445C102.543 84.761 102.543 83.3367 102.543 81.9532C103.154 81.9532 103.723 81.9532 104.334 81.9532C104.334 82.645 104.334 83.3774 104.334 84.0692C105.066 84.1099 105.799 84.1099 106.531 84.1099C106.531 84.7203 106.531 85.2899 106.531 85.9003C105.88 85.9003 105.188 85.9003 104.537 85.9003C104.537 86.6328 104.537 87.3652 104.537 88.0977C103.154 88.0977 101.77 88.0977 100.387 88.0977C100.387 87.4873 100.387 86.8362 100.387 86.1852ZM106.531 90.5799C106.531 91.2309 106.531 91.882 106.49 92.5331C105.921 92.5331 105.351 92.5331 104.781 92.5331C104.781 91.882 104.781 91.2309 104.781 90.6206C105.392 90.5799 105.961 90.5799 106.531 90.5799ZM102.34 90.5799C102.34 91.2309 102.34 91.882 102.34 92.5331C101.689 92.5331 101.038 92.5331 100.427 92.5331C100.427 91.882 100.427 91.2309 100.427 90.5799C101.038 90.5799 101.689 90.5799 102.34 90.5799ZM93.9979 84.1913C95.3814 84.1099 96.7649 84.1913 98.1485 84.1506C98.1485 83.4181 98.1485 82.7264 98.1485 81.9939C98.7995 81.9939 99.4506 81.9939 100.102 81.9939C100.102 83.3367 100.102 84.7203 100.102 86.0631C98.6368 86.0631 97.1719 86.0631 95.6663 86.0631C95.6663 86.8362 95.707 87.6094 95.707 88.3825C96.4394 88.3825 97.1312 88.3825 97.8636 88.3825C97.8636 89.766 97.8636 91.1496 97.8636 92.5331C97.2532 92.5331 96.6022 92.5331 95.9918 92.5331C95.9918 91.8006 95.9918 91.1089 95.9918 90.3764C95.3 90.3764 94.6083 90.3764 93.9165 90.3764C93.9572 88.3011 93.8351 86.2259 93.9979 84.1913ZM93.4689 90.7833C93.4689 91.353 93.4689 91.9634 93.4689 92.5331C92.8585 92.5331 92.2075 92.5331 91.5971 92.5331C91.5971 91.9634 91.5971 91.3937 91.5971 90.7833C92.2075 90.7833 92.8178 90.7833 93.4689 90.7833ZM95.6663 105.554C95.0559 105.595 94.4048 105.595 93.7944 105.595C93.7944 104.985 93.7944 104.374 93.7944 103.805C94.4455 103.805 95.0559 103.805 95.707 103.805C95.6663 104.374 95.6663 104.944 95.6663 105.554ZM108.728 101.16C106.694 101.16 104.659 101.16 102.625 101.16C102.625 100.509 102.584 99.8169 102.584 99.1658C101.77 99.1658 100.956 99.1658 100.142 99.1658C100.142 100.59 100.142 101.974 100.142 103.398C99.4913 103.398 98.8402 103.398 98.1892 103.357C98.1892 102.625 98.1892 101.892 98.2299 101.2C97.4974 101.2 96.7649 101.2 96.0325 101.2C96.0325 100.468 96.0325 99.7355 96.0325 99.0031C94.5676 99.0031 93.1027 99.0031 91.6378 98.9624C91.6378 97.6602 91.6378 96.3581 91.6378 95.056C93.7538 95.056 95.8697 95.056 97.9857 95.056C97.9857 95.7477 97.9857 96.4802 97.9857 97.1719C99.532 97.1719 101.078 97.1719 102.625 97.1719C102.665 95.707 102.625 94.2421 102.665 92.8179C103.235 92.8179 103.805 92.8179 104.374 92.8179C104.374 93.5504 104.374 94.2421 104.374 94.9746C105.839 94.9746 107.304 94.9746 108.728 94.9746C108.728 95.6663 108.769 96.3174 108.769 97.0092C107.345 97.0092 105.961 97.0092 104.537 97.0092C104.537 97.7823 104.537 98.5962 104.537 99.3693C105.961 99.3693 107.345 99.3693 108.769 99.3693C108.728 99.9797 108.728 100.549 108.728 101.16ZM119.756 94.9746C119.796 95.6257 119.796 96.236 119.796 96.8871C119.145 96.8871 118.454 96.8871 117.803 96.8871C117.803 96.236 117.803 95.585 117.803 94.9339C118.454 94.9746 119.105 94.9746 119.756 94.9746ZM109.054 92.8179C109.664 92.8179 110.315 92.8179 110.926 92.8179C110.926 93.3876 110.926 93.998 110.926 94.5677C110.315 94.5677 109.664 94.5677 109.054 94.5677C109.054 93.998 109.054 93.3876 109.054 92.8179Z" fill="#393A3C"/>
<path d="M86.9583 79.6745C84.8831 79.6745 82.7671 79.6745 80.6511 79.6745C80.6511 81.7904 80.6511 83.9064 80.6511 86.0224C82.7671 86.0224 84.8424 86.0224 86.9583 86.0224C86.9583 83.9064 86.9583 81.7904 86.9583 79.6745Z" fill="#393A3C"/>
<path d="M78.3317 90.3357C78.3317 91.1496 78.3317 91.9634 78.3317 92.8179C79.0234 92.8179 79.7559 92.8179 80.4476 92.8179C80.4883 93.5504 80.4883 94.2421 80.4883 94.9746C81.3022 94.9746 82.116 94.9746 82.9298 94.9746C82.9298 94.2828 82.9298 93.5504 82.9298 92.8586C83.5809 92.8586 84.232 92.8586 84.883 92.8586C84.883 93.5504 84.883 94.2828 84.883 94.9746C85.6155 94.9746 86.3479 94.9746 87.1211 94.9746C87.1211 93.4283 87.1211 91.882 87.1211 90.3357C85.6562 90.3357 84.1506 90.3357 82.6857 90.3357C82.6857 91.0682 82.6857 91.7599 82.6857 92.4924C82.0346 92.4924 81.3835 92.4924 80.7325 92.4924C80.7325 91.7599 80.7325 91.0682 80.7325 90.3357C79.9186 90.3357 79.1048 90.3357 78.3317 90.3357Z" fill="#393A3C"/>
<path d="M78.3317 108.037C79.8373 108.037 81.3428 108.037 82.8891 108.037C82.8891 107.223 82.8891 106.409 82.8891 105.595C81.3835 105.595 79.878 105.595 78.3724 105.595C78.3317 106.409 78.3317 107.223 78.3317 108.037Z" fill="#393A3C"/>
<path d="M89.3184 110.071C85.6562 109.908 81.9939 109.99 78.3317 110.071C78.3317 113.733 78.3317 117.436 78.3317 121.099C81.9939 121.099 85.6562 121.099 89.3184 121.099C89.3184 117.396 89.3184 113.733 89.3184 110.071ZM79.9186 119.634C79.7966 116.948 79.8373 114.303 79.8779 111.617C82.5636 111.617 85.2086 111.617 87.8942 111.617C87.8942 114.303 87.8942 116.948 87.8942 119.634C85.2493 119.634 82.6043 119.634 79.9186 119.634Z" fill="#393A3C"/>
<path d="M111.007 121.058C114.751 121.099 118.454 121.139 122.197 121.017C122.197 117.355 122.197 113.693 122.197 109.99C118.454 109.99 114.751 109.99 111.007 109.99C110.966 113.652 111.007 117.355 111.007 121.058ZM112.553 111.658C115.239 111.618 117.884 111.577 120.57 111.699C120.651 114.344 120.61 116.989 120.61 119.634C117.925 119.674 115.239 119.674 112.553 119.634C112.594 116.989 112.594 114.303 112.553 111.658Z" fill="#393A3C"/>
<path d="M80.6511 118.698C82.7671 118.698 84.8424 118.698 86.9583 118.698C86.9583 116.582 86.9583 114.466 86.9583 112.35C84.8424 112.35 82.7671 112.35 80.6511 112.35C80.6511 114.466 80.6511 116.582 80.6511 118.698Z" fill="#393A3C"/>
<path d="M119.634 112.391C117.599 112.391 115.565 112.391 113.53 112.391C113.53 114.507 113.53 116.582 113.53 118.698C115.565 118.698 117.599 118.698 119.675 118.698C119.634 116.582 119.634 114.466 119.634 112.391Z" fill="#393A3C"/>
<path d="M84.4354 124.72C81.3429 124.72 78.2096 124.72 75.117 124.72C75.117 121.628 75.117 118.535 75.117 115.443C74.1811 115.443 73.2859 115.443 72.35 115.443C72.35 119.512 72.35 123.622 72.35 127.691C76.3785 127.691 80.407 127.691 84.4761 127.691C84.4354 126.673 84.4354 125.697 84.4354 124.72Z" fill="#393A3C"/>
<path d="M124.842 115.402C124.842 118.454 124.842 121.506 124.842 124.557C121.75 124.598 118.616 124.557 115.524 124.557C115.524 125.534 115.524 126.511 115.524 127.487C119.552 127.487 123.581 127.487 127.65 127.487C127.65 123.459 127.65 119.43 127.65 115.402C126.714 115.402 125.778 115.402 124.842 115.402Z" fill="#393A3C"/>
<path d="M155.076 105.799C155.117 105.473 155.117 105.107 155.117 104.781L155.361 100.02L154.669 99.9797L155.361 99.939L155.117 95.2187C155.117 94.8932 155.076 94.5677 155.036 94.2014L154.791 92.5738C154.425 89.1964 153.164 82.2381 148.81 73.8963C148.525 73.3266 148.159 72.7569 147.792 72.1872C147.589 71.8617 147.385 71.5768 147.182 71.2106C146.979 70.9258 146.816 70.6002 146.612 70.2747C146.246 69.6643 145.88 69.0539 145.432 68.4842C145.066 67.9959 144.659 67.467 144.293 66.9787C143.357 65.7172 142.38 64.3744 141.241 63.235C139.532 61.2411 137.457 59.2472 134.975 57.2533L137.457 53.9573L133.835 51.2716L128.993 48.2604C128.708 48.0977 128.423 47.8942 128.016 47.6908L126.755 47.0804C126.266 46.8769 125.819 46.6328 125.331 46.3886C124.11 45.7782 122.686 45.0865 121.221 44.5982L118.169 43.4995C117.355 43.2147 116.582 43.0112 115.849 42.8484C115.483 42.767 115.117 42.6857 114.791 42.5636C109.786 41.1394 104.293 40.7731 100.061 40.6104H99.9796H99.8982C95.6663 40.7731 90.1729 41.0987 85.1678 42.5636C84.8016 42.645 84.4353 42.767 84.0691 42.8484C83.3367 43.0519 82.5228 43.2147 81.709 43.4995L78.8199 44.5575C77.2329 45.0458 75.8087 45.7375 74.5879 46.3479C74.0996 46.5921 73.6113 46.8362 73.123 47.0804L71.8209 47.6908C71.4954 47.8535 71.2105 48.0163 70.9257 48.2197L66.7751 50.7426L62.5025 53.9166L64.9847 57.2126C62.5025 59.2065 60.4272 61.2004 58.7588 63.1536C57.5788 64.3337 56.6022 65.6765 55.6663 66.938C55.3 67.467 54.8931 67.9553 54.5269 68.4436C54.0793 69.0132 53.7131 69.6643 53.3468 70.2747C53.1434 70.6002 52.9806 70.9258 52.7771 71.2513C52.5737 71.5768 52.4109 71.9024 52.2075 72.1872C51.8412 72.7569 51.5157 73.3266 51.1902 73.8963C46.8362 82.2381 45.5747 89.1557 45.2085 92.5331L44.9643 94.2014C44.9236 94.527 44.9236 94.8932 44.8829 95.2187L44.6388 99.939L45.3306 99.9797L44.6388 100.02L44.8829 104.781C44.8829 105.107 44.9236 105.432 44.9643 105.799L45.2085 107.426C45.5747 110.804 46.8362 117.762 51.1902 126.104C51.475 126.673 51.8412 127.243 52.2075 127.813C52.4109 128.138 52.6144 128.423 52.8178 128.789C53.0213 129.074 53.1841 129.4 53.3875 129.725C53.7537 130.336 54.12 130.946 54.5676 131.516C54.9338 132.004 55.3407 132.533 55.707 133.021C56.6429 134.283 57.6195 135.626 58.7588 136.765C60.4679 138.759 62.5432 140.753 65.0254 142.747L62.5839 146.043L66.2054 148.728L71.0478 151.74C71.3326 151.902 71.6174 152.106 72.0244 152.309L73.2858 152.92C73.7741 153.123 74.2217 153.367 74.71 153.611C75.9308 154.222 77.355 154.914 78.8199 155.402L81.8718 156.501C82.6449 156.785 83.4587 156.989 84.1912 157.152C84.5574 157.233 84.9236 157.314 85.2492 157.436C90.2543 158.861 95.7476 159.227 99.9796 159.39H100.061H100.142C104.374 159.227 109.868 158.901 114.873 157.436C115.239 157.355 115.605 157.233 115.971 157.152C116.745 156.948 117.518 156.785 118.332 156.501L121.221 155.443C122.808 154.954 124.232 154.262 125.453 153.611C125.941 153.367 126.429 153.123 126.958 152.879L128.26 152.269C128.586 152.106 128.871 151.943 129.156 151.74L133.306 149.217L137.579 146.043L135.137 142.747C137.619 140.753 139.654 138.759 141.363 136.806C142.543 135.626 143.52 134.283 144.456 133.021C144.822 132.492 145.229 132.004 145.595 131.516C146.043 130.946 146.409 130.295 146.775 129.685C146.979 129.359 147.141 129.034 147.345 128.708C147.548 128.383 147.711 128.057 147.914 127.772C148.281 127.202 148.606 126.633 148.932 126.063C153.286 117.721 154.547 110.804 154.913 107.426L155.076 105.799ZM153.693 105.636L153.449 107.304C153.082 110.6 151.862 117.355 147.63 125.493C147.345 126.063 147.019 126.592 146.653 127.121C146.45 127.447 146.246 127.772 146.083 128.057C145.88 128.383 145.676 128.708 145.473 129.034C145.107 129.603 144.781 130.173 144.374 130.702C143.967 131.19 143.601 131.719 143.194 132.248C142.299 133.469 141.363 134.771 140.183 135.91C138.555 137.864 136.561 139.776 134.161 141.689L134.12 141.648L130.132 144.619L126.063 147.101C125.9 147.223 125.697 147.304 125.615 147.386L124.476 147.955C123.947 148.199 123.418 148.444 122.889 148.728C121.79 149.298 120.61 149.868 119.308 150.275L116.338 151.373C115.809 151.577 115.198 151.699 114.547 151.862C114.14 151.943 113.733 152.065 113.286 152.187C108.891 153.449 103.886 153.774 99.9796 153.896C96.0732 153.774 91.0681 153.449 86.6327 152.147C86.2258 152.024 85.8189 151.943 85.3713 151.821C84.7202 151.658 84.1098 151.495 83.5808 151.333L80.4475 150.193C79.2675 149.827 78.0874 149.257 76.9887 148.688C76.4598 148.403 75.9308 148.159 75.4425 147.955L74.3438 147.426C74.1403 147.345 73.9776 147.223 73.8148 147.101L70.356 144.985L65.7985 141.648L65.7578 141.689C63.357 139.736 61.3631 137.823 59.6947 135.87C58.5961 134.73 57.6195 133.469 56.7243 132.248C56.3173 131.719 55.9511 131.19 55.5442 130.702C55.1373 130.173 54.8117 129.644 54.4862 129.034C54.2827 128.708 54.0793 128.383 53.9165 128.057C53.7131 127.731 53.5096 127.406 53.3061 127.08C52.9806 126.551 52.6144 125.982 52.3295 125.453C48.0569 117.314 46.8362 110.56 46.5106 107.263L46.2665 105.636C46.2258 105.31 46.2258 105.025 46.2258 104.7L45.9816 99.9797L46.2258 95.2594C46.2258 94.9746 46.2665 94.649 46.2665 94.3642L46.5106 92.6958C46.8768 89.3998 48.0976 82.645 52.3295 74.5066C52.6144 73.9369 52.9399 73.408 53.3061 72.879C53.5096 72.5534 53.7131 72.2279 53.8758 71.943C54.0793 71.6175 54.2827 71.292 54.4862 70.9664C54.8117 70.3968 55.178 69.8271 55.5442 69.2981C55.9511 68.8098 56.3173 68.2808 56.7243 67.7518C57.6195 66.531 58.5554 65.2289 59.7354 64.0895C61.3631 62.1363 63.357 60.2238 65.7578 58.3113L65.7985 58.352L69.7863 55.3815L73.8555 52.8993C74.0183 52.7772 74.2217 52.6958 74.3031 52.6145L75.4425 52.0448C75.9715 51.8006 76.5004 51.5565 77.0294 51.2716C78.1281 50.7019 79.3082 50.1323 80.6103 49.7253L83.5808 48.6267C84.1098 48.4232 84.7202 48.3011 85.3713 48.1384C85.7782 48.057 86.1851 47.9349 86.6327 47.8128C91.0274 46.5514 96.0325 46.2258 99.9389 46.1038C103.845 46.2258 108.85 46.5514 113.286 47.8535C113.693 47.9756 114.1 48.057 114.547 48.1791C115.198 48.3418 115.809 48.5046 116.338 48.6674L119.471 49.8067C120.651 50.1729 121.831 50.7426 122.93 51.3123C123.459 51.5972 123.988 51.8413 124.476 52.0448L125.575 52.5738C125.778 52.6552 125.941 52.7772 126.104 52.8993L129.562 55.0153L134.161 58.352L134.201 58.3113C136.602 60.2645 138.596 62.177 140.264 64.1302C141.363 65.2696 142.34 66.531 143.235 67.7518C143.642 68.2808 144.008 68.8098 144.415 69.2981C144.822 69.8271 145.147 70.3561 145.473 70.9664C145.676 71.292 145.88 71.6175 146.043 71.943C146.246 72.2686 146.45 72.5941 146.653 72.9197C146.979 73.4486 147.345 74.0183 147.63 74.5473C151.902 82.6857 153.123 89.4405 153.449 92.7365L153.693 94.3235C153.733 94.649 153.733 94.9746 153.733 95.2594L153.978 99.9797L153.733 104.7C153.733 105.025 153.733 105.351 153.693 105.636Z" fill="#393A3C"/>
<path d="M166.999 108.159C167.121 107.426 167.243 106.694 167.243 106.043L167.569 100.02L167.04 99.9797L167.569 99.939L167.243 93.9573C167.243 93.2655 167.121 92.5738 166.999 91.8413C166.958 91.4751 166.877 91.1088 166.836 90.7426L166.266 87.0397C166.144 86.1851 165.9 85.2899 165.656 84.3947C165.534 83.9064 165.371 83.3774 165.249 82.8484L165.005 81.8718C164.72 80.6918 164.395 79.471 163.906 78.2909C162.319 73.3265 159.878 68.2401 156.704 63.3978L156.867 61.8108L158.616 60.7121C158.576 60.6714 158.413 60.3866 158.128 60.0203L156.338 57.6195C155.402 56.3174 154.059 54.5676 152.35 52.8179L150.804 51.1088L145.025 45.6968L140.427 42.238C139.695 41.6277 138.922 41.1801 138.189 40.7324L135.219 38.942C129.115 35.4018 121.628 32.5127 114.588 30.9664C112.675 30.6002 110.885 30.356 109.501 30.1526C108.769 30.0305 108.118 29.9491 107.467 29.8271C106.857 29.7457 106.328 29.7457 105.88 29.705C105.717 29.705 105.554 29.705 105.351 29.6643L104.659 29.6236L104.496 32.6755C97.1312 32.1872 90.946 32.9196 86.7548 33.7335C80.7731 35.0763 75.3611 36.826 71.5768 38.7386C70.9257 39.0641 70.356 39.3489 69.7863 39.5931C68.8911 40.0407 68.118 40.4069 67.5076 40.7324L66.1648 41.5463L62.4211 43.825L57.0091 47.8535C56.6836 48.0977 56.3987 48.3825 56.0732 48.6673L52.3702 52.0448C51.6785 52.7365 51.0274 53.469 50.3357 54.2014C49.9287 54.649 49.5625 55.0559 49.1149 55.5036C46.2665 58.7589 42.4415 63.8047 39.2675 70.234L36.5411 68.9318L35.1983 71.7396C35.0356 72.0651 34.8728 72.3906 34.71 72.7976L32.7161 78.2096C31.4547 82.2787 29.298 90.5392 29.2573 99.9797C29.298 109.42 31.4547 117.681 32.7568 121.831L34.71 127.202C34.8321 127.569 35.0356 127.935 35.1576 128.22L36.5005 131.027L39.2268 129.725C42.4415 136.195 46.2258 141.2 49.1149 144.456C49.5218 144.903 49.9287 145.351 50.295 145.758C50.9867 146.531 51.6378 147.263 52.3296 147.955L55.9918 151.292C56.3174 151.577 56.6022 151.862 56.9277 152.147L62.2177 156.053L66.2054 158.494L67.589 159.308C68.1587 159.634 68.9318 159.959 69.827 160.407C70.356 160.651 70.9664 160.936 71.5768 161.261C75.3611 163.174 80.7731 164.924 86.7548 166.267C90.0101 166.877 94.4862 167.487 99.7761 167.487C101.282 167.487 102.828 167.447 104.456 167.325L104.618 170.376L105.392 170.336C105.514 170.336 105.676 170.336 105.839 170.295C106.287 170.295 106.816 170.254 107.548 170.173C108.118 170.092 108.769 169.969 109.501 169.888C110.885 169.685 112.635 169.441 114.629 169.034C121.628 167.528 129.115 164.639 135.219 161.058L138.148 159.268C138.881 158.82 139.654 158.372 140.305 157.803L144.822 154.425L149.542 150.112L152.228 147.223C153.978 145.432 155.28 143.642 156.256 142.34L158.047 139.939C158.413 139.451 158.576 139.166 158.576 139.166L155.931 137.579C159.43 132.411 162.116 126.999 163.825 121.668C164.354 120.448 164.639 119.227 164.924 118.047L165.168 117.07C165.29 116.541 165.412 116.053 165.575 115.565C165.819 114.629 166.063 113.774 166.185 112.92L166.755 109.217C166.918 108.891 166.958 108.525 166.999 108.159ZM166.226 106.043C166.226 106.653 166.104 107.304 166.022 107.996C165.982 108.362 165.9 108.728 165.86 109.095L165.29 112.798C165.168 113.611 164.924 114.466 164.68 115.32C164.557 115.809 164.395 116.338 164.273 116.867L164.028 117.843C163.744 118.983 163.459 120.163 162.97 121.384C161.302 126.633 158.616 132.004 155.158 137.091C155.117 137.131 155.036 137.253 154.873 137.497L153.042 139.939C152.106 141.2 150.966 142.787 149.339 144.415L147.304 146.653L142.38 151.17L137.864 154.547C137.375 154.954 136.765 155.32 136.114 155.727L133.225 157.477C127.487 160.814 120.448 163.54 113.937 164.964C112.106 165.29 110.437 165.534 109.013 165.778C108.321 165.86 107.752 165.982 107.263 166.063C106.938 166.104 106.612 166.144 106.287 166.144C106.124 166.144 105.921 166.144 105.799 166.185C105.554 166.185 105.351 166.185 105.229 166.226L104.537 166.267V166.307C97.2533 166.796 91.1495 166.063 87.0803 165.249C81.18 163.947 75.8494 162.197 72.1464 160.326C71.4954 160 70.9257 159.715 70.356 159.471C69.4608 159.023 68.7283 158.698 68.1587 158.413L66.8158 157.599L63.1129 155.32L57.8229 151.414C57.5381 151.17 57.2126 150.885 56.9277 150.6L53.2655 147.263C52.6144 146.612 51.9633 145.88 51.2716 145.107C50.8647 144.659 50.4984 144.212 50.0915 143.805C47.2838 140.59 43.5401 135.666 40.3662 129.318L40.4476 129.278L39.3082 126.918C39.2268 126.755 39.1454 126.592 39.064 126.429C38.942 126.226 38.8606 125.982 38.7792 125.778L36.8667 120.529C34.7914 113.978 33.6113 106.49 33.6113 100.02C33.652 93.5097 34.8321 86.0224 36.8667 79.5931L38.8199 74.3032C38.9013 74.059 39.0233 73.8148 39.1454 73.6114C39.2268 73.4486 39.3082 73.2859 39.3489 73.1638L40.5289 70.7223L40.4476 70.6816C43.5808 64.3337 47.3245 59.41 50.1322 56.1953C50.5391 55.7477 50.946 55.3001 51.3123 54.8932C52.004 54.1607 52.6551 53.4283 53.2655 52.7772L56.9277 49.4405C57.2126 49.1556 57.5381 48.8708 57.8229 48.6673L62.8687 44.883L66.8565 42.4415L68.1993 41.6277C68.769 41.3428 69.5015 40.9766 70.3967 40.529C70.9257 40.2848 71.5361 40 72.1871 39.6745C75.9308 37.8026 81.2207 36.0529 87.121 34.7508C91.2309 33.9776 97.3346 33.2045 104.618 33.6928V33.7335L105.27 33.7742C105.432 33.7742 105.676 33.8148 105.88 33.8148C106.043 33.8148 106.205 33.8149 106.368 33.8555C106.694 33.8962 107.019 33.8962 107.345 33.9369C107.874 34.0183 108.443 34.0997 109.095 34.2218C110.559 34.4252 112.187 34.6694 113.978 34.9949C120.57 36.4191 127.609 39.1455 133.306 42.4415L136.236 44.2319C136.887 44.5982 137.497 44.9644 138.067 45.4527L142.502 48.7894L146.328 52.2889L149.501 55.6256C151.048 57.2533 152.228 58.7996 153.164 60.061L154.995 62.5432C155.158 62.7467 155.239 62.9095 155.28 62.9502C158.739 68.0366 161.383 73.4079 163.052 78.6979C163.54 79.8372 163.825 81.0173 164.11 82.1974L164.354 83.174C164.476 83.7029 164.639 84.2319 164.761 84.7202C165.005 85.6155 165.209 86.4293 165.371 87.2431L165.941 90.9461C165.982 91.3123 166.063 91.7192 166.104 92.0854C166.226 92.7772 166.348 93.4283 166.307 94.0794L166.592 100.061L166.226 106.043Z" fill="#393A3C"/>
<path d="M151.333 90.2543C151.292 89.8474 151.211 89.2777 151.007 88.708L150.234 85.6562C150.071 84.9644 149.868 84.1913 149.583 83.4995L148.606 80.8545L146.572 76.3377L145.677 76.7854C144.293 74.0997 142.584 71.414 140.631 68.8911L141.445 68.2808L141.038 67.7111C140.956 67.6297 140.916 67.5483 140.834 67.4263C140.59 67.1007 140.305 66.6938 139.898 66.2869L137.823 64.0081C137.335 63.4791 136.765 62.8688 136.155 62.3398C135.707 61.9736 135.3 61.5666 134.893 61.2004C133.876 60.2645 132.94 59.41 132.085 58.8403L130.173 57.4161L129.563 58.2706C128.26 57.3754 126.958 56.5209 125.615 55.7477C124.273 54.9746 122.889 54.2421 121.465 53.5911L121.913 52.6551L121.099 52.2889C120.732 52.0855 120.203 51.8413 119.593 51.6378L116.826 50.6206C116.094 50.3357 115.28 50.0509 114.425 49.8881C113.815 49.766 113.205 49.6033 112.635 49.4405C111.373 49.115 110.193 48.7894 109.217 48.708L106.857 48.3418L106.694 49.3998C103.276 48.9522 100.102 48.9115 97.3347 49.0336L97.294 48.0163L94.7711 48.1384C93.7945 48.2604 92.6145 48.4639 91.353 48.6674L89.5626 48.9522L89.3998 48.9929C88.7488 49.1556 88.057 49.3184 87.4466 49.4812C86.2666 49.766 85.1679 50.0509 84.1913 50.3357L81.9532 51.1496L82.3195 52.0855C80.9359 52.5738 79.6338 53.1434 78.5351 53.6724C78.0468 53.9166 77.5992 54.12 77.1923 54.3235C76.5005 54.649 75.9309 54.9339 75.4426 55.178L74.4253 55.7884L74.7508 56.3174L74.4253 55.7884L71.3327 57.6602L67.8332 60.2645L67.3042 60.7528L66.5718 59.939L64.2116 62.0956C63.8047 62.4619 63.3978 62.8281 62.9095 63.3164L61.0377 65.351C59.939 66.4497 59.0438 67.7111 58.3113 68.6877C58.0672 69.0132 57.8637 69.2981 57.6196 69.6236C57.4568 69.8271 57.3347 70.0305 57.2127 70.1933C56.9278 70.5595 56.7243 70.885 56.5616 71.1292L56.236 71.6989L57.1313 72.2686C55.585 74.6287 54.0387 77.3957 52.7366 80.5697L51.7599 80.2035L50.9461 82.4822C50.8647 82.7264 50.7834 82.9298 50.702 83.2147C50.4985 83.7436 50.2951 84.2726 50.0916 84.9237L49.3998 87.6094C48.9115 89.1556 48.7081 90.7426 48.5046 92.0041L48.0977 94.7304C48.057 95.2187 48.057 95.5036 48.057 95.5036H49.0743C48.9115 97.0499 48.8708 98.5961 48.8708 100.142C48.8708 101.689 48.9522 103.235 49.0743 104.781H48.057C48.057 104.781 48.057 105.066 48.0977 105.636L48.5046 108.321C48.7081 109.583 48.9115 111.17 49.3998 112.675L50.1323 115.483C50.3357 116.053 50.5392 116.623 50.702 117.111C50.7834 117.355 50.9054 117.599 50.9868 117.843L51.8006 120.081L52.7772 119.715C54.0794 122.848 55.6257 125.656 57.172 128.016L56.2767 128.586L56.6023 129.156C56.765 129.4 57.0092 129.725 57.2533 130.092C57.3754 130.254 57.5382 130.458 57.7009 130.702C57.9044 130.987 58.1486 131.272 58.352 131.597C59.0845 132.574 60.0204 133.835 61.0377 134.893L62.9909 137.05C63.4385 137.457 63.8454 137.864 64.2523 138.23L66.6124 140.387L67.3042 139.613L67.5484 139.817L71.4548 142.706L74.466 144.537L74.7508 144.09L74.466 144.537L75.5239 145.188C75.9716 145.432 76.5412 145.717 77.233 146.043C77.6399 146.246 78.0875 146.45 78.5758 146.694C79.6745 147.223 80.9359 147.792 82.3602 148.281L81.9939 149.217L84.3134 150.071C85.2086 150.315 86.3072 150.6 87.4873 150.926C88.1384 151.089 88.7895 151.251 89.4405 151.414L91.3937 151.74C92.6552 151.943 93.8352 152.106 94.9339 152.269L97.3347 152.391L97.3754 151.373C98.1893 151.414 99.0438 151.455 99.939 151.455C102.055 151.455 104.334 151.333 106.735 151.007L106.897 152.065L109.176 151.699C110.234 151.618 111.455 151.292 112.676 150.926C113.245 150.763 113.856 150.6 114.466 150.478C115.32 150.275 116.134 149.99 116.867 149.705L119.593 148.728C120.244 148.525 120.773 148.24 121.139 148.077L121.953 147.711L121.506 146.775C122.93 146.124 124.313 145.392 125.656 144.619C126.999 143.845 128.342 142.991 129.603 142.096L130.214 142.95L132.085 141.567C133.021 140.956 133.957 140.102 134.934 139.166C135.341 138.8 135.788 138.393 136.195 138.026C136.846 137.497 137.416 136.887 137.904 136.317L139.939 134.079C140.346 133.632 140.671 133.225 140.916 132.899C140.997 132.777 141.078 132.696 141.16 132.574L141.567 132.045L140.753 131.434C142.706 128.871 144.374 126.226 145.799 123.54L146.694 123.988L148.118 121.058L149.705 116.867C150.031 116.094 150.234 115.32 150.397 114.669L151.17 111.658C151.373 111.007 151.455 110.478 151.495 110.071L151.658 109.135L150.641 108.973C150.682 108.688 150.722 108.362 150.763 108.077C150.966 106.938 151.129 105.88 151.17 104.903L151.414 100.346H151.089H151.414L151.17 95.7477C151.089 94.8118 150.926 93.7131 150.763 92.5738C150.722 92.2889 150.682 92.0041 150.641 91.6785L151.658 91.5158L151.333 90.2543ZM149.908 92.3703C150.112 93.5504 150.275 94.5677 150.315 95.4629L150.56 100.02L150.315 104.578C150.275 105.473 150.112 106.49 149.908 107.67C149.868 107.955 149.827 108.281 149.786 108.566L148.769 108.403L148.606 109.379C148.566 109.746 148.484 110.153 148.362 110.641L147.589 113.693C147.426 114.344 147.264 114.954 147.019 115.565L145.717 119.105L144.13 122.482L145.066 122.93C143.683 125.575 142.014 128.22 140.102 130.743L139.288 130.132L138.922 130.621C138.84 130.743 138.718 130.865 138.637 131.027C138.433 131.312 138.23 131.597 137.904 131.923L135.829 134.201C135.382 134.69 134.934 135.219 134.405 135.666C133.957 136.073 133.51 136.48 133.062 136.887C132.167 137.742 131.312 138.515 130.499 139.044L128.586 140.468L129.196 141.282C127.935 142.177 126.633 143.032 125.331 143.764C123.988 144.537 122.604 145.27 121.221 145.88L120.773 144.944L119.959 145.351C119.634 145.514 119.227 145.717 118.698 145.88L115.931 146.897C115.28 147.141 114.588 147.386 113.896 147.548C113.245 147.711 112.635 147.874 112.024 148.037C110.885 148.362 109.827 148.647 108.891 148.728L106.531 149.095L106.694 150.112C103.316 150.56 100.183 150.6 97.4568 150.478L97.4975 149.42L95.2187 149.298C94.2421 149.176 93.1028 148.973 91.8413 148.81L90.0916 148.525C89.4405 148.362 88.7894 148.199 88.1791 148.037C87.0397 147.752 85.9817 147.467 85.2086 147.263L82.9705 146.45L82.6043 147.426C81.2208 146.938 79.9593 146.409 78.9014 145.88C78.4131 145.636 77.9655 145.432 77.5585 145.229C76.8668 144.903 76.2971 144.619 75.8902 144.415L74.8729 143.805L71.821 141.974L68.3215 139.369L67.8332 138.922L68.4843 138.189L66.1241 136.033C65.7579 135.707 65.351 135.341 64.9848 135.015L63.0723 132.899C62.1364 131.923 61.3225 130.824 60.5901 129.847C60.3459 129.522 60.1018 129.196 59.8983 128.952C59.7355 128.749 59.5728 128.545 59.4507 128.342C59.2472 128.057 59.0845 127.854 58.9624 127.65L58.6369 127.08L57.7823 127.609C56.2767 125.29 54.7305 122.564 53.469 119.43L54.4049 119.064L53.5911 116.826C53.5097 116.582 53.3876 116.338 53.3062 116.053C53.1435 115.605 52.94 115.076 52.7772 114.629L52.0448 111.862C51.6379 110.519 51.4344 109.095 51.231 107.833C51.1903 107.508 51.1496 107.141 51.0682 106.857L50.824 105.188C50.7833 104.863 50.7833 104.7 50.7833 104.659H49.7254C49.5626 103.113 49.5219 101.567 49.5219 100.02C49.5219 98.4741 49.6033 96.9278 49.7254 95.3815H50.7833C50.7833 95.3408 50.7833 95.178 50.824 94.9339L51.0682 93.2248C51.1089 92.8993 51.1496 92.5738 51.231 92.2482C51.4344 90.9868 51.6379 89.6033 52.0448 88.1791L52.7366 85.5341C52.8993 85.0051 53.1028 84.5168 53.2655 84.0285C53.3469 83.7436 53.469 83.4995 53.5504 83.296L54.3642 81.058L53.4283 80.6918C54.7304 77.5992 56.236 74.8728 57.7416 72.5127L58.5962 73.0417L58.9217 72.472C59.0438 72.2686 59.2065 72.0651 59.41 71.7803C59.5321 71.5768 59.6948 71.3734 59.8576 71.2106C60.0611 70.9257 60.3052 70.6002 60.5494 70.2747C61.2818 69.2981 62.0957 68.1994 63.0723 67.1821L64.9034 65.1475C65.3103 64.7406 65.7172 64.3744 66.0835 64.0488L68.4436 61.8922L67.7518 61.119L67.9146 60.9563L71.7396 58.1078L74.7508 56.2767L75.7681 55.6663C76.2157 55.4222 76.7854 55.178 77.4771 54.8525C77.8841 54.649 78.3317 54.4456 78.82 54.2014C79.9186 53.6724 81.1394 53.1434 82.5229 52.6551L82.8891 53.6317L85.0458 52.8179C85.9003 52.5738 86.999 52.2889 88.0977 52.0041C88.7081 51.8413 89.3591 51.6785 90.0102 51.5158L91.7599 51.2309C92.9807 51.0275 94.1608 50.8647 95.0153 50.7426L97.4161 50.6206L97.3754 49.5626C100.102 49.4405 103.235 49.4812 106.612 49.9288L106.45 50.9461L108.891 51.3123C109.746 51.3937 110.804 51.6785 111.943 52.0041C112.553 52.1668 113.205 52.3296 113.856 52.4924C114.547 52.6551 115.198 52.8993 115.89 53.1434L118.698 54.1607C119.186 54.3235 119.552 54.527 119.919 54.6897L120.732 55.0966L121.18 54.1607C122.604 54.8118 123.947 55.5036 125.29 56.2767C126.633 57.0498 127.894 57.8637 129.156 58.7589L128.545 59.5727L130.539 61.0376C131.272 61.5259 132.126 62.3398 133.062 63.1536C133.51 63.5605 133.917 63.9675 134.405 64.3744C134.893 64.7813 135.382 65.3103 135.829 65.7986L137.945 68.118C138.23 68.4029 138.433 68.7284 138.637 68.9725C138.759 69.1353 138.84 69.2574 138.881 69.3388L139.288 69.8678L140.102 69.2574C142.014 71.7803 143.683 74.3845 145.066 77.0702L144.13 77.5178L145.636 80.6104L147.06 84.5168C147.304 85.0865 147.426 85.6969 147.589 86.3479C147.63 86.5921 147.711 86.8362 147.752 87.0397L148.362 89.4812C148.484 89.9288 148.566 90.3357 148.606 90.7019L148.769 91.6785L149.786 91.5158C149.827 91.7599 149.868 92.0855 149.908 92.3703Z" fill="#393A3C"/>
<path d="M159.512 111.455C159.512 111.617 159.471 111.74 159.471 111.862L160.081 111.984C160.122 111.862 160.122 111.699 160.122 111.577L160.61 108.484L160 108.403L159.512 111.455Z" fill="#393A3C"/>
<path d="M160.367 104.887L160.31 106.065L160.92 106.095L160.976 104.916L160.367 104.887Z" fill="#393A3C"/>
<path d="M139.084 146.328C138.8 146.572 138.555 146.775 138.271 147.019L138.678 147.508C138.962 147.263 139.207 147.06 139.491 146.816L139.573 146.734L139.125 146.287L139.084 146.328Z" fill="#393A3C"/>
<path d="M140.916 144.659L141.322 145.148C142.584 144.008 143.723 142.95 144.741 141.77L144.252 141.363C143.276 142.503 142.177 143.52 140.916 144.659Z" fill="#393A3C"/>
<path d="M146.734 138.637L145.473 140.02L145.921 140.427L146.979 139.329L148.199 137.701L147.711 137.294L146.734 138.637Z" fill="#393A3C"/>
<path d="M115.402 158.576C114.629 158.82 113.815 159.023 112.96 159.186L113.082 159.797C113.937 159.593 114.751 159.39 115.565 159.145C116.256 158.983 116.989 158.779 117.721 158.535L117.558 157.925C116.785 158.21 116.094 158.413 115.402 158.576Z" fill="#393A3C"/>
<path d="M119.227 157.477L119.43 158.088C120.529 157.721 121.668 157.314 122.767 156.867L122.523 156.297C121.424 156.663 120.325 157.07 119.227 157.477Z" fill="#393A3C"/>
<path d="M133.51 150.519L133.876 151.048C134.893 150.397 135.87 149.705 136.806 148.973L136.439 148.484C135.463 149.176 134.486 149.868 133.51 150.519Z" fill="#393A3C"/>
<path d="M124.72 155.32L124.964 155.89C125.331 155.727 125.697 155.565 126.063 155.402L125.778 154.832C125.412 154.995 125.046 155.158 124.72 155.32Z" fill="#393A3C"/>
<path d="M127.894 153.774L128.179 154.344C129.603 153.611 130.987 152.838 132.33 151.984L132.004 151.455C130.702 152.269 129.318 153.042 127.894 153.774Z" fill="#393A3C"/>
<path d="M158.21 116.785C158.128 117.152 158.006 117.559 157.843 118.088L158.454 118.291C158.617 117.762 158.739 117.314 158.82 116.948L159.675 113.693L159.064 113.53L158.21 116.785Z" fill="#393A3C"/>
<path d="M106.694 160.244C106.002 160.366 105.392 160.366 104.903 160.366C104.659 160.366 104.415 160.366 104.212 160.407L103.561 160.448L103.601 161.058L104.252 161.017C104.456 161.017 104.659 160.977 104.903 160.977C105.392 160.977 106.043 160.936 106.775 160.814C106.897 160.773 107.06 160.773 107.182 160.732L107.06 160.122C106.979 160.203 106.816 160.244 106.694 160.244Z" fill="#393A3C"/>
<path d="M153.245 128.993L152.431 130.336C152.187 130.702 151.984 131.068 151.74 131.475C151.536 131.841 151.333 132.167 151.089 132.533L151.617 132.859C151.821 132.492 152.065 132.167 152.269 131.801C152.513 131.434 152.716 131.068 152.96 130.661L153.774 129.318C153.896 129.115 153.978 128.911 154.059 128.749L153.489 128.464C153.449 128.627 153.367 128.83 153.245 128.993Z" fill="#393A3C"/>
<path d="M149.176 135.422L149.664 135.788C149.908 135.463 150.153 135.137 150.356 134.812L149.827 134.446C149.624 134.771 149.379 135.097 149.176 135.422Z" fill="#393A3C"/>
<path d="M155.158 125.046L154.303 126.796L154.873 127.08L155.727 125.331C155.972 124.883 156.175 124.395 156.419 123.866L155.85 123.622C155.605 124.151 155.402 124.598 155.158 125.046Z" fill="#393A3C"/>
<path d="M109.461 159.837L109.542 160.448C109.908 160.407 110.315 160.326 110.722 160.285L110.641 159.674C110.234 159.715 109.827 159.756 109.461 159.837Z" fill="#393A3C"/>
<path d="M157.03 120.407C156.907 120.732 156.785 121.058 156.663 121.424L157.274 121.628C157.396 121.302 157.518 120.977 157.64 120.651L157.681 120.529L157.111 120.326L157.03 120.407Z" fill="#393A3C"/>
<path d="M99.9796 160.651L97.4974 160.529V161.139L99.9796 161.261V160.936L100.02 161.261L102.503 161.139L102.462 160.529L99.9796 160.651Z" fill="#393A3C"/>
<path d="M93.9794 160.345L93.9491 160.955L95.1277 161.013L95.158 160.403L93.9794 160.345Z" fill="#393A3C"/>
<path d="M88.1383 159.471L88.0162 160.081C88.1383 160.122 88.3011 160.122 88.4232 160.122L91.5157 160.61L91.5971 160L88.4638 159.512C88.3825 159.512 88.2604 159.471 88.1383 159.471Z" fill="#393A3C"/>
<path d="M48.9929 133.876C49.644 134.893 50.3358 135.87 51.0682 136.806L51.5565 136.439C50.8647 135.504 50.173 134.527 49.5219 133.55L48.9929 133.876Z" fill="#393A3C"/>
<path d="M53.0214 138.271L52.5331 138.678C52.7365 138.962 52.9807 139.207 53.2248 139.491L53.3062 139.573L53.7538 139.125L53.6724 139.044C53.469 138.84 53.2248 138.555 53.0214 138.271Z" fill="#393A3C"/>
<path d="M55.3408 140.956L54.8932 141.363C56.0326 142.625 57.0905 143.764 58.2706 144.781L58.6775 144.293C57.4975 143.316 56.4802 142.177 55.3408 140.956Z" fill="#393A3C"/>
<path d="M45.6561 128.22C46.3886 129.644 47.1617 131.027 48.0163 132.37L48.5452 132.045C47.7314 130.743 46.9583 129.359 46.2258 127.935L45.6561 128.22Z" fill="#393A3C"/>
<path d="M59.9797 145.473L59.5728 145.961L60.7121 146.979L62.3398 148.24L62.706 147.752L61.4039 146.775L59.9797 145.473Z" fill="#393A3C"/>
<path d="M41.4242 115.402C41.1801 114.629 40.9766 113.815 40.8139 112.96L40.2035 113.082C40.407 113.937 40.6104 114.751 40.8546 115.565C41.0173 116.256 41.2208 116.989 41.4649 117.721L42.0753 117.558C41.7905 116.826 41.587 116.094 41.4242 115.402Z" fill="#393A3C"/>
<path d="M39.7559 106.734C39.6745 106.043 39.6338 105.432 39.6338 104.944C39.6338 104.7 39.6338 104.456 39.5931 104.252L39.5524 103.642L38.942 103.683L38.9827 104.334C38.9827 104.537 39.0234 104.741 39.0234 104.985C39.0234 105.473 39.0641 106.124 39.1862 106.857C39.2269 106.979 39.2269 107.141 39.2676 107.263L39.8779 107.141C39.7966 106.979 39.7965 106.857 39.7559 106.734Z" fill="#393A3C"/>
<path d="M41.9532 119.43C42.3195 120.529 42.7264 121.668 43.2147 122.808L43.7844 122.564C43.3368 121.465 42.9298 120.326 42.5636 119.227L41.9532 119.43Z" fill="#393A3C"/>
<path d="M44.1099 125.005C44.2726 125.371 44.4354 125.738 44.5982 126.104L45.1679 125.819C45.0051 125.453 44.8423 125.086 44.6795 124.761L44.1099 125.005Z" fill="#393A3C"/>
<path d="M40.1627 109.502L39.5524 109.583C39.5931 109.949 39.6745 110.356 39.7151 110.763L40.3255 110.682C40.2848 110.275 40.2441 109.868 40.1627 109.502Z" fill="#393A3C"/>
<path d="M81.9125 157.884L81.7498 158.494C82.2787 158.657 82.7264 158.779 83.0926 158.861L86.3479 159.715L86.5107 159.105L83.2147 158.25C82.8484 158.169 82.4415 158.047 81.9125 157.884Z" fill="#393A3C"/>
<path d="M64.2115 149.664C64.5371 149.908 64.8626 150.153 65.1881 150.356L65.5544 149.827C65.2288 149.624 64.9033 149.379 64.6185 149.135L64.2115 149.664Z" fill="#393A3C"/>
<path d="M78.5758 156.663L78.3723 157.274C78.6978 157.396 79.0234 157.518 79.3489 157.64L79.471 157.681L79.6744 157.111L79.5524 157.07C79.2675 156.907 78.942 156.785 78.5758 156.663Z" fill="#393A3C"/>
<path d="M69.705 152.472C69.3388 152.228 68.9726 152.024 68.5656 151.78C68.1994 151.577 67.8739 151.373 67.5077 151.129L67.1821 151.658C67.5484 151.862 67.8739 152.106 68.2401 152.309C68.6063 152.553 69.0133 152.757 69.3795 153.001L70.7223 153.815C70.9258 153.937 71.1292 154.018 71.3327 154.1L71.6175 153.53C71.4141 153.449 71.2513 153.327 71.0478 153.245L69.705 152.472Z" fill="#393A3C"/>
<path d="M73.1637 154.344L72.8789 154.914L74.6286 155.768C75.0763 156.012 75.5646 156.256 76.0936 156.46L76.3377 155.89C75.8087 155.687 75.3611 155.443 74.9135 155.198L73.1637 154.344Z" fill="#393A3C"/>
<path d="M39.3896 100.02L39.5117 97.5382L38.8606 97.4975L38.7385 100.02H39.0641H38.7385L38.8606 102.543L39.5117 102.503L39.3896 100.02Z" fill="#393A3C"/>
<path d="M39.0673 93.9766L39.0093 95.1552L39.6189 95.1852L39.6769 94.0066L39.0673 93.9766Z" fill="#393A3C"/>
<path d="M40.4883 88.5453C40.4883 88.3825 40.5289 88.2604 40.5289 88.1383L39.9186 88.0163C39.8779 88.1383 39.8779 88.3011 39.8372 88.4232L39.3489 91.5158L39.9593 91.5971L40.4883 88.5453Z" fill="#393A3C"/>
<path d="M66.4903 49.5219L66.1648 48.9929C65.1475 49.6439 64.1709 50.3357 63.235 51.0682L63.6012 51.5565C64.4964 50.8647 65.473 50.1729 66.4903 49.5219Z" fill="#393A3C"/>
<path d="M72.1058 46.2665L71.821 45.6968C70.3968 46.4293 69.0132 47.2024 67.6704 48.057L67.996 48.586C69.2981 47.7721 70.6816 46.999 72.1058 46.2665Z" fill="#393A3C"/>
<path d="M50.824 64.6185L50.3357 64.2523C50.0915 64.5778 49.8474 64.9034 49.6439 65.2289L50.1729 65.5951C50.3764 65.2289 50.5798 64.944 50.824 64.6185Z" fill="#393A3C"/>
<path d="M59.0844 55.3815L58.6775 54.8932C57.4161 56.0326 56.2767 57.0906 55.2594 58.2706L55.7477 58.6775C56.6836 57.5382 57.823 56.5209 59.0844 55.3815Z" fill="#393A3C"/>
<path d="M60.9155 53.7131C61.2004 53.469 61.4445 53.2655 61.7294 53.0214L61.3225 52.5331C61.0376 52.7772 60.7935 52.9807 60.5086 53.2248L60.4272 53.3062L60.8749 53.7538L60.9155 53.7131Z" fill="#393A3C"/>
<path d="M84.5982 41.4242C85.3714 41.1801 86.1852 40.9766 87.0397 40.8138L86.9177 40.2035C86.0632 40.4069 85.2493 40.6104 84.4355 40.8545C83.7437 41.0173 83.0113 41.2208 82.2788 41.4649L82.4823 42.0753C83.174 41.8311 83.9065 41.6277 84.5982 41.4242Z" fill="#393A3C"/>
<path d="M80.7731 42.5636L80.5697 41.9532C79.471 42.3194 78.3316 42.7264 77.1923 43.174L77.4364 43.7437C78.5758 43.3774 79.6745 42.9298 80.7731 42.5636Z" fill="#393A3C"/>
<path d="M75.2797 44.7202L75.0356 44.1506C74.6693 44.3133 74.3031 44.4761 73.9369 44.6389L74.181 45.2085C74.5473 45.0458 74.9135 44.883 75.2797 44.7202Z" fill="#393A3C"/>
<path d="M53.2655 61.4039L54.5269 60.0203L54.0793 59.5727L53.0213 60.7121L51.7599 62.3398L52.2482 62.7467L53.2655 61.4039Z" fill="#393A3C"/>
<path d="M90.4985 40.2035L90.4171 39.5931C90.0509 39.6338 89.644 39.7152 89.2371 39.7559L89.3184 40.3662C89.766 40.3255 90.1323 40.2441 90.4985 40.2035Z" fill="#393A3C"/>
<path d="M93.3062 39.7965C93.9979 39.6745 94.6083 39.6745 95.0966 39.6745C95.3408 39.6745 95.5849 39.6745 95.7884 39.6338L96.4394 39.5931L96.3987 38.9827L95.7477 39.0234C95.5442 39.0234 95.3408 39.0641 95.0966 39.0641C94.6083 39.0641 93.9572 39.1048 93.2248 39.2268C93.1027 39.2675 92.9399 39.2675 92.8179 39.3082L92.8993 39.9186C93.0213 39.8372 93.1841 39.7965 93.3062 39.7965Z" fill="#393A3C"/>
<path d="M42.9705 79.5931C43.0926 79.2676 43.2147 78.942 43.3368 78.5758L42.7264 78.3723C42.6043 78.6979 42.4822 79.0234 42.3602 79.3489L42.3195 79.471L42.8891 79.6745L42.9705 79.5931Z" fill="#393A3C"/>
<path d="M41.7905 83.2554C41.8718 82.8891 41.9939 82.4822 42.1567 81.9532L41.5463 81.7498C41.3835 82.2787 41.2615 82.7264 41.1801 83.0926L40.3256 86.3479L40.9359 86.5107L41.7905 83.2554Z" fill="#393A3C"/>
<path d="M46.7141 71.0478L47.5279 69.705C47.7721 69.3388 47.9756 68.9725 48.2197 68.5656C48.4232 68.1994 48.6266 67.8739 48.8708 67.5076L48.3418 67.1821C48.1383 67.5483 47.9349 67.8739 47.6907 68.2401C47.4466 68.6063 47.2431 68.9725 46.999 69.3795L46.1851 70.7223C46.063 70.9257 45.9817 71.1292 45.9003 71.292L46.47 71.5768C46.5513 71.414 46.6327 71.2106 46.7141 71.0478Z" fill="#393A3C"/>
<path d="M44.8422 74.9542L45.6968 73.2045L45.1271 72.9196L44.2726 74.6694C44.0284 75.117 43.825 75.6053 43.5808 76.1343L44.1505 76.3784C44.3946 75.8901 44.5981 75.4018 44.8422 74.9542Z" fill="#393A3C"/>
<path d="M99.9796 39.3896L102.462 39.5117L102.503 38.9013L100.02 38.7793L99.9796 39.0641V38.7793L97.4974 38.9013V39.5117L99.9796 39.3896Z" fill="#393A3C"/>
<path d="M111.862 40.5697L111.984 39.9593C111.862 39.9186 111.699 39.9186 111.577 39.9186L108.484 39.4303L108.403 40.0407L111.536 40.529C111.577 40.529 111.74 40.529 111.862 40.5697Z" fill="#393A3C"/>
<path d="M104.868 39.0495L104.837 39.6591L106.015 39.7185L106.046 39.1089L104.868 39.0495Z" fill="#393A3C"/>
<path d="M151.007 66.1648C150.356 65.1475 149.664 64.1709 148.932 63.235L148.444 63.6012C149.135 64.5371 149.827 65.5137 150.478 66.4903L151.007 66.1648Z" fill="#393A3C"/>
<path d="M146.979 61.7294L147.467 61.3225C147.223 61.0376 147.019 60.7935 146.775 60.5086L146.694 60.4273L146.246 60.8749L146.328 60.9562C146.531 61.2004 146.775 61.4853 146.979 61.7294Z" fill="#393A3C"/>
<path d="M154.303 71.8209C153.571 70.3967 152.798 69.0132 151.943 67.6704L151.414 67.9959C152.228 69.2981 153.001 70.6816 153.733 72.1058L154.303 71.8209Z" fill="#393A3C"/>
<path d="M144.619 59.0845L145.107 58.6775C143.967 57.4161 142.909 56.2767 141.729 55.2594L141.323 55.7477C142.462 56.7243 143.52 57.823 144.619 59.0845Z" fill="#393A3C"/>
<path d="M158.047 80.6104C157.681 79.5117 157.274 78.3723 156.826 77.233L156.256 77.4771C156.704 78.5758 157.111 79.7152 157.477 80.8138L158.047 80.6104Z" fill="#393A3C"/>
<path d="M159.797 90.5392L160.407 90.4578C160.366 90.0915 160.285 89.6846 160.244 89.2777L159.634 89.3591C159.674 89.766 159.756 90.1729 159.797 90.5392Z" fill="#393A3C"/>
<path d="M160.244 93.3062C160.366 93.998 160.366 94.6084 160.366 95.0967C160.366 95.3408 160.366 95.585 160.407 95.7884L160.448 96.3988L161.058 96.3581L161.017 95.707C161.017 95.5036 160.977 95.3001 160.977 95.056C160.977 94.5677 160.936 93.9166 160.814 93.1841C160.773 93.0621 160.773 92.8993 160.732 92.7772L160.122 92.8993C160.163 93.0621 160.203 93.1841 160.244 93.3062Z" fill="#393A3C"/>
<path d="M158.576 84.6389C158.82 85.412 159.023 86.2258 159.186 87.0804L159.796 86.9583C159.593 86.1038 159.39 85.2899 159.145 84.4761C158.983 83.7843 158.779 83.0519 158.535 82.3194L157.925 82.4822C158.21 83.2147 158.372 83.9064 158.576 84.6389Z" fill="#393A3C"/>
<path d="M139.98 54.5677L140.427 54.0794L139.288 53.0621L137.66 51.8006L137.294 52.2889L138.596 53.2655L139.98 54.5677Z" fill="#393A3C"/>
<path d="M155.849 75.0356C155.687 74.6694 155.524 74.3031 155.361 73.9369L154.792 74.2218C154.954 74.588 155.117 74.9542 155.28 75.2797L155.849 75.0356Z" fill="#393A3C"/>
<path d="M118.047 42.1567L118.25 41.5463C117.721 41.3835 117.274 41.2614 116.907 41.1801L113.652 40.3255L113.489 40.9359L116.785 41.7904C117.152 41.8718 117.559 41.9939 118.047 42.1567Z" fill="#393A3C"/>
<path d="M121.383 43.3774L121.587 42.767C121.261 42.645 120.936 42.5229 120.61 42.4008L120.488 42.3601L120.285 42.9298L120.407 42.9705C120.732 43.1333 121.058 43.2553 121.383 43.3774Z" fill="#393A3C"/>
<path d="M135.788 50.3357C135.463 50.0916 135.137 49.8474 134.812 49.644L134.446 50.1729C134.771 50.3764 135.097 50.6206 135.381 50.8647L135.788 50.3357Z" fill="#393A3C"/>
<path d="M126.796 45.6968L127.08 45.1272L125.331 44.2726C124.883 44.0285 124.395 43.7843 123.866 43.5809L123.622 44.1506C124.151 44.354 124.598 44.5982 125.046 44.8423L126.796 45.6968Z" fill="#393A3C"/>
<path d="M130.295 47.5687C130.661 47.8128 131.027 48.0163 131.434 48.2604C131.801 48.4639 132.126 48.6673 132.492 48.9115L132.818 48.3825C132.452 48.179 132.126 47.9349 131.76 47.7314C131.394 47.4873 131.027 47.2838 130.661 47.0397L129.318 46.2258C129.115 46.1038 128.911 46.0224 128.749 45.941L128.464 46.5107C128.667 46.5921 128.83 46.7141 129.034 46.7955L130.295 47.5687Z" fill="#393A3C"/>
<path d="M161.099 97.4975L160.488 97.5382L160.61 100.02L160.488 102.503L161.099 102.543L161.261 100.02H160.936H161.261L161.099 97.4975Z" fill="#393A3C"/>
<path d="M123.418 169.156L123.662 169.807L126.226 168.83L125.982 168.179L123.418 169.156Z" fill="#393A3C"/>
<path d="M101.851 172.94V173.632L104.618 173.51L104.578 172.818L101.851 172.94Z" fill="#393A3C"/>
<path d="M118.169 170.661L118.332 171.353L121.017 170.661L120.814 169.969L118.169 170.661Z" fill="#393A3C"/>
<path d="M173.011 99.9964L172.87 102.76L173.561 102.795L173.701 100.032L173.011 99.9964Z" fill="#393A3C"/>
<path d="M113.978 171.679L112.798 171.841L112.92 172.533L114.1 172.37C114.547 172.33 115.036 172.208 115.646 172.045L115.483 171.394C114.873 171.516 114.425 171.638 113.978 171.679Z" fill="#393A3C"/>
<path d="M170.783 117.762L170.458 119.064L171.109 119.227L171.434 117.925C171.556 117.477 171.679 117.03 171.801 116.582L171.15 116.419C170.987 116.826 170.865 117.274 170.783 117.762Z" fill="#393A3C"/>
<path d="M167.365 128.22C167.202 128.627 166.999 129.034 166.836 129.4L167.447 129.685C167.65 129.278 167.853 128.871 168.016 128.423L168.505 127.08L167.853 126.836L167.365 128.22Z" fill="#393A3C"/>
<path d="M172.655 107.508L172.533 108.24L173.225 108.362L173.347 107.589L173.428 105.554L172.737 105.514L172.655 107.508Z" fill="#393A3C"/>
<path d="M130.376 166.389C130.132 166.511 129.847 166.633 129.603 166.755C129.278 166.918 128.952 167.08 128.586 167.243L128.871 167.853C129.196 167.691 129.563 167.528 129.888 167.365C130.132 167.243 130.417 167.121 130.661 166.999L131.353 166.673L131.068 166.063L130.376 166.389Z" fill="#393A3C"/>
<path d="M172.134 110.955L171.711 113.689L172.395 113.795L172.818 111.06L172.134 110.955Z" fill="#393A3C"/>
<path d="M168.789 124.273L169.44 124.517L170.254 122.319L170.417 121.913L169.725 121.709L168.789 124.273Z" fill="#393A3C"/>
<path d="M107.548 172.655H107.345L107.386 173.347L110.153 172.94L110.071 172.289L107.548 172.655Z" fill="#393A3C"/>
<path d="M158.494 143.642L159.064 144.049C159.634 143.316 160.163 142.543 160.692 141.811L160.122 141.404C159.552 142.136 159.023 142.869 158.494 143.642Z" fill="#393A3C"/>
<path d="M151.617 151.658L151.333 151.984L151.821 152.472L152.146 152.146C152.675 151.577 153.204 151.007 153.733 150.437L153.204 149.99C152.716 150.559 152.187 151.129 151.617 151.658Z" fill="#393A3C"/>
<path d="M155.036 147.915L155.565 148.362C156.175 147.67 156.745 146.938 157.314 146.205L156.785 145.758C156.216 146.531 155.646 147.223 155.036 147.915Z" fill="#393A3C"/>
<path d="M134.852 164.232L133.591 164.842L133.876 165.453L135.178 164.842C135.585 164.639 135.951 164.395 136.358 164.151L135.992 163.54C135.585 163.784 135.219 164.029 134.852 164.232Z" fill="#393A3C"/>
<path d="M161.628 139.125L162.197 139.491C162.686 138.718 163.174 137.904 163.662 137.131L163.052 136.765C162.604 137.538 162.116 138.311 161.628 139.125Z" fill="#393A3C"/>
<path d="M142.869 159.023L143.276 159.593C144.008 159.064 144.741 158.494 145.473 157.925L145.066 157.396C144.374 157.925 143.601 158.494 142.869 159.023Z" fill="#393A3C"/>
<path d="M138.311 162.116L138.678 162.686C139.451 162.197 140.224 161.668 140.997 161.18L140.59 160.61C139.858 161.139 139.084 161.628 138.311 162.116Z" fill="#393A3C"/>
<path d="M164.435 134.405L165.046 134.69L166.226 132.208L165.615 131.923L164.435 134.405Z" fill="#393A3C"/>
<path d="M147.223 155.646L147.67 156.175C148.362 155.565 149.095 154.995 149.786 154.344L149.339 153.815C148.606 154.466 147.915 155.036 147.223 155.646Z" fill="#393A3C"/>
<path d="M30.8851 123.459L30.234 123.662L31.1699 126.267H31.2106L31.821 126.022L30.8851 123.459Z" fill="#393A3C"/>
<path d="M37.3143 138.718C37.8026 139.491 38.3316 140.264 38.8199 141.038L39.3896 140.631C38.8606 139.858 38.3723 139.084 37.884 138.311L37.3143 138.718Z" fill="#393A3C"/>
<path d="M33.2452 129.603C33.0824 129.278 32.9197 128.952 32.7569 128.627L32.1058 128.911C32.2686 129.237 32.4314 129.603 32.5941 129.929C32.7162 130.173 32.8383 130.458 32.9604 130.702L33.2859 131.394L33.8963 131.109L33.5707 130.417C33.53 130.132 33.3673 129.847 33.2452 129.603Z" fill="#393A3C"/>
<path d="M35.1577 133.591L34.5474 133.876L35.1577 135.178C35.3612 135.585 35.6054 135.951 35.8495 136.358L36.4599 135.992C36.2157 135.585 36.0123 135.219 35.8088 134.853L35.1577 133.591Z" fill="#393A3C"/>
<path d="M28.1587 112.798L27.4669 112.92L27.6704 114.1C27.7111 114.547 27.8331 115.036 27.9959 115.646L28.647 115.483C28.4842 114.873 28.4028 114.425 28.3621 113.978L28.1587 112.798Z" fill="#393A3C"/>
<path d="M40.407 143.316C40.936 144.049 41.5057 144.781 42.0753 145.514L42.6043 145.107C42.0347 144.374 41.465 143.642 40.936 142.909L40.407 143.316Z" fill="#393A3C"/>
<path d="M31.4955 126.144L31.2106 126.267H31.1699L31.4955 126.144Z" fill="#393A3C"/>
<path d="M27.0709 101.875L26.38 101.91L26.5208 104.673L27.2117 104.638L27.0709 101.875Z" fill="#393A3C"/>
<path d="M27.3448 107.548V107.386L26.6531 107.426L27.06 110.193L27.7517 110.071L27.3448 107.548Z" fill="#393A3C"/>
<path d="M28.647 118.332L29.3387 121.017L30.0305 120.855L29.3387 118.169L28.647 118.332Z" fill="#393A3C"/>
<path d="M70.6002 166.836L70.3153 167.447C70.7222 167.65 71.1291 167.854 71.5768 168.016L72.9196 168.505L73.1637 167.854L71.8209 167.365C71.3733 167.243 71.0071 167.04 70.6002 166.836Z" fill="#393A3C"/>
<path d="M86.3088 171.701L86.2047 172.385L88.9402 172.801L89.0443 172.117L86.3088 171.701Z" fill="#393A3C"/>
<path d="M75.4832 169.481L77.6805 170.295L78.1281 170.417L78.2909 169.766L75.7273 168.83L75.4832 169.481Z" fill="#393A3C"/>
<path d="M80.9766 170.458L80.8138 171.109L82.116 171.434C82.5636 171.556 83.0112 171.679 83.4588 171.801L83.6216 171.15C83.174 171.027 82.7264 170.905 82.2381 170.783L80.9766 170.458Z" fill="#393A3C"/>
<path d="M91.76 172.574L91.6786 173.225L92.411 173.347L94.4456 173.469L94.4863 172.777L92.4924 172.655L91.76 172.574Z" fill="#393A3C"/>
<path d="M97.2126 173.591L99.9797 173.754L100.02 173.062L97.2533 172.899L97.2126 173.591Z" fill="#393A3C"/>
<path d="M43.825 147.67C44.4353 148.362 45.005 149.095 45.6561 149.786L46.1851 149.339C45.5747 148.647 44.9643 147.955 44.3946 147.263L43.825 147.67Z" fill="#393A3C"/>
<path d="M51.6378 155.605C52.3296 156.216 53.062 156.785 53.7945 157.355L54.2421 156.826C53.5096 156.256 52.8179 155.687 52.1261 155.076L51.6378 155.605Z" fill="#393A3C"/>
<path d="M65.6377 164.431L65.3372 165.054L67.8294 166.256L68.13 165.633L65.6377 164.431Z" fill="#393A3C"/>
<path d="M48.0569 151.333L47.5686 151.821L47.8941 152.147C48.4638 152.676 49.0335 153.204 49.6032 153.733L50.0508 153.204C49.4811 152.675 48.9114 152.146 48.3824 151.617L48.0569 151.333Z" fill="#393A3C"/>
<path d="M55.9918 159.064C56.7243 159.634 57.4974 160.163 58.2299 160.692L58.6368 160.122C57.9043 159.593 57.1312 159.064 56.3987 158.494L55.9918 159.064Z" fill="#393A3C"/>
<path d="M60.5493 162.238C61.3225 162.726 62.1363 163.215 62.9094 163.703L63.2757 163.093C62.5025 162.604 61.7294 162.157 60.9562 161.628L60.5493 162.238Z" fill="#393A3C"/>
<path d="M69.6236 33.6521C69.8677 33.53 70.1526 33.4079 70.3967 33.2858C70.7223 33.1231 71.0478 32.9603 71.414 32.7976L71.1292 32.1872C70.8036 32.3499 70.4374 32.5127 70.1119 32.6755C69.8677 32.7975 69.5829 32.9196 69.3387 33.0417L68.647 33.3672L68.9318 33.9776L69.6236 33.6521Z" fill="#393A3C"/>
<path d="M65.1476 35.8087L66.409 35.1984L66.1242 34.588L64.822 35.1984C64.4151 35.4018 64.0489 35.646 63.642 35.8901L64.0082 36.5005C64.4151 36.2563 64.7813 36.0122 65.1476 35.8087Z" fill="#393A3C"/>
<path d="M76.5818 30.885L76.3377 30.234L73.7334 31.2106L73.9776 31.821L76.5818 30.885Z" fill="#393A3C"/>
<path d="M61.6481 37.9247L61.2818 37.355C60.5087 37.8433 59.7355 38.3723 58.9624 38.8606L59.3693 39.4303C60.1018 38.9013 60.8749 38.413 61.6481 37.9247Z" fill="#393A3C"/>
<path d="M57.0905 41.0173L56.6836 40.4476C55.9511 40.9766 55.178 41.5463 54.4862 42.116L54.8931 42.645C55.6256 42.0753 56.358 41.5463 57.0905 41.0173Z" fill="#393A3C"/>
<path d="M98.1485 27.06L98.1079 26.409L95.3408 26.531L95.3815 27.2228L98.1485 27.06Z" fill="#393A3C"/>
<path d="M81.6574 28.686L78.9778 29.3761L79.1503 30.046L81.8299 29.3559L81.6574 28.686Z" fill="#393A3C"/>
<path d="M92.4517 27.3856L92.6145 27.3449L92.5738 26.6531L89.8068 27.06L89.9288 27.7518L92.4517 27.3856Z" fill="#393A3C"/>
<path d="M85.9817 28.3622L87.1618 28.1994L87.0397 27.5076L85.8596 27.6704C85.412 27.7111 84.9237 27.8332 84.3134 27.9959L84.4761 28.647C85.0865 28.5249 85.5748 28.4028 85.9817 28.3622Z" fill="#393A3C"/>
<path d="M27.3448 92.5331L27.4669 91.8006L26.7751 91.6785L26.653 92.4517L26.5717 94.4863L27.2227 94.527L27.3448 92.5331Z" fill="#393A3C"/>
<path d="M27.5938 86.2146L27.1724 88.9493L27.856 89.0547L28.2775 86.32L27.5938 86.2146Z" fill="#393A3C"/>
<path d="M26.4234 97.239L26.285 100.002L26.9759 100.037L27.1143 97.2736L26.4234 97.239Z" fill="#393A3C"/>
<path d="M31.1699 75.7274L30.5188 75.5239L29.7457 77.6806L29.5829 78.1282L30.234 78.291L31.1699 75.7274Z" fill="#393A3C"/>
<path d="M32.6347 71.821C32.7975 71.414 33.001 71.0071 33.1637 70.6409L32.5533 70.356C32.3499 70.763 32.1464 71.1699 31.9837 71.6175L31.4954 72.9603L32.1464 73.2045L32.6347 71.821Z" fill="#393A3C"/>
<path d="M29.2167 82.2787L29.5422 80.9766L28.8505 80.8138L28.5249 82.116C28.4029 82.5636 28.2808 83.0112 28.1587 83.4588L28.8098 83.6216C28.9725 83.2147 29.0946 82.767 29.2167 82.2787Z" fill="#393A3C"/>
<path d="M52.7772 44.3947L52.3296 43.8657C51.6378 44.4761 50.9054 45.0458 50.2136 45.6969L50.6612 46.2259C51.353 45.5748 52.0447 44.9644 52.7772 44.3947Z" fill="#393A3C"/>
<path d="M34.9794 65.3328L33.7736 67.8234L34.3962 68.1249L35.6021 65.6342L34.9794 65.3328Z" fill="#393A3C"/>
<path d="M41.5056 56.3988L40.9359 55.9919C40.3662 56.7243 39.8372 57.4975 39.3082 58.2299L39.8779 58.6368C40.4069 57.9044 40.9766 57.1312 41.5056 56.3988Z" fill="#393A3C"/>
<path d="M44.9644 52.1262L44.4354 51.6785C43.825 52.3703 43.2554 53.1027 42.6857 53.8352L43.2147 54.2828C43.7436 53.5097 44.354 52.8179 44.9644 52.1262Z" fill="#393A3C"/>
<path d="M48.3418 48.3825L48.6673 48.057L48.179 47.5687L47.8535 47.8942C47.3245 48.4639 46.7955 49.0336 46.2665 49.6033L46.7955 50.0509C47.2838 49.4812 47.8128 48.9115 48.3418 48.3825Z" fill="#393A3C"/>
<path d="M38.3724 60.9156L37.8027 60.5493C37.3144 61.3225 36.8261 62.0956 36.3378 62.9095L36.9481 63.2757C37.3958 62.5025 37.8841 61.6887 38.3724 60.9156Z" fill="#393A3C"/>
<path d="M162.686 61.3225C162.197 60.5493 161.668 59.7762 161.18 59.003L160.61 59.41C161.139 60.1831 161.628 60.9562 162.116 61.7294L162.686 61.3225Z" fill="#393A3C"/>
<path d="M168.505 73.8556L168.789 73.7742H168.83L168.505 73.8556Z" fill="#393A3C"/>
<path d="M164.802 66.4497L165.412 66.1648L164.802 64.8627C164.598 64.4558 164.354 64.0895 164.11 63.6826L163.5 64.0488C163.744 64.4558 163.947 64.822 164.151 65.1882L164.802 66.4497Z" fill="#393A3C"/>
<path d="M166.714 70.4375C166.877 70.763 167.04 71.0885 167.202 71.4547L167.813 71.1699C167.65 70.8444 167.487 70.4781 167.324 70.1526C167.202 69.9085 167.08 69.6236 166.958 69.3795L166.633 68.6877L166.022 68.9725L166.348 69.6643C166.47 69.9085 166.592 70.1933 166.714 70.4375Z" fill="#393A3C"/>
<path d="M169.115 76.5819L169.766 76.3378L168.83 73.7742H168.789L168.179 74.0183L169.115 76.5819Z" fill="#393A3C"/>
<path d="M170.641 79.0308L169.971 79.2039L170.664 81.883L171.333 81.7098L170.641 79.0308Z" fill="#393A3C"/>
<path d="M173.478 95.3651L172.787 95.4003L172.928 98.1638L173.618 98.1286L173.478 95.3651Z" fill="#393A3C"/>
<path d="M172.655 92.4924V92.6552L173.347 92.6145L172.94 89.8474L172.248 89.9695L172.655 92.4924Z" fill="#393A3C"/>
<path d="M171.841 87.2024L172.533 87.0804L172.37 85.9003C172.289 85.4527 172.208 84.9644 172.045 84.354L171.394 84.5168C171.556 85.1272 171.638 85.5748 171.679 86.0224L171.841 87.2024Z" fill="#393A3C"/>
<path d="M139.451 37.8026C138.677 37.3143 137.904 36.826 137.09 36.3377L136.724 36.9481C137.497 37.4364 138.271 37.884 139.044 38.413L139.451 37.8026Z" fill="#393A3C"/>
<path d="M102.787 26.4496L100.02 26.2869L99.9796 26.9786L102.747 27.1414L102.787 26.4496Z" fill="#393A3C"/>
<path d="M119.023 29.5829L119.186 28.9318L117.884 28.6063C117.436 28.4842 116.989 28.3622 116.541 28.2401L116.378 28.8912C116.826 29.0132 117.274 29.1353 117.762 29.2574L119.023 29.5829Z" fill="#393A3C"/>
<path d="M124.517 30.5595L122.319 29.7457L121.872 29.6236L121.709 30.2747L124.273 31.2106L124.517 30.5595Z" fill="#393A3C"/>
<path d="M159.552 56.7243C159.023 55.9919 158.454 55.2594 157.884 54.527L157.355 54.9339C157.925 55.6663 158.454 56.3988 159.023 57.1312L159.552 56.7243Z" fill="#393A3C"/>
<path d="M129.4 33.2045L129.685 32.5941C129.278 32.3906 128.871 32.1872 128.423 32.0244L127.08 31.5361L126.836 32.1872L128.179 32.6755C128.586 32.7976 128.993 33.001 129.4 33.2045Z" fill="#393A3C"/>
<path d="M111.033 27.201L110.929 27.8849L113.665 28.3016L113.769 27.6177L111.033 27.201Z" fill="#393A3C"/>
<path d="M108.24 27.4669L108.322 26.7752L107.548 26.6938L105.554 26.5717L105.514 27.2635L107.508 27.3856L108.24 27.4669Z" fill="#393A3C"/>
<path d="M134.649 34.9542L132.167 33.7742L131.882 34.3845L134.364 35.6053L134.649 34.9542Z" fill="#393A3C"/>
<path d="M151.943 48.708L152.431 48.2197L152.106 47.8942C151.536 47.3652 151.007 46.8362 150.397 46.3072L149.949 46.8362C150.519 47.3652 151.088 47.8942 151.617 48.4232L151.943 48.708Z" fill="#393A3C"/>
<path d="M156.134 52.3296C155.524 51.6378 154.954 50.9054 154.303 50.2136L153.774 50.6612C154.385 51.353 154.995 52.0448 155.565 52.7365L156.134 52.3296Z" fill="#393A3C"/>
<path d="M144.008 40.9766C143.276 40.4069 142.503 39.8779 141.77 39.3489L141.363 39.9186C142.096 40.4476 142.869 40.9766 143.601 41.5463L144.008 40.9766Z" fill="#393A3C"/>
<path d="M148.362 44.4354C147.67 43.825 146.938 43.2553 146.205 42.6857L145.758 43.2147C146.49 43.7843 147.182 44.354 147.874 44.9644L148.362 44.4354Z" fill="#393A3C"/>
<path d="M99.9797 21.8515C56.8871 21.8515 21.8108 56.9278 21.8108 100.02C21.8108 143.113 56.8871 178.189 99.9797 178.189C143.072 178.189 178.149 143.113 178.149 100.02C178.149 56.9278 143.113 21.8515 99.9797 21.8515ZM99.9797 176.236C57.9451 176.236 23.764 142.055 23.764 100.02C23.764 57.9857 57.9451 23.8047 99.9797 23.8047C142.014 23.8047 176.195 57.9857 176.195 100.02C176.236 142.055 142.014 176.236 99.9797 176.236Z" fill="#393A3C"/>
<path d="M99.9796 0C44.8423 0 0 44.8423 0 99.9797C0 155.117 44.8423 200 99.9796 200C155.117 200 199.959 155.158 199.959 100.02C199.959 44.883 155.117 0 99.9796 0ZM99.9796 196.134C46.999 196.134 3.86572 153.001 3.86572 100.02C3.86572 47.0397 46.999 3.90641 99.9796 3.90641C152.96 3.90641 196.094 47.0397 196.094 100.02C196.094 153.001 153.001 196.134 99.9796 196.134Z" fill="#393A3C"/>
<path d="M88.0162 62.6653H78.413V65.1475H88.0162V62.6653Z" fill="#393A3C"/>
<path d="M103.154 58.352H93.5503V60.8342H103.154V58.352Z" fill="#393A3C"/>
<path d="M118.291 62.6653H108.688V65.1475H118.291V62.6653Z" fill="#393A3C"/>
<path d="M115.524 58.352H111.536V60.8342H115.524V58.352Z" fill="#393A3C"/>
<path d="M100.346 54.0387H96.3582V56.5209H100.346V54.0387Z" fill="#393A3C"/>
<path d="M104.496 54.0387H102.503V56.5209H104.496V54.0387Z" fill="#393A3C"/>
<path d="M94.2828 54.0387H92.2889V56.5209H94.2828V54.0387Z" fill="#393A3C"/>
<path d="M108.688 58.352H106.043V60.8342H108.688V58.352Z" fill="#393A3C"/>
<path d="M85.819 58.352H81.8312V60.8342H85.819V58.352Z" fill="#393A3C"/>
<path d="M91.353 58.352H88.708V60.8342H91.353V58.352Z" fill="#393A3C"/>
<path d="M105.432 62.6653H91.3123V65.1475H105.432V62.6653Z" fill="#393A3C"/>
<path d="M88.0162 134.608H78.413V137.091H88.0162V134.608Z" fill="#393A3C"/>
<path d="M103.154 138.922H93.5503V141.404H103.154V138.922Z" fill="#393A3C"/>
<path d="M118.291 134.608H108.688V137.091H118.291V134.608Z" fill="#393A3C"/>
<path d="M115.524 138.922H111.536V141.404H115.524V138.922Z" fill="#393A3C"/>
<path d="M100.346 143.276H96.3582V145.758H100.346V143.276Z" fill="#393A3C"/>
<path d="M104.496 143.276H102.503V145.758H104.496V143.276Z" fill="#393A3C"/>
<path d="M94.2828 143.276H92.2889V145.758H94.2828V143.276Z" fill="#393A3C"/>
<path d="M108.688 138.922H106.043V141.404H108.688V138.922Z" fill="#393A3C"/>
<path d="M85.819 138.922H81.8312V141.404H85.819V138.922Z" fill="#393A3C"/>
<path d="M91.353 138.922H88.708V141.404H91.353V138.922Z" fill="#393A3C"/>
<path d="M105.432 134.608H91.3123V137.091H105.432V134.608Z" fill="#393A3C"/>
<path d="M136.846 111.821H134.364V121.424H136.846V111.821Z" fill="#393A3C"/>
<path d="M141.16 96.6837H138.677V106.287H141.16V96.6837Z" fill="#393A3C"/>
<path d="M136.846 81.5463H134.364V91.1496H136.846V81.5463Z" fill="#393A3C"/>
<path d="M141.16 84.3133H138.677V88.3011H141.16V84.3133Z" fill="#393A3C"/>
<path d="M145.473 99.4914H142.991V103.479H145.473V99.4914Z" fill="#393A3C"/>
<path d="M145.473 95.3815H142.991V97.3754H145.473V95.3815Z" fill="#393A3C"/>
<path d="M145.473 105.595H142.991V107.589H145.473V105.595Z" fill="#393A3C"/>
<path d="M141.16 91.1902H138.677V93.8352H141.16V91.1902Z" fill="#393A3C"/>
<path d="M141.16 114.018H138.677V118.006H141.16V114.018Z" fill="#393A3C"/>
<path d="M141.16 108.525H138.677V111.17H141.16V108.525Z" fill="#393A3C"/>
<path d="M136.846 94.4049H134.364V108.525H136.846V94.4049Z" fill="#393A3C"/>
<path d="M66.1242 111.821H63.642V121.424H66.1242V111.821Z" fill="#393A3C"/>
<path d="M61.8108 96.6837H59.3286V106.287H61.8108V96.6837Z" fill="#393A3C"/>
<path d="M66.1242 81.5463H63.642V91.1496H66.1242V81.5463Z" fill="#393A3C"/>
<path d="M61.8108 84.3133H59.3286V88.3011H61.8108V84.3133Z" fill="#393A3C"/>
<path d="M57.4975 99.4914H55.0153V103.479H57.4975V99.4914Z" fill="#393A3C"/>
<path d="M57.4975 95.3815H55.0153V97.3754H57.4975V95.3815Z" fill="#393A3C"/>
<path d="M57.4975 105.595H55.0153V107.589H57.4975V105.595Z" fill="#393A3C"/>
<path d="M61.8108 91.1902H59.3286V93.8352H61.8108V91.1902Z" fill="#393A3C"/>
<path d="M61.8108 114.018H59.3286V118.006H61.8108V114.018Z" fill="#393A3C"/>
<path d="M61.8108 108.525H59.3286V111.17H61.8108V108.525Z" fill="#393A3C"/>
<path d="M66.1242 94.4049H63.642V108.525H66.1242V94.4049Z" fill="#393A3C"/>
</svg>
