<svg width="194" height="194" viewBox="0 0 194 194" fill="none" xmlns="http://www.w3.org/2000/svg">
<path d="M70.732 21.1564L68.9953 15.2358L76.3764 19.4986L77.9552 19.0645L75.587 10.9729L74.0871 11.4466L75.7843 17.2488L68.5611 13.0254L66.8639 13.5385L69.1927 21.5906L70.732 21.1564Z" fill="white"/>
<path d="M80.7972 18.5512L80.2446 15.2357L86.2836 14.2489L86.0468 12.7885L80.0077 13.8147L79.692 11.8806L85.8494 10.8939L85.5731 9.23608L77.7974 10.5386L79.1788 18.8275L80.7972 18.5512Z" fill="white"/>
<path d="M90.4282 10.5387L90.8229 17.2487L92.4412 17.1698L92.0859 10.4597L95.1252 10.3018L95.0462 8.64404L87.3099 9.07822L87.3889 10.6965L90.4282 10.5387Z" fill="white"/>
<path d="M98.3223 17.1305L102.704 17.3279L102.98 15.9069L98.4012 15.7096C98.1249 15.7096 97.8881 15.6306 97.7302 15.4728C97.5723 15.3543 97.4934 15.078 97.5328 14.7623V14.3676L103.138 14.6044L103.217 13.065C103.256 12.2361 103.059 11.6441 102.625 11.2494C102.19 10.8546 101.598 10.6573 100.769 10.6178L98.5985 10.5389C97.8091 10.4994 97.1776 10.6573 96.7039 11.0125C96.2303 11.3678 95.9935 11.9204 95.954 12.7493L95.8751 14.6833C95.8356 15.5122 96.0329 16.1043 96.4671 16.499C96.9408 16.8937 97.5328 17.0911 98.3223 17.1305ZM97.6118 12.8282C97.6118 12.5124 97.6907 12.2756 97.8486 12.1572C98.0065 11.9993 98.2433 11.9598 98.5591 11.9598L100.73 12.0388C101.046 12.0388 101.283 12.1572 101.401 12.2756C101.519 12.4335 101.598 12.6703 101.559 13.065V13.4992L97.5723 13.3413L97.6118 12.8282Z" fill="white"/>
<path d="M106.809 17.8015L111.15 18.433L111.585 17.0515L107.045 16.3805C106.769 16.341 106.572 16.2226 106.414 16.1042C106.295 15.9463 106.216 15.7095 106.295 15.3543L106.374 14.9596L111.94 15.7885L112.177 14.2491C112.295 13.4202 112.177 12.8281 111.782 12.3939C111.387 11.9598 110.795 11.6835 110.006 11.5651L107.835 11.2493C107.045 11.1309 106.414 11.2098 105.901 11.5256C105.427 11.8019 105.111 12.3545 104.993 13.1834L104.717 15.1174C104.598 15.9463 104.717 16.5384 105.111 16.9726C105.427 17.4462 106.019 17.6831 106.809 17.8015ZM106.532 13.4597C106.572 13.1439 106.69 12.9465 106.848 12.8281C107.006 12.7097 107.243 12.6702 107.558 12.7097L109.729 13.0255C110.045 13.065 110.282 13.1834 110.4 13.3413C110.519 13.4991 110.558 13.7754 110.479 14.1307L110.4 14.5649L106.453 13.9728L106.532 13.4597Z" fill="white"/>
<path d="M118.176 20.1304C118.452 20.1699 118.729 20.1304 118.926 20.0909C119.123 20.012 119.321 19.8936 119.439 19.7357C119.597 19.5778 119.676 19.341 119.755 19.0252L119.952 18.3148C120.071 17.7622 119.992 17.3674 119.715 17.0517C119.4 16.7359 118.926 16.4991 118.176 16.3017L115.847 15.7097C115.611 15.6702 115.492 15.5518 115.374 15.4334C115.295 15.315 115.295 15.1176 115.334 14.8808C115.413 14.6045 115.492 14.4466 115.65 14.4071C115.768 14.3282 115.966 14.3282 116.163 14.4071L120.229 15.4334L120.821 14.0914L116.479 12.9862C116.084 12.9072 115.768 12.8283 115.453 12.7888C115.176 12.7493 114.9 12.7888 114.703 12.8283C114.505 12.9072 114.308 13.0256 114.19 13.1835C114.032 13.3414 113.953 13.5782 113.874 13.894L113.716 14.565C113.558 15.1176 113.637 15.5518 113.953 15.8281C114.229 16.1438 114.742 16.3807 115.492 16.578L117.821 17.1701C118.058 17.2096 118.176 17.328 118.295 17.4069C118.373 17.5253 118.373 17.7227 118.295 17.999C118.216 18.2753 118.137 18.4332 117.979 18.5121C117.86 18.591 117.663 18.591 117.466 18.5121L113.045 17.3674C112.966 17.6043 112.848 17.8016 112.769 18.0385C112.69 18.2753 112.571 18.4726 112.492 18.7095L117.189 19.9331C117.545 20.0515 117.9 20.0909 118.176 20.1304Z" fill="white"/>
<path d="M145.609 26.5244L146.595 35.0501L147.898 35.9974L152.95 29.2873L151.687 28.34L148.016 33.195L147.069 24.9061L145.688 23.8403L140.635 30.5109L141.859 31.4582L145.609 26.5244Z" fill="white"/>
<path d="M149.99 38.0108L152.319 35.6031L156.739 39.8265L157.726 38.7607L153.345 34.5373L154.687 33.1559L159.147 37.4582L160.331 36.2741L154.647 30.7876L148.806 36.8661L149.99 38.0108Z" fill="white"/>
<path d="M162.147 40.9315L157.016 45.2339L158.042 46.497L163.213 42.1946L165.186 44.5234L166.449 43.4577L161.476 37.4976L160.213 38.5633L162.147 40.9315Z" fill="white"/>
<path d="M163.726 46.6942L162.107 47.7994C161.436 48.2731 161.081 48.7862 161.002 49.3388C160.963 49.8914 161.16 50.5229 161.594 51.1939L164.042 54.8252L165.344 54.1937L162.778 50.4045C162.621 50.1677 162.542 49.9308 162.581 49.7335C162.581 49.5361 162.739 49.3388 163.015 49.1414L163.331 48.9046L166.489 53.5622L167.752 52.6938C168.423 52.2201 168.778 51.707 168.857 51.1544C168.896 50.5624 168.699 49.9703 168.265 49.2993L167.041 47.4836C166.607 46.8126 166.094 46.4179 165.541 46.26C165.028 46.1021 164.397 46.26 163.726 46.6942ZM165.897 48.2731L167.12 50.0887C167.318 50.365 167.357 50.6018 167.318 50.7992C167.278 50.9966 167.12 51.1939 166.804 51.3913L166.449 51.6281L164.199 48.352L164.634 48.0757C164.87 47.9178 165.107 47.8389 165.305 47.8783C165.502 47.8783 165.699 48.0362 165.897 48.2731Z" fill="white"/>
<path d="M166.962 55.0618C166.252 55.4565 165.818 55.9302 165.699 56.4828C165.581 57.0354 165.739 57.6669 166.094 58.3774L168.146 62.2455L169.489 61.7719L167.318 57.7458C167.199 57.509 167.12 57.2722 167.16 57.0748C167.199 56.8775 167.357 56.6801 167.673 56.5222L168.028 56.3249L170.673 61.2982L172.054 60.5483C172.765 60.1536 173.199 59.6799 173.317 59.1273C173.436 58.5747 173.278 57.9432 172.922 57.2327L171.896 55.2986C171.502 54.5882 171.067 54.154 170.554 53.9172C170.041 53.6803 169.41 53.7987 168.66 54.154L166.962 55.0618ZM169.449 55.5749C169.725 55.4171 169.962 55.3776 170.16 55.417C170.357 55.4565 170.515 55.6539 170.673 55.9302L171.699 57.8643C171.857 58.1406 171.896 58.3774 171.817 58.5747C171.738 58.7721 171.541 58.93 171.225 59.1273L170.831 59.3247L168.936 55.8118L169.449 55.5749Z" fill="white"/>
<path d="M171.936 62.9563C171.857 63.3905 171.975 63.9431 172.251 64.6535L173.159 66.9034C173.238 67.1007 173.278 67.2981 173.238 67.4165C173.199 67.5349 173.041 67.6928 172.765 67.7717C172.488 67.8901 172.291 67.8901 172.173 67.8507C172.054 67.7717 171.936 67.6533 171.857 67.4165L170.12 63.1931C169.883 63.2326 169.646 63.3115 169.41 63.351C169.173 63.3905 168.936 63.4694 168.699 63.5089L170.554 68.0086C170.712 68.3638 170.87 68.6796 170.988 68.9164C171.146 69.1532 171.304 69.3506 171.502 69.5085C171.699 69.6269 171.896 69.7058 172.094 69.7058C172.291 69.7058 172.567 69.6663 172.844 69.5479L173.515 69.2716C174.028 69.0743 174.304 68.7585 174.383 68.3243C174.462 67.8901 174.343 67.3376 174.067 66.6271L173.159 64.3772C173.08 64.1799 173.041 63.9825 173.08 63.8641C173.12 63.7457 173.278 63.6273 173.515 63.5089C173.751 63.3904 173.949 63.3905 174.067 63.4694C174.186 63.5483 174.304 63.6667 174.383 63.9036L175.962 67.7717L177.383 67.456L175.685 63.3115C175.528 62.9563 175.37 62.6405 175.212 62.4037C175.054 62.1669 174.896 61.9695 174.699 61.8116C174.541 61.6932 174.304 61.6143 174.107 61.6143C173.87 61.6143 173.633 61.6537 173.357 61.7721L172.686 62.0484C172.33 62.2063 172.015 62.5221 171.936 62.9563Z" fill="white"/>
<path d="M175.962 90.9409L182.119 90.6646L176.199 96.8221L176.278 98.4404L184.645 98.0852L184.566 96.5063L178.527 96.7826L184.33 90.783L184.251 89.0068L175.883 89.3621L175.962 90.9409Z" fill="white"/>
<path d="M176.08 101.361L179.396 101.598L178.922 107.716L180.383 107.795L180.856 101.717L182.79 101.875L182.277 108.111L183.935 108.229L184.566 100.375L176.199 99.7036L176.08 101.361Z" fill="white"/>
<path d="M181.488 112.611L174.896 111.348L174.58 112.966L181.211 114.229L180.619 117.229L182.238 117.545L183.698 109.927L182.08 109.611L181.488 112.611Z" fill="white"/>
<path d="M178.014 117.466L176.159 116.913C175.37 116.676 174.738 116.716 174.265 117.031C173.791 117.347 173.436 117.9 173.238 118.65L172.015 122.834L173.317 123.426L174.62 119.044C174.699 118.768 174.817 118.571 174.975 118.452C175.133 118.334 175.409 118.334 175.725 118.413L176.12 118.531L174.541 123.939L176.041 124.373C176.83 124.61 177.462 124.57 177.935 124.215C178.409 123.899 178.764 123.347 179.001 122.597L179.633 120.505C179.869 119.755 179.869 119.084 179.633 118.571C179.317 118.097 178.804 117.702 178.014 117.466ZM178.172 120.15L177.541 122.242C177.462 122.557 177.304 122.755 177.146 122.834C176.949 122.913 176.712 122.913 176.356 122.834L175.922 122.715L177.027 118.887L177.541 119.044C177.856 119.123 178.054 119.281 178.133 119.439C178.251 119.597 178.251 119.834 178.172 120.15Z" fill="white"/>
<path d="M175.409 126.031L173.593 125.281C172.844 124.965 172.212 124.965 171.699 125.202C171.186 125.478 170.791 125.991 170.475 126.702L168.818 130.767L170.041 131.517L171.778 127.294C171.896 127.018 172.015 126.86 172.212 126.741C172.409 126.662 172.646 126.662 172.962 126.781L173.317 126.939L171.186 132.149L172.607 132.741C173.357 133.057 173.988 133.057 174.501 132.78C175.014 132.504 175.409 131.991 175.725 131.281L176.554 129.268C176.87 128.518 176.909 127.886 176.751 127.333C176.633 126.781 176.159 126.347 175.409 126.031ZM175.291 128.715L174.462 130.728C174.343 131.044 174.186 131.202 173.988 131.281C173.791 131.359 173.554 131.32 173.199 131.162L172.804 131.004L174.343 127.333L174.817 127.531C175.093 127.649 175.291 127.807 175.37 127.965C175.409 128.162 175.409 128.399 175.291 128.715Z" fill="white"/>
<path d="M172.607 134.556L171.975 134.241C171.462 133.964 171.067 133.964 170.673 134.162C170.317 134.359 169.923 134.793 169.567 135.464L168.423 137.596C168.304 137.793 168.186 137.912 168.068 137.99C167.949 138.03 167.752 137.99 167.515 137.872C167.278 137.754 167.12 137.596 167.081 137.477C167.041 137.319 167.081 137.162 167.199 136.964L169.37 132.938C169.173 132.78 168.975 132.662 168.818 132.504C168.62 132.346 168.423 132.228 168.265 132.07L165.976 136.372C165.778 136.727 165.66 137.043 165.541 137.319C165.423 137.596 165.384 137.833 165.423 138.069C165.423 138.306 165.502 138.504 165.62 138.661C165.739 138.819 165.936 138.977 166.212 139.135L166.844 139.49C167.318 139.767 167.752 139.767 168.146 139.569C168.541 139.372 168.896 138.938 169.252 138.267L170.396 136.135C170.515 135.938 170.633 135.82 170.752 135.741C170.87 135.701 171.067 135.741 171.304 135.859C171.541 135.977 171.699 136.135 171.699 136.254C171.738 136.412 171.699 136.57 171.58 136.767L169.607 140.438L170.752 141.306L172.883 137.359C173.08 137.004 173.199 136.688 173.317 136.412C173.396 136.135 173.436 135.899 173.436 135.662C173.436 135.425 173.357 135.227 173.199 135.07C173.08 134.872 172.883 134.714 172.607 134.556Z" fill="white"/>
<path d="M151.608 155.003L155.713 159.621L147.187 158.95L146.003 160.016L151.569 166.291L152.753 165.226L148.727 160.687L157.055 161.397L158.358 160.213L152.792 153.937L151.608 155.003Z" fill="white"/>
<path d="M143.635 161.713L145.53 164.436L140.556 167.949L141.385 169.133L146.398 165.66L147.503 167.239L142.372 170.791L143.319 172.173L149.792 167.634L144.977 160.766L143.635 161.713Z" fill="white"/>
<path d="M138.385 173.08L135.149 167.16L133.728 167.949L136.925 173.83L134.241 175.33L135.03 176.791L141.859 173.041L141.069 171.58L138.385 173.08Z" fill="white"/>
<path d="M131.636 171.659C131.32 170.909 130.886 170.436 130.333 170.278C129.781 170.12 129.149 170.199 128.399 170.515L124.373 172.212L124.728 173.593L128.952 171.817C129.228 171.699 129.425 171.699 129.623 171.738C129.82 171.778 129.978 171.975 130.136 172.291L130.294 172.646L125.123 174.856L125.715 176.277C126.031 177.027 126.465 177.501 127.018 177.659C127.57 177.817 128.202 177.738 128.952 177.422L130.965 176.554C131.715 176.238 132.188 175.843 132.465 175.33C132.741 174.817 132.702 174.185 132.386 173.435L131.636 171.659ZM131.004 174.817C130.925 175.014 130.767 175.172 130.452 175.29L128.439 176.159C128.123 176.277 127.886 176.317 127.728 176.238C127.531 176.159 127.373 175.961 127.255 175.606L127.097 175.212L130.767 173.672L130.965 174.146C131.044 174.383 131.044 174.619 131.004 174.817Z" fill="white"/>
<path d="M123.584 175.014C123.347 174.225 122.952 173.712 122.439 173.515C121.926 173.317 121.255 173.317 120.505 173.554L116.321 174.817L116.518 176.238L120.9 174.896C121.176 174.817 121.413 174.817 121.61 174.896C121.808 174.975 121.926 175.172 122.044 175.488L122.163 175.883L116.795 177.541L117.229 179.04C117.466 179.83 117.86 180.343 118.374 180.54C118.926 180.738 119.558 180.738 120.308 180.501L122.4 179.869C123.15 179.633 123.702 179.277 124.018 178.804C124.334 178.33 124.373 177.698 124.136 176.909L123.584 175.014ZM122.597 178.054C122.518 178.251 122.321 178.369 122.005 178.448L119.913 179.08C119.597 179.159 119.36 179.159 119.163 179.08C119.005 178.962 118.847 178.764 118.729 178.409L118.61 177.975L122.439 176.83L122.597 177.343C122.676 177.62 122.676 177.856 122.597 178.054Z" fill="white"/>
<path d="M115.65 179.435C115.532 178.883 115.295 178.527 114.9 178.37C114.505 178.212 113.913 178.212 113.203 178.37L110.835 178.843C110.598 178.883 110.44 178.883 110.321 178.804C110.203 178.725 110.124 178.567 110.045 178.291C110.006 178.014 110.006 177.817 110.085 177.698C110.164 177.58 110.321 177.501 110.558 177.462L115.018 176.593C115.018 176.356 115.018 176.12 114.979 175.883C114.979 175.646 114.979 175.409 114.94 175.172L110.164 176.12C109.769 176.199 109.453 176.278 109.177 176.396C108.9 176.514 108.664 176.633 108.506 176.791C108.348 176.949 108.229 177.106 108.19 177.343C108.151 177.541 108.151 177.817 108.19 178.093L108.348 178.804C108.466 179.356 108.703 179.712 109.098 179.869C109.493 180.027 110.085 180.027 110.795 179.869L113.163 179.396C113.4 179.356 113.558 179.356 113.676 179.435C113.795 179.514 113.874 179.672 113.953 179.948C113.992 180.225 113.992 180.422 113.913 180.501C113.834 180.619 113.676 180.698 113.44 180.738L109.335 181.567L109.374 183.027L113.795 182.159C114.19 182.08 114.505 182.001 114.782 181.882C115.058 181.764 115.295 181.646 115.453 181.488C115.611 181.33 115.729 181.172 115.768 180.935C115.808 180.698 115.808 180.461 115.768 180.185L115.65 179.435Z" fill="white"/>
<path d="M85.6916 182.988L80.7971 175.962L79.2183 175.725L77.9158 184.014L79.4946 184.251L80.4419 178.251L85.1784 185.119L86.9152 185.395L88.2177 177.107L86.6783 176.87L85.6916 182.988Z" fill="white"/>
<path d="M76.4159 174.936L75.508 178.172L69.6269 176.514L69.2321 177.935L75.1133 179.593L74.6002 181.448L68.6006 179.751L68.127 181.33L75.7449 183.461L77.9947 175.409L76.4159 174.936Z" fill="white"/>
<path d="M66.8244 171.857L65.2851 171.226L62.7589 177.462L59.9565 176.317L59.325 177.857L66.5087 180.778L67.1402 179.238L64.2983 178.094L66.8244 171.857Z" fill="white"/>
<path d="M60.2328 173.712L61.1406 171.975C61.5354 171.265 61.6143 170.633 61.3775 170.081C61.1406 169.567 60.667 169.094 59.996 168.739L56.1278 166.726L55.2989 167.87L59.3644 170.002C59.6013 170.12 59.7986 170.278 59.8776 170.475C59.9565 170.673 59.917 170.91 59.7592 171.225L59.5618 171.581L54.5885 168.975L53.878 170.357C53.4833 171.067 53.4043 171.699 53.6412 172.252C53.878 172.765 54.3516 173.238 55.0621 173.594L56.9962 174.62C57.7067 174.975 58.3382 175.133 58.8908 175.014C59.3644 174.857 59.8381 174.462 60.2328 173.712ZM58.7724 172.962C58.6145 173.238 58.4566 173.396 58.2593 173.475C58.0619 173.554 57.8251 173.515 57.5488 173.357L55.6147 172.33C55.3384 172.173 55.141 172.015 55.1016 171.817C55.0621 171.62 55.1016 171.344 55.2595 171.028L55.4568 170.633L59.0092 172.488L58.7724 172.962Z" fill="white"/>
<path d="M53.8384 166.015C53.6806 165.462 53.2464 164.989 52.5754 164.515L48.944 162.107L47.9967 163.173L51.8254 165.699C52.0622 165.857 52.2201 166.015 52.2596 166.212C52.3385 166.41 52.2596 166.647 52.0622 166.923L51.8254 167.239L47.1284 164.12L46.26 165.423C45.7863 166.094 45.6679 166.726 45.8258 167.278C45.9837 167.831 46.4179 168.304 47.0889 168.778L48.9046 170.002C49.5756 170.436 50.1676 170.633 50.7597 170.594C51.3123 170.554 51.8254 170.16 52.2991 169.489L53.3648 167.87C53.8384 167.199 53.9963 166.568 53.8384 166.015ZM50.957 168.62C50.7992 168.896 50.6018 169.015 50.4045 169.094C50.2071 169.133 49.9703 169.054 49.694 168.896L47.8783 167.673C47.602 167.475 47.4441 167.318 47.4047 167.081C47.3652 166.883 47.4441 166.647 47.6415 166.331L47.8783 165.976L51.1939 168.186L50.957 168.62Z" fill="white"/>
<path d="M44.2075 161.989L42.3524 160.45C42.1945 160.292 42.0761 160.173 42.0366 160.016C41.9971 159.858 42.0761 159.7 42.2734 159.463C42.4708 159.226 42.6287 159.147 42.7471 159.147C42.905 159.147 43.0629 159.226 43.2207 159.384L46.7337 162.265C46.931 162.107 47.0889 161.95 47.2863 161.792C47.4836 161.634 47.6415 161.476 47.8389 161.318L44.0891 158.239C43.7733 158.002 43.497 157.805 43.2602 157.647C43.0234 157.489 42.7866 157.41 42.5497 157.371C42.3129 157.331 42.1156 157.371 41.9182 157.45C41.7208 157.529 41.5235 157.687 41.3261 157.963L40.8525 158.516C40.4972 158.95 40.3788 159.345 40.5367 159.779C40.6551 160.173 41.0104 160.647 41.6024 161.121L43.4576 162.66C43.6155 162.818 43.7339 162.936 43.7733 163.094C43.8128 163.252 43.7339 163.41 43.5365 163.607C43.3786 163.805 43.2207 163.923 43.0629 163.923C42.905 163.923 42.7471 163.844 42.5892 163.686L39.3526 161.042L38.2869 161.989L41.7603 164.831C42.0761 165.068 42.3524 165.265 42.5892 165.423C42.8655 165.581 43.1023 165.66 43.2997 165.699C43.5365 165.739 43.7339 165.699 43.9312 165.581C44.1286 165.502 44.3259 165.305 44.5233 165.068L44.9575 164.515C45.3127 164.081 45.4311 163.647 45.2732 163.252C45.1548 162.897 44.7996 162.463 44.2075 161.989Z" fill="white"/>
<path d="M23.209 143.675L25.5378 135.465L24.7089 134.044L17.4857 138.307L18.2751 139.688L23.5248 136.61L21.196 144.622L22.1038 146.162L29.327 141.899L28.5376 140.557L23.209 143.675Z" fill="white"/>
<path d="M23.5247 131.399L20.446 132.741L17.9988 127.176L16.6567 127.768L19.104 133.333L17.3672 134.123L14.8411 128.399L13.3412 129.07L16.4989 136.294L24.1562 132.939L23.5247 131.399Z" fill="white"/>
<path d="M13.4202 124.057L19.8145 122.044L19.3408 120.465L12.9071 122.478L11.9993 119.558L10.4204 120.031L12.7492 127.452L14.328 126.978L13.4202 124.057Z" fill="white"/>
<path d="M15.749 116.124L15.3542 116.203L14.2096 110.716L12.7097 111.032C11.9203 111.19 11.3677 111.545 11.1308 112.058C10.8545 112.571 10.8151 113.203 10.973 113.992L11.4071 116.124C11.565 116.913 11.8808 117.466 12.315 117.821C12.7492 118.176 13.3807 118.255 14.1701 118.097L16.0647 117.703C16.8541 117.545 17.4067 117.189 17.683 116.676C17.9593 116.163 17.9988 115.532 17.8409 114.742L16.9331 110.44L15.5121 110.519L16.4594 115.019C16.4989 115.295 16.4989 115.532 16.42 115.729C16.3015 115.926 16.1042 116.045 15.749 116.124ZM13.8543 116.518C13.5386 116.597 13.3017 116.558 13.1439 116.44C12.986 116.321 12.8676 116.124 12.7886 115.808L12.3544 113.677C12.2755 113.361 12.315 113.124 12.4334 112.966C12.5518 112.808 12.7886 112.69 13.1439 112.611L13.578 112.532L14.4069 116.44L13.8543 116.518Z" fill="white"/>
<path d="M12.4334 109.335L14.3675 109.137C15.1964 109.058 15.7489 108.782 16.0647 108.309C16.3805 107.835 16.4989 107.203 16.42 106.414L15.9858 102.072L14.5648 101.993L15.0385 106.572C15.0779 106.848 15.0385 107.085 14.9201 107.243C14.8016 107.401 14.5648 107.519 14.249 107.559L13.8543 107.598L13.2623 101.993L11.7229 102.151C10.894 102.23 10.3414 102.506 10.0257 103.019C9.70989 103.493 9.59147 104.125 9.67041 104.914L9.90724 107.085C9.98618 107.874 10.223 108.466 10.6177 108.861C11.0124 109.256 11.6045 109.414 12.4334 109.335ZM11.2098 104.046C11.3282 103.888 11.6045 103.809 11.9597 103.769L12.3939 103.73L12.7886 107.716L12.2755 107.756C11.9597 107.795 11.7229 107.756 11.565 107.638C11.4071 107.519 11.3282 107.282 11.2887 106.967L11.0519 104.796C11.0124 104.44 11.0519 104.204 11.2098 104.046Z" fill="white"/>
<path d="M10.1046 100.374C10.3019 100.453 10.5782 100.532 10.8545 100.532H11.565C12.1176 100.532 12.5123 100.335 12.7491 99.9797C12.9859 99.6244 13.1044 99.0718 13.1044 98.3219V95.9142C13.1044 95.6773 13.1438 95.5195 13.2228 95.401C13.3017 95.2826 13.4991 95.2432 13.7754 95.2432C14.0517 95.2432 14.249 95.2826 14.328 95.401C14.4069 95.5195 14.4464 95.6773 14.4464 95.9142V100.493C14.6832 100.532 14.92 100.572 15.1569 100.611C15.3937 100.651 15.6305 100.69 15.8673 100.73V95.8747C15.8673 95.48 15.8279 95.1247 15.7884 94.8484C15.7489 94.5722 15.67 94.2958 15.5516 94.138C15.4332 93.9406 15.2753 93.8222 15.0779 93.7038C14.8806 93.5854 14.6437 93.5459 14.328 93.5459H13.578C13.0254 93.5459 12.6307 93.7433 12.3939 94.0985C12.1571 94.4537 12.0386 95.0063 12.0386 95.7563V98.164C12.0386 98.4008 11.9992 98.5587 11.8808 98.6771C11.8018 98.7955 11.6045 98.835 11.3282 98.835C11.0519 98.835 10.8545 98.7955 10.7756 98.6771C10.6966 98.5587 10.6572 98.4008 10.6572 98.164V93.9801L9.23621 93.7433V98.2429C9.23621 98.6377 9.27567 98.9929 9.31514 99.2692C9.35461 99.5455 9.43356 99.7823 9.55197 99.9797C9.70985 100.138 9.86773 100.256 10.1046 100.374Z" fill="white"/>
<path d="M19.7355 72.5873L13.9333 70.4559L21.7485 67.0219L22.3011 65.4825L14.4464 62.6406L13.8938 64.101L19.5776 66.193L11.9202 69.5086L11.2887 71.1664L19.1829 74.0477L19.7355 72.5873Z" fill="white"/>
<path d="M23.6037 62.9171L20.6039 61.3778L23.3669 55.9702L22.0643 55.2992L19.3013 60.7068L17.6041 59.8384L20.4065 54.3124L18.9461 53.5625L15.3542 60.5883L22.8537 64.3776L23.6037 62.9171Z" fill="white"/>
<path d="M22.8537 50.4043L28.4981 54.0751L29.4059 52.733L23.7616 49.0228L25.4193 46.4572L24.0379 45.5493L19.8145 52.062L21.1959 52.9699L22.8537 50.4043Z" fill="white"/>
<path d="M27.9454 47.2468L29.4848 48.4704C30.1163 48.9835 30.7084 49.1809 31.3005 49.0624C31.8531 48.944 32.4057 48.5888 32.8793 47.9573L35.6028 44.5233L34.616 43.4576L31.7347 47.0494C31.5373 47.2863 31.3794 47.4047 31.1821 47.4441C30.9847 47.4836 30.7479 47.4047 30.4716 47.2073L30.1558 46.9705L33.6687 42.5892L32.4451 41.6024C31.8136 41.0893 31.2215 40.8919 30.6295 41.0104C30.0769 41.1288 29.5243 41.5235 29.0506 42.1155L27.6691 43.8128C27.156 44.4443 26.9192 45.0364 26.9192 45.589C26.9587 46.1811 27.2744 46.7337 27.9454 47.2468ZM28.8138 44.7206L30.1953 43.0234C30.3926 42.7866 30.59 42.6287 30.7873 42.6287C30.9847 42.6287 31.2215 42.7076 31.4978 42.9444L31.8531 43.2207L29.3664 46.3389L28.9717 46.0232C28.7349 45.8258 28.577 45.6285 28.577 45.4311C28.498 45.1943 28.6164 44.9575 28.8138 44.7206Z" fill="white"/>
<path d="M34.9712 41.6813C35.5633 42.2733 36.1159 42.5101 36.708 42.4707C37.2606 42.3917 37.8526 42.1154 38.4052 41.5234L41.484 38.4052L40.6156 37.2605L37.379 40.4971C37.1816 40.6945 36.9843 40.8129 36.7869 40.8129C36.5896 40.8524 36.3527 40.734 36.1159 40.4971L35.8396 40.2208L39.7867 36.2343L38.6815 35.1291C38.0895 34.537 37.5369 34.3002 36.9448 34.3396C36.3922 34.4186 35.8001 34.7344 35.2476 35.287L33.7082 36.8263C33.1556 37.3789 32.8398 37.971 32.8003 38.5236C32.7609 39.0762 32.9977 39.6682 33.5898 40.2603L34.9712 41.6813ZM34.7344 37.892L36.2738 36.3527C36.5106 36.1158 36.708 35.9974 36.9053 36.0369C37.1027 36.0369 37.3395 36.1553 37.5763 36.4316L37.8921 36.7474L35.0897 39.5893L34.7344 39.2341C34.4976 38.9972 34.4187 38.7999 34.3792 38.6025C34.3792 38.3262 34.4976 38.1289 34.7344 37.892Z" fill="white"/>
<path d="M39.4315 33.5109L39.8657 34.0635C40.2209 34.4977 40.6156 34.695 41.0498 34.6161C41.484 34.5766 41.9971 34.3003 42.5497 33.8267L44.4048 32.2873C44.5627 32.1294 44.7206 32.0899 44.8785 32.0505C45.0364 32.0505 45.1943 32.1689 45.3522 32.3662C45.5495 32.6031 45.589 32.7609 45.589 32.9188C45.5495 33.0767 45.4706 33.1951 45.2732 33.353L41.7603 36.2344C41.8787 36.4317 41.9971 36.6686 42.1155 36.8659C42.2339 37.0633 42.3524 37.2606 42.4708 37.4975L46.2205 34.4187C46.5363 34.1819 46.7731 33.9451 46.9705 33.7082C47.1678 33.4714 47.2862 33.2741 47.3652 33.0767C47.4441 32.8794 47.4441 32.6425 47.4046 32.4452C47.3652 32.2478 47.2468 32.011 47.0494 31.7742L46.5757 31.2216C46.2205 30.7874 45.8258 30.59 45.3916 30.669C44.9574 30.7084 44.4443 30.9847 43.8917 31.4584L42.0366 32.9978C41.8787 33.1556 41.6813 33.1951 41.5629 33.1951C41.4051 33.1951 41.2472 33.0767 41.0893 32.8794C40.9314 32.682 40.8525 32.4846 40.8525 32.3662C40.8919 32.2083 40.9709 32.0899 41.1682 31.932L44.4048 29.2875L43.6944 28.0244L40.2209 30.8663C39.9052 31.1032 39.6683 31.34 39.471 31.5768C39.2736 31.8136 39.1552 32.011 39.0763 32.2083C38.9973 32.4057 38.9973 32.6425 39.0368 32.8399C39.1157 33.0372 39.2341 33.2741 39.4315 33.5109Z" fill="white"/>
<path d="M72.8635 81.468C72.8635 78.4682 72.8635 75.4684 72.8635 72.4291C75.8633 72.4291 78.8631 72.4686 81.9024 72.4291C81.9024 71.6791 81.9024 70.9687 81.9024 70.2187C77.9947 70.1792 74.0871 70.2187 70.14 70.2187C70.14 73.9685 70.14 77.7182 70.14 81.468C71.0478 81.468 71.9557 81.468 72.8635 81.468Z" fill="white"/>
<path d="M112.058 70.2188C112.058 70.8898 112.058 71.5608 112.058 72.2712C115.058 72.3502 118.097 72.2712 121.097 72.3107C121.097 75.3105 121.097 78.3103 121.097 81.3101C122.005 81.3101 122.913 81.3101 123.781 81.3101C123.781 77.6393 123.781 73.929 123.781 70.2582C119.873 70.2188 115.966 70.2188 112.058 70.2188Z" fill="white"/>
<path d="M75.9817 74.9946C75.9422 78.5865 75.9817 82.1389 75.9817 85.7307C79.534 85.7307 83.0864 85.7307 86.6388 85.7307C86.6388 82.1389 86.6783 78.5865 86.6388 74.9946C83.0864 74.9946 79.534 74.9946 75.9817 74.9946ZM85.1389 76.4156C85.2179 79.0601 85.1389 81.7047 85.2573 84.3098C82.6523 84.3098 80.0866 84.3098 77.4816 84.3098C77.4816 81.6652 77.4816 79.0601 77.4816 76.4156C80.0472 76.4156 82.6128 76.4551 85.1389 76.4156Z" fill="white"/>
<path d="M112.098 74.9946C109.887 74.9946 107.677 74.9946 105.467 74.9946C105.467 75.7051 105.467 76.4156 105.427 77.1655C104.796 77.1655 104.124 77.1655 103.493 77.1655C103.493 77.876 103.493 78.547 103.493 79.2575C102.782 79.2575 102.111 79.2575 101.401 79.2575C101.401 77.8365 101.401 76.4551 101.401 75.0341C100.651 74.9946 99.9406 74.9946 99.1906 74.9946C99.1906 75.6656 99.1906 76.3761 99.1906 77.0866C98.5591 77.0866 97.8881 77.0866 97.2565 77.0866C97.2565 76.4156 97.2565 75.7051 97.2565 75.0341C94.4146 75.0341 91.5332 74.9946 88.6913 75.0341C88.6913 75.8235 88.6913 76.6129 88.6913 77.4024C90.7438 77.4024 92.8358 77.4024 94.8883 77.4024C94.8883 78.0339 94.8883 78.6654 94.8883 79.297C92.7174 79.297 90.5859 79.297 88.415 79.297C88.415 82.1389 88.415 84.9808 88.415 87.8227C87.7835 87.8227 87.1125 87.8227 86.481 87.8227C86.481 90.6251 86.481 93.3881 86.481 96.1906C85.8494 96.1906 85.2179 96.1906 84.5863 96.1906C84.5863 95.5196 84.5863 94.8091 84.5863 94.1381C82.376 94.1381 80.1656 94.1381 77.9157 94.1381C77.9157 94.8485 77.9157 95.559 77.9157 96.2695C77.2053 96.2695 76.4948 96.2695 75.7843 96.2695C75.7843 97.6905 75.7843 99.1114 75.7843 100.572C76.5737 100.572 77.3631 100.572 78.1526 100.572C78.1526 99.9403 78.1526 99.2693 78.192 98.6378C78.8236 98.6378 79.4551 98.6378 80.1261 98.6772C80.1261 99.3088 80.1261 99.9798 80.1261 100.611C80.8366 100.611 81.5076 100.611 82.2181 100.651C82.1786 102.072 82.2181 103.453 82.2181 104.874C82.9285 104.874 83.6785 104.874 84.389 104.874C84.389 103.374 84.389 101.874 84.389 100.374C83.718 100.374 83.0864 100.374 82.4154 100.335C82.4154 99.743 82.4154 99.1904 82.4549 98.5983C83.8759 98.5983 85.2968 98.5983 86.7178 98.5983C86.7178 97.8878 86.7178 97.2168 86.7178 96.5063C87.3098 96.5063 87.8624 96.5063 88.4545 96.5063C88.4545 97.1379 88.4545 97.8089 88.4545 98.4404C89.1255 98.4404 89.836 98.4404 90.507 98.4404C90.507 99.0719 90.507 99.7035 90.507 100.335C89.165 100.374 87.823 100.335 86.4415 100.335C86.4415 101.835 86.4415 103.335 86.4415 104.835C87.1125 104.835 87.744 104.835 88.415 104.835C88.415 106.256 88.415 107.677 88.415 109.098C89.2044 109.098 89.9939 109.098 90.7833 109.098C90.7833 107.677 90.7833 106.256 90.8228 104.835C92.1648 104.835 93.4673 104.835 94.8093 104.874C94.8093 105.506 94.8488 106.137 94.8488 106.729C94.0988 106.729 93.3884 106.729 92.6384 106.729C92.6384 108.15 92.6384 109.571 92.6384 110.992C91.2964 110.992 89.9544 110.992 88.6124 110.992C88.6124 111.703 88.6124 112.453 88.6124 113.163C90.7833 113.163 92.9147 113.203 95.0856 113.124C95.0462 111.782 95.0856 110.44 95.0461 109.098C96.3882 109.058 97.7302 109.098 99.0722 109.098C99.0722 109.729 99.0722 110.361 99.0327 110.992C98.3223 110.992 97.6118 110.992 96.9408 110.992C96.9408 111.663 96.9408 112.334 96.9408 113.005C97.6513 113.005 98.3617 113.005 99.0722 113.005C99.0722 113.755 99.0722 114.505 99.0722 115.295C96.2303 115.295 93.3884 115.295 90.5465 115.295C90.5465 116.044 90.5465 116.755 90.5465 117.505C93.4673 117.505 96.3882 117.505 99.309 117.505C99.309 116.873 99.309 116.202 99.309 115.571C99.9406 115.571 100.572 115.571 101.204 115.571C101.204 116.202 101.204 116.834 101.204 117.465C102.625 117.465 104.085 117.465 105.506 117.465C105.506 115.334 105.506 113.203 105.506 111.071C104.795 111.071 104.046 111.071 103.335 111.071C103.335 112.413 103.335 113.716 103.335 115.058C102.704 115.058 102.033 115.097 101.401 115.097C101.401 114.387 101.401 113.716 101.401 113.005C100.691 113.005 100.02 112.966 99.309 112.926C99.309 112.374 99.309 111.782 99.309 111.229C100.02 111.229 100.73 111.229 101.44 111.229C101.44 110.519 101.44 109.808 101.44 109.058C102.782 109.058 104.124 109.058 105.467 109.058C105.467 108.269 105.467 107.479 105.467 106.69C104.835 106.69 104.203 106.69 103.532 106.69C103.532 105.979 103.532 105.308 103.532 104.598C100.691 104.598 97.8486 104.598 95.0067 104.598C95.0067 103.966 95.0067 103.295 95.0067 102.664C96.4276 102.624 97.8486 102.664 99.2695 102.664C99.2695 102.032 99.2695 101.361 99.2695 100.73C100.612 100.73 101.954 100.73 103.296 100.73C103.335 101.401 103.335 102.072 103.335 102.743C103.967 102.743 104.638 102.743 105.269 102.743C105.269 103.453 105.269 104.124 105.269 104.835C106.769 104.835 108.269 104.835 109.729 104.835C109.729 104.045 109.729 103.256 109.729 102.466C108.308 102.427 106.887 102.466 105.467 102.466C105.467 101.914 105.467 101.322 105.467 100.769C106.177 100.769 106.927 100.769 107.637 100.769C107.637 98.6378 107.598 96.5063 107.637 94.3749C108.348 94.3749 109.058 94.3749 109.769 94.3749C109.769 92.2435 109.769 90.112 109.769 87.9806C110.4 87.9806 111.032 87.9806 111.663 87.9806C111.663 90.112 111.663 92.2829 111.663 94.4144C112.334 94.4144 113.045 94.4144 113.716 94.4144C113.716 95.7169 113.716 96.98 113.716 98.2825C112.295 98.2825 110.914 98.2825 109.493 98.2825C109.493 99.0719 109.493 99.8614 109.493 100.69C111.624 100.69 113.755 100.69 115.847 100.69C115.847 101.322 115.847 101.953 115.847 102.585C114.466 102.585 113.045 102.585 111.663 102.585C111.663 103.374 111.663 104.164 111.663 104.953C113.795 104.953 115.966 104.953 118.097 104.953C118.097 102.822 118.097 100.69 118.097 98.5193C117.466 98.5193 116.834 98.4799 116.203 98.4404C116.203 97.0984 116.203 95.7564 116.203 94.4144C116.834 94.4144 117.466 94.4144 118.097 94.4144C118.097 92.9145 118.097 91.4146 118.097 89.8752C116.716 89.8752 115.374 89.8752 113.992 89.8752C113.992 89.2437 113.992 88.6121 113.992 87.9806C114.703 87.9806 115.413 87.9806 116.124 87.9806C116.124 87.1912 116.124 86.4017 116.124 85.6123C114.703 85.6123 113.321 85.6123 111.9 85.6123C111.9 84.9808 111.9 84.3493 111.9 83.7177C112.611 83.7177 113.321 83.7177 114.032 83.7177C114.032 83.0467 114.032 82.4152 114.032 81.7442C114.663 81.7442 115.295 81.7442 115.926 81.7442C115.926 82.4152 115.926 83.0467 115.926 83.7177C116.676 83.7177 117.466 83.7177 118.216 83.7177C118.216 80.8363 118.255 77.9944 118.216 75.113C117.426 75.113 116.676 75.113 115.926 75.113C115.966 76.4945 115.887 77.8365 115.847 79.218C113.716 79.218 111.624 79.218 109.493 79.218C109.493 80.0469 109.493 80.9153 109.493 81.7442C110.203 81.7442 110.913 81.7442 111.585 81.7836C111.585 82.3362 111.585 82.9283 111.585 83.4809C110.164 83.4809 108.743 83.4809 107.361 83.4809C107.322 84.9018 107.361 86.3228 107.322 87.7438C106.769 87.7438 106.216 87.7438 105.664 87.7438C105.664 85.7307 105.664 83.7572 105.664 81.7442C106.295 81.7442 106.927 81.7442 107.558 81.7047C107.558 80.9153 107.558 80.1259 107.558 79.3364C106.848 79.3364 106.138 79.3364 105.427 79.3364C105.427 78.7049 105.427 78.0339 105.427 77.4024C107.558 77.4024 109.69 77.4024 111.821 77.4024C112.098 76.534 112.098 75.784 112.098 74.9946ZM82.297 98.1246C81.6655 98.1246 81.0734 98.1246 80.4419 98.1246C80.4419 97.572 80.4419 96.98 80.4419 96.4274C81.0734 96.4274 81.705 96.4274 82.297 96.4274C82.297 96.98 82.297 97.5326 82.297 98.1246ZM101.204 106.927C101.204 107.558 101.204 108.19 101.204 108.821C100.651 108.821 100.059 108.821 99.5064 108.821C99.5064 108.19 99.5064 107.558 99.5064 106.927C100.059 106.927 100.612 106.927 101.204 106.927ZM97.3749 83.5993C98.0854 83.5993 98.7959 83.5993 99.4669 83.5598C99.4669 82.2178 99.4669 80.8363 99.4669 79.4943C100.059 79.4943 100.612 79.4943 101.204 79.4943C101.204 80.1653 101.204 80.8758 101.204 81.5468C101.914 81.5863 102.625 81.5863 103.335 81.5863C103.335 82.1784 103.335 82.7309 103.335 83.323C102.704 83.323 102.033 83.323 101.401 83.323C101.401 84.0335 101.401 84.744 101.401 85.4544C100.059 85.4544 98.717 85.4544 97.3749 85.4544C97.3749 84.8229 97.3749 84.2309 97.3749 83.5993ZM103.335 87.8622C103.335 88.4937 103.335 89.1252 103.296 89.7568C102.743 89.7568 102.19 89.7568 101.638 89.7568C101.638 89.1252 101.638 88.4937 101.638 87.9017C102.19 87.8622 102.782 87.8622 103.335 87.8622ZM99.2301 87.8622C99.2301 88.4937 99.2301 89.1252 99.2301 89.7568C98.5986 89.7568 97.967 89.7568 97.3749 89.7568C97.3749 89.1252 97.3749 88.4937 97.3749 87.8622C97.967 87.8622 98.5986 87.8622 99.2301 87.8622ZM91.178 81.6258C92.52 81.5468 93.862 81.6258 95.204 81.5863C95.204 80.8758 95.204 80.2048 95.204 79.4943C95.8356 79.4943 96.4671 79.4943 97.0986 79.4943C97.0986 80.7969 97.0986 82.1389 97.0986 83.4414C95.6777 83.4414 94.2567 83.4414 92.7963 83.4414C92.7963 84.1914 92.8358 84.9413 92.8358 85.6913C93.5463 85.6913 94.2173 85.6913 94.9277 85.6913C94.9277 87.0333 94.9277 88.3753 94.9277 89.7173C94.3357 89.7173 93.7041 89.7173 93.1121 89.7173C93.1121 89.0068 93.1121 88.3358 93.1121 87.6253C92.4411 87.6253 91.7701 87.6253 91.099 87.6253C91.1385 85.6518 90.9806 83.6388 91.178 81.6258ZM90.6254 88.0595C90.6254 88.6121 90.6254 89.2042 90.6254 89.7568C90.0333 89.7568 89.4018 89.7568 88.8097 89.7568C88.8097 89.2042 88.8097 88.6516 88.8097 88.0595C89.4413 88.0595 90.0333 88.0595 90.6254 88.0595ZM92.7963 102.388C92.2043 102.427 91.5727 102.427 90.9806 102.427C90.9806 101.835 90.9806 101.243 90.9806 100.69C91.6122 100.69 92.2042 100.69 92.8358 100.69C92.7963 101.243 92.7963 101.795 92.7963 102.388ZM105.427 98.1246C103.453 98.1246 101.48 98.1246 99.5064 98.1246C99.5064 97.4931 99.4669 96.8221 99.4669 96.1906C98.6775 96.1906 97.8881 96.1906 97.0986 96.1906C97.0986 97.572 97.0986 98.9141 97.0986 100.296C96.4671 100.296 95.8356 100.296 95.204 100.256C95.204 99.5456 95.204 98.8351 95.2435 98.1641C94.533 98.1641 93.8226 98.1641 93.1121 98.1641C93.1121 97.4536 93.1121 96.7432 93.1121 96.0327C91.6911 96.0327 90.2702 96.0327 88.8492 95.9932C88.8492 94.7301 88.8492 93.4671 88.8492 92.204C90.9017 92.204 92.9542 92.204 95.0067 92.204C95.0067 92.875 95.0067 93.5855 95.0067 94.2565C96.5066 94.2565 98.0065 94.2565 99.5064 94.2565C99.5459 92.8355 99.5064 91.4146 99.5459 90.0331C100.098 90.0331 100.651 90.0331 101.204 90.0331C101.204 90.7436 101.204 91.4146 101.204 92.125C102.625 92.125 104.046 92.125 105.427 92.125C105.427 92.796 105.467 93.4276 105.467 94.0986C104.085 94.0986 102.743 94.0986 101.362 94.0986C101.362 94.8485 101.362 95.638 101.362 96.3879C102.743 96.3879 104.085 96.3879 105.467 96.3879C105.467 96.98 105.427 97.5326 105.427 98.1246ZM116.124 92.125C116.163 92.7566 116.163 93.3486 116.163 93.9802C115.532 93.9802 114.861 93.9802 114.229 93.9802C114.229 93.3486 114.229 92.7171 114.229 92.0856C114.861 92.125 115.492 92.125 116.124 92.125ZM105.782 90.0331C106.374 90.0331 107.006 90.0331 107.598 90.0331C107.598 90.5857 107.598 91.1777 107.598 91.7303C107.006 91.7303 106.374 91.7303 105.782 91.7303C105.782 91.1777 105.782 90.5857 105.782 90.0331Z" fill="white"/>
<path d="M84.31 77.2842C82.297 77.2842 80.2445 77.2842 78.2314 77.2842C78.2314 79.3367 78.2314 81.3892 78.2314 83.4416C80.2839 83.4416 82.297 83.4416 84.31 83.4416C84.3495 81.3892 84.3495 79.3367 84.31 77.2842Z" fill="white"/>
<path d="M75.9817 87.6255C75.9817 88.4149 75.9817 89.2043 75.9817 90.0332C76.6527 90.0332 77.3632 90.0332 78.0342 90.0332C78.0737 90.7437 78.0737 91.4147 78.0737 92.1252C78.8631 92.1252 79.6525 92.1252 80.4419 92.1252C80.4419 91.4542 80.4419 90.7437 80.4419 90.0727C81.0735 90.0727 81.705 90.0727 82.3365 90.0727C82.3365 90.7437 82.3365 91.4542 82.3365 92.1252C83.047 92.1252 83.7575 92.1252 84.5074 92.1252C84.5074 90.6253 84.5074 89.1254 84.5074 87.6255C83.0865 87.6255 81.626 87.6255 80.2051 87.6255C80.2051 88.336 80.2051 89.007 80.2051 89.7175C79.5736 89.7175 78.942 89.7175 78.3105 89.7175C78.3105 89.007 78.3105 88.336 78.3105 87.6255C77.4816 87.6255 76.7316 87.6255 75.9817 87.6255Z" fill="white"/>
<path d="M75.9421 104.796C77.4026 104.796 78.863 104.796 80.3629 104.796C80.3629 104.006 80.3629 103.217 80.3629 102.427C78.9025 102.427 77.442 102.427 75.9816 102.427C75.9421 103.217 75.9421 104.006 75.9421 104.796Z" fill="white"/>
<path d="M86.6389 106.769C83.0865 106.611 79.5341 106.69 75.9817 106.769C75.9817 110.321 75.9817 113.913 75.9817 117.466C79.5341 117.466 83.0865 117.466 86.6389 117.466C86.6389 113.874 86.6389 110.321 86.6389 106.769ZM77.5211 116.045C77.4027 113.439 77.4421 110.874 77.4816 108.269C80.0867 108.269 82.6523 108.269 85.2574 108.269C85.2574 110.874 85.2574 113.439 85.2574 116.045C82.6918 116.045 80.0867 116.045 77.5211 116.045Z" fill="white"/>
<path d="M107.637 117.426C111.269 117.466 114.861 117.505 118.492 117.387C118.492 113.834 118.492 110.282 118.492 106.69C114.861 106.69 111.269 106.69 107.637 106.69C107.637 110.242 107.637 113.834 107.637 117.426ZM109.177 108.308C111.782 108.269 114.348 108.229 116.953 108.348C117.032 110.913 116.992 113.479 116.992 116.045C114.387 116.084 111.782 116.084 109.177 116.045C109.177 113.439 109.177 110.874 109.177 108.308Z" fill="white"/>
<path d="M78.2314 115.137C80.2839 115.137 82.297 115.137 84.3495 115.137C84.3495 113.084 84.3495 111.032 84.3495 108.979C82.297 108.979 80.2839 108.979 78.2314 108.979C78.2314 111.032 78.2314 113.084 78.2314 115.137Z" fill="white"/>
<path d="M116.045 109.019C114.071 109.019 112.098 109.019 110.124 109.019C110.124 111.072 110.124 113.085 110.124 115.137C112.098 115.137 114.071 115.137 116.084 115.137C116.045 113.085 116.045 111.032 116.045 109.019Z" fill="white"/>
<path d="M81.9023 120.979C78.9025 120.979 75.8633 120.979 72.8635 120.979C72.8635 117.979 72.8635 114.979 72.8635 111.979C71.9556 111.979 71.0873 111.979 70.1794 111.979C70.1794 115.927 70.1794 119.913 70.1794 123.86C74.0871 123.86 77.9947 123.86 81.9418 123.86C81.9023 122.873 81.9023 121.926 81.9023 120.979Z" fill="white"/>
<path d="M121.097 111.94C121.097 114.9 121.097 117.861 121.097 120.821C118.097 120.86 115.058 120.821 112.058 120.821C112.058 121.768 112.058 122.716 112.058 123.663C115.966 123.663 119.873 123.663 123.821 123.663C123.821 119.755 123.821 115.848 123.821 111.94C122.913 111.94 122.005 111.94 121.097 111.94Z" fill="white"/>
<path d="M150.385 102.625C150.424 102.309 150.424 101.954 150.424 101.638L150.661 97.0198L149.99 96.9803L150.661 96.9408L150.424 92.3622C150.424 92.0464 150.385 91.7306 150.345 91.3754L150.108 89.7966C149.753 86.5205 148.529 79.7709 144.306 71.6794C144.03 71.1268 143.675 70.5742 143.319 70.0216C143.122 69.7058 142.925 69.4295 142.727 69.0743C142.53 68.798 142.372 68.4822 142.175 68.1664C141.819 67.5744 141.464 66.9823 141.03 66.4297C140.675 65.9561 140.28 65.4429 139.925 64.9693C139.017 63.7457 138.07 62.4431 136.964 61.338C135.307 59.4039 133.294 57.4698 130.886 55.5357L133.294 52.3386L129.781 49.7335L125.084 46.8126C124.807 46.6547 124.531 46.4574 124.136 46.26L122.913 45.668C122.439 45.4706 122.005 45.2338 121.531 44.997C120.347 44.4049 118.966 43.7339 117.545 43.2602L114.584 42.1945C113.795 41.9182 113.045 41.7209 112.335 41.563C111.979 41.4841 111.624 41.4051 111.308 41.2867C106.453 39.9052 101.125 39.55 97.0198 39.3921H96.9408H96.8619C92.7569 39.55 87.4283 39.8657 82.5734 41.2867C82.2181 41.3656 81.8629 41.4841 81.5077 41.563C80.7972 41.7603 80.0078 41.9182 79.2183 42.1945L76.4159 43.2208C74.8765 43.6944 73.495 44.3654 72.3109 44.9575C71.8373 45.1943 71.3636 45.4312 70.89 45.668L69.6269 46.26C69.3111 46.4179 69.0348 46.5758 68.7585 46.7732L64.7325 49.2204L60.588 52.2991L62.9958 55.4963C60.588 57.4303 58.575 59.3644 56.9567 61.259C55.812 62.4037 54.8647 63.7062 53.9569 64.9298C53.6017 65.4429 53.207 65.9166 52.8517 66.3903C52.4175 66.9428 52.0623 67.5744 51.707 68.1664C51.5097 68.4822 51.3518 68.798 51.1545 69.1138C50.9571 69.4295 50.7992 69.7453 50.6019 70.0216C50.2466 70.5742 49.9309 71.1268 49.6151 71.6794C45.3917 79.7709 44.1681 86.481 43.8128 89.7571L43.576 91.3754C43.5366 91.6912 43.5366 92.0464 43.4971 92.3622L43.2603 96.9408L43.9313 96.9803L43.2603 97.0198L43.4971 101.638C43.4971 101.954 43.5366 102.269 43.576 102.625L43.8128 104.203C44.1681 107.48 45.3917 114.229 49.6151 122.321C49.8914 122.873 50.2466 123.426 50.6019 123.978C50.7992 124.294 50.9966 124.571 51.1939 124.926C51.3913 125.202 51.5492 125.518 51.7465 125.834C52.1018 126.426 52.457 127.018 52.8912 127.57C53.2464 128.044 53.6411 128.557 53.9964 129.031C54.9042 130.254 55.8515 131.557 56.9567 132.662C58.6145 134.596 60.6275 136.53 63.0352 138.464L60.667 141.661L64.1799 144.267L68.8769 147.187C69.1532 147.345 69.4295 147.543 69.8242 147.74L71.0478 148.332C71.5215 148.529 71.9557 148.766 72.4293 149.003C73.6135 149.595 74.9949 150.266 76.4159 150.74L79.3762 151.806C80.1262 152.082 80.9156 152.279 81.6261 152.437C81.9813 152.516 82.3366 152.595 82.6523 152.713C87.5073 154.095 92.8358 154.45 96.9408 154.608H97.0198H97.0987C101.204 154.45 106.532 154.134 111.387 152.713C111.742 152.634 112.098 152.516 112.453 152.437C113.203 152.24 113.953 152.082 114.742 151.806L117.545 150.779C119.084 150.306 120.466 149.635 121.65 149.003C122.123 148.766 122.597 148.529 123.11 148.293L124.373 147.701C124.689 147.543 124.965 147.385 125.242 147.187L129.268 144.74L133.412 141.661L131.044 138.464C133.451 136.53 135.425 134.596 137.083 132.702C138.227 131.557 139.175 130.254 140.083 129.031C140.438 128.518 140.833 128.044 141.188 127.57C141.622 127.018 141.977 126.386 142.332 125.794C142.53 125.478 142.688 125.163 142.885 124.847C143.082 124.531 143.24 124.215 143.438 123.939C143.793 123.386 144.109 122.834 144.424 122.281C148.648 114.19 149.871 107.48 150.227 104.203L150.385 102.625ZM149.082 102.467L148.845 104.085C148.49 107.282 147.306 113.834 143.201 121.729C142.925 122.281 142.609 122.794 142.254 123.307C142.056 123.623 141.859 123.939 141.701 124.215C141.504 124.531 141.306 124.847 141.109 125.163C140.754 125.715 140.438 126.268 140.043 126.781C139.648 127.255 139.293 127.768 138.899 128.281C138.03 129.465 137.122 130.728 135.978 131.833C134.399 133.728 132.465 135.583 130.136 137.438L130.096 137.399L126.228 140.28L122.281 142.688C122.123 142.806 121.926 142.885 121.847 142.964L120.742 143.517C120.229 143.753 119.716 143.99 119.202 144.267C118.137 144.819 116.992 145.372 115.729 145.766L112.848 146.832C112.335 147.03 111.742 147.148 111.111 147.306C110.716 147.385 110.322 147.503 109.887 147.622C105.624 148.845 100.77 149.161 96.9803 149.279C93.1911 149.161 88.3362 148.845 84.0338 147.582C83.6391 147.464 83.2444 147.385 82.8102 147.266C82.1787 147.108 81.5866 146.951 81.0735 146.793L78.0342 145.688C76.8896 145.332 75.7449 144.78 74.6792 144.227C74.1661 143.951 73.6529 143.714 73.1793 143.517L72.1136 143.003C71.9162 142.925 71.7583 142.806 71.6004 142.688L68.2454 140.635L63.8246 137.399L63.7852 137.438C61.4564 135.543 59.5223 133.688 57.904 131.794C56.8383 130.689 55.891 129.465 55.0226 128.281C54.6279 127.768 54.2727 127.255 53.878 126.781C53.4832 126.268 53.1675 125.755 52.8517 125.163C52.6544 124.847 52.457 124.531 52.2991 124.215C52.1018 123.899 51.9044 123.584 51.707 123.268C51.3913 122.755 51.036 122.202 50.7597 121.689C46.6153 113.795 45.4312 107.243 45.1154 104.046L44.8786 102.467C44.8391 102.151 44.8391 101.875 44.8391 101.559L44.6023 96.9803L44.8391 92.4016C44.8391 92.1253 44.8786 91.8096 44.8786 91.5333L45.1154 89.915C45.4706 86.7178 46.6548 80.1656 50.7597 72.2714C51.036 71.7188 51.3518 71.2057 51.707 70.6926C51.9044 70.3768 52.1018 70.0611 52.2597 69.7848C52.457 69.469 52.6544 69.1532 52.8517 68.8374C53.1675 68.2849 53.5227 67.7323 53.878 67.2191C54.2727 66.7455 54.6279 66.2324 55.0226 65.7192C55.891 64.5351 56.7988 63.272 57.9435 62.1669C59.5223 60.2722 61.4564 58.4171 63.7852 56.562L63.8246 56.6014L67.6928 53.7201L71.6399 51.3123C71.7978 51.1939 71.9951 51.115 72.0741 51.036L73.1793 50.4834C73.6924 50.2466 74.2055 50.0098 74.7187 49.7335C75.7844 49.1809 76.929 48.6283 78.1921 48.2336L81.0735 47.1679C81.5866 46.9705 82.1787 46.8521 82.8102 46.6942C83.2049 46.6153 83.5996 46.4969 84.0338 46.3785C88.2967 45.1548 93.1516 44.8391 96.9408 44.7207C100.73 44.8391 105.585 45.1549 109.887 46.4179C110.282 46.5363 110.677 46.6153 111.111 46.7337C111.742 46.8916 112.335 47.0495 112.848 47.2073L115.887 48.3125C117.032 48.6678 118.176 49.2204 119.242 49.773C119.755 50.0493 120.268 50.2861 120.742 50.4834L121.808 50.9966C122.005 51.0755 122.163 51.1939 122.321 51.3123L125.676 53.3648L130.136 56.6014L130.175 56.562C132.504 58.4566 134.438 60.3117 136.057 62.2063C137.122 63.3115 138.07 64.5351 138.938 65.7192C139.333 66.2324 139.688 66.7455 140.083 67.2191C140.477 67.7323 140.793 68.2454 141.109 68.8374C141.306 69.1532 141.504 69.469 141.661 69.7848C141.859 70.1005 142.056 70.4163 142.254 70.7321C142.569 71.2452 142.925 71.7978 143.201 72.3109C147.345 80.2051 148.529 86.7573 148.845 89.9544L149.082 91.4938C149.121 91.8096 149.121 92.1253 149.121 92.4016L149.358 96.9803L149.121 101.559C149.121 101.875 149.082 102.19 149.082 102.467Z" fill="white"/>
<path d="M161.989 104.914C162.107 104.203 162.226 103.493 162.226 102.861L162.542 97.0197L162.029 96.9802L162.542 96.9408L162.226 91.1385C162.226 90.4675 162.107 89.7965 161.989 89.086C161.95 88.7308 161.871 88.3755 161.831 88.0203L161.279 84.4284C161.16 83.5996 160.923 82.7312 160.687 81.8628C160.568 81.3892 160.41 80.8761 160.292 80.3629L160.055 79.4156C159.779 78.271 159.463 77.0868 158.989 75.9422C157.45 71.1267 155.082 66.1928 152.003 61.4958L152.161 59.9564L153.858 58.8907C153.819 58.8512 153.661 58.5749 153.384 58.2197L151.648 55.8909C150.74 54.6278 149.437 52.9306 147.78 51.2333L146.319 49.5756L140.714 44.3259L136.254 40.9709C135.543 40.3788 134.794 39.9446 134.083 39.5104L131.202 37.7737C125.281 34.3397 118.018 31.5373 111.19 30.0374C109.335 29.6822 107.598 29.4453 106.256 29.248C105.546 29.1296 104.914 29.0506 104.282 28.9322C103.69 28.8533 103.177 28.8533 102.743 28.8138C102.585 28.8138 102.427 28.8138 102.23 28.7743L101.559 28.7349L101.401 31.6952C94.2568 31.2215 88.2572 31.932 84.1917 32.7214C78.3895 34.024 73.1398 35.7212 69.469 37.5764C68.8375 37.8921 68.2849 38.1684 67.7323 38.4053C66.8639 38.8394 66.114 39.1947 65.5219 39.5104L64.2194 40.2999L60.5881 42.5102L55.3384 46.4179C55.0226 46.6547 54.7464 46.931 54.4306 47.2073L50.8387 50.4834C50.1677 51.1544 49.5362 51.8649 48.8652 52.5753C48.4705 53.0095 48.1152 53.4042 47.681 53.8384C44.9181 56.9961 41.2078 61.8905 38.1291 68.1269L35.4845 66.8638L34.182 69.5874C34.0241 69.9031 33.8662 70.2189 33.7083 70.6136L31.7742 75.8632C30.5506 79.8103 28.4587 87.823 28.4192 96.9802C28.4587 106.138 30.5506 114.15 31.8137 118.176L33.7083 123.386C33.8267 123.742 34.0241 124.097 34.1425 124.373L35.445 127.097L38.0896 125.834C41.2078 132.109 44.8786 136.964 47.681 140.122C48.0758 140.556 48.4705 140.99 48.8257 141.385C49.4967 142.135 50.1282 142.846 50.7993 143.517L54.3516 146.753C54.6674 147.029 54.9437 147.306 55.2595 147.582L60.2328 151.292L64.101 153.661L65.443 154.45C65.9956 154.766 66.7455 155.082 67.6139 155.516C68.127 155.753 68.7191 156.029 69.3111 156.345C72.982 158.2 78.2316 159.897 84.0338 161.2C87.1915 161.792 91.5333 162.384 96.6646 162.384C98.125 162.384 99.6249 162.344 101.204 162.226L101.362 165.186L102.112 165.147C102.23 165.147 102.388 165.147 102.546 165.107C102.98 165.107 103.493 165.068 104.204 164.989C104.756 164.91 105.388 164.791 106.098 164.712C107.44 164.515 109.137 164.278 111.071 163.884C117.86 162.423 125.123 159.621 131.044 156.147L133.886 154.411C134.596 153.976 135.346 153.542 135.978 152.99L140.359 149.714L144.938 145.53L147.543 142.727C149.24 140.99 150.503 139.254 151.45 137.991L153.187 135.662C153.542 135.188 153.7 134.912 153.7 134.912L151.135 133.372C154.529 128.36 157.134 123.11 158.792 117.939C159.305 116.755 159.581 115.571 159.858 114.426L160.094 113.479C160.213 112.966 160.331 112.492 160.489 112.019C160.726 111.111 160.963 110.282 161.081 109.453L161.634 105.861C161.871 105.624 161.95 105.269 161.989 104.914ZM161.2 102.861C161.2 103.453 161.081 104.085 161.002 104.756C160.963 105.111 160.884 105.466 160.844 105.822L160.292 109.414C160.173 110.203 159.937 111.032 159.7 111.861C159.581 112.334 159.423 112.848 159.305 113.361L159.068 114.308C158.792 115.413 158.516 116.558 158.042 117.742C156.424 122.834 153.819 128.044 150.464 132.978C150.424 133.017 150.345 133.136 150.187 133.372L148.411 135.741C147.503 136.964 146.398 138.504 144.819 140.083L142.846 142.253L138.07 146.674L133.688 149.95C133.215 150.345 132.623 150.7 131.991 151.095L129.189 152.792C123.623 156.029 116.795 158.673 110.479 160.055C108.703 160.371 107.085 160.607 105.703 160.844C105.032 160.923 104.48 161.042 104.006 161.121C103.69 161.16 103.375 161.2 103.059 161.2C102.901 161.2 102.704 161.2 102.585 161.239C102.348 161.239 102.151 161.239 102.033 161.279H101.322V161.318C94.2568 161.792 88.3362 161.081 84.3891 160.292C78.6658 159.029 73.4951 157.331 69.9032 155.516C69.2717 155.2 68.7191 154.924 68.1665 154.687C67.2981 154.253 66.5877 153.937 66.0351 153.661L64.7325 152.871L61.1407 150.661L56.0094 146.872C55.7331 146.635 55.4174 146.358 55.1411 146.082L51.5887 142.846C50.9571 142.214 50.3256 141.504 49.6546 140.754C49.2599 140.319 48.9046 139.885 48.5099 139.49C45.7864 136.372 42.1551 131.596 39.0764 125.439L39.1553 125.399L38.0501 123.11C37.9712 122.952 37.8922 122.794 37.8133 122.636C37.6949 122.439 37.6159 122.202 37.537 122.005L35.6819 116.913C33.6688 110.558 32.5242 103.296 32.5242 97.0197C32.5637 90.7043 33.7083 83.4417 35.6819 77.2053L37.5765 72.074C37.6554 71.8372 37.7738 71.6004 37.8922 71.403C37.9712 71.2451 38.0501 71.0873 38.0896 70.9688L39.2343 68.6006L39.1553 68.5611C42.1946 62.4036 45.8259 57.6276 48.5494 54.5094C48.9441 54.0752 49.3388 53.6411 49.6941 53.2463C50.3651 52.5359 50.9966 51.8254 51.5887 51.1939L55.1411 47.9572C55.4174 47.6809 55.7331 47.4046 56.0094 47.2073L60.9038 43.5365L64.772 41.1682L66.0745 40.3788C66.6271 40.1025 67.3376 39.7473 68.206 39.3131C68.7191 39.0763 69.3112 38.8 69.9427 38.4842C73.574 36.6685 78.7053 34.9713 84.4286 33.7082C88.4151 32.9583 94.3358 32.2083 101.401 32.682V32.7214L102.033 32.7609C102.19 32.7609 102.427 32.8004 102.625 32.8004C102.783 32.8004 102.94 32.8004 103.098 32.8398C103.414 32.8793 103.73 32.8793 104.046 32.9188C104.559 32.9977 105.111 33.0767 105.743 33.1951C107.164 33.3924 108.743 33.6293 110.479 33.945C116.874 35.3265 123.702 37.9711 129.228 41.1682L132.07 42.905C132.702 43.2602 133.294 43.6154 133.846 44.0891L138.149 47.3257L141.859 50.7202L144.938 53.9568C146.437 55.5357 147.582 57.0356 148.49 58.2592L150.266 60.6669C150.424 60.8643 150.503 61.0221 150.542 61.0616C153.898 65.9955 156.463 71.2057 158.081 76.3369C158.555 77.4421 158.831 78.5867 159.108 79.7314L159.345 80.6787C159.463 81.1918 159.621 81.705 159.739 82.1786C159.976 83.047 160.173 83.8364 160.331 84.6258L160.884 88.2177C160.923 88.5729 161.002 88.9676 161.042 89.3229C161.16 89.9939 161.279 90.6254 161.239 91.2569L161.515 97.0592L161.2 102.861Z" fill="white"/>
<path d="M146.793 87.5466C146.753 87.1519 146.674 86.5993 146.477 86.0467L145.727 83.0864C145.569 82.4154 145.372 81.6654 145.095 80.9944L144.148 78.4288L142.175 74.0475L141.306 74.4817C139.964 71.8766 138.306 69.2715 136.412 66.8243L137.201 66.2323L136.806 65.6796C136.728 65.6007 136.688 65.5218 136.609 65.4034C136.372 65.0876 136.096 64.6929 135.701 64.2982L133.688 62.0878C133.215 61.5747 132.662 60.9826 132.07 60.4695C131.636 60.1142 131.241 59.7195 130.846 59.3643C129.86 58.4565 128.952 57.6276 128.123 57.075L126.268 55.6935L125.676 56.5224C124.413 55.654 123.15 54.8251 121.847 54.0752C120.544 53.3252 119.202 52.6148 117.821 51.9832L118.255 51.0754L117.466 50.7201C117.11 50.5228 116.597 50.286 116.005 50.0886L113.321 49.1018C112.611 48.8255 111.821 48.5492 110.992 48.3914C110.4 48.2729 109.808 48.1151 109.256 47.9572C108.032 47.6414 106.887 47.3256 105.94 47.2467L103.651 46.8915L103.493 47.9177C100.177 47.4835 97.0986 47.444 94.4146 47.5625L94.3752 46.5757L91.928 46.6941C90.9806 46.8125 89.836 47.0099 88.6124 47.2072L86.8757 47.4835L86.7178 47.523C86.0862 47.6809 85.4152 47.8388 84.8232 47.9966C83.6785 48.2729 82.6128 48.5492 81.6655 48.8255L79.4946 49.615L79.8498 50.5228C78.5078 50.9964 77.2447 51.549 76.179 52.0622C75.7054 52.299 75.2712 52.4963 74.8765 52.6937C74.2055 53.0095 73.6529 53.2858 73.1792 53.5226L72.1924 54.1146L72.5082 54.6278L72.1924 54.1146L69.1927 55.9303L65.7981 58.4565L65.285 58.9301L64.5745 58.1407L62.2852 60.2327C61.8905 60.5879 61.4958 60.9431 61.0221 61.4168L59.2065 63.3903C58.1408 64.4561 57.2724 65.6797 56.5619 66.627C56.3251 66.9427 56.1277 67.219 55.8909 67.5348C55.733 67.7321 55.6146 67.9295 55.4962 68.0874C55.2199 68.4426 55.0226 68.7584 54.8647 68.9952L54.5489 69.5478L55.4173 70.0609C53.9174 72.3502 52.4175 75.0343 51.1544 78.113L50.2071 77.7578L49.4177 79.9682C49.3387 80.205 49.2598 80.4023 49.1808 80.6786C48.9835 81.1917 48.7861 81.7049 48.5888 82.3364L47.9178 84.9415C47.4441 86.4414 47.2468 87.9808 47.0494 89.2044L46.6547 91.8489C46.6152 92.3226 46.6152 92.5989 46.6152 92.5989H47.602C47.4441 94.0988 47.4047 95.5987 47.4047 97.0986C47.4047 98.5985 47.4836 100.098 47.602 101.598H46.6152C46.6152 101.598 46.6152 101.875 46.6547 102.427L47.0494 105.032C47.2468 106.256 47.4441 107.795 47.9178 109.256L48.6283 111.979C48.8256 112.532 49.023 113.084 49.1808 113.558C49.2598 113.795 49.3782 114.032 49.4572 114.268L50.2466 116.439L51.1939 116.084C52.4569 119.123 53.9568 121.847 55.4567 124.136L54.5884 124.689L54.9041 125.241C55.062 125.478 55.2989 125.794 55.5357 126.149C55.6541 126.307 55.812 126.504 55.9699 126.741C56.1672 127.018 56.404 127.294 56.6014 127.61C57.3119 128.557 58.2197 129.781 59.2065 130.807L61.1011 132.899C61.5353 133.293 61.93 133.688 62.3247 134.043L64.614 136.135L65.285 135.385L65.5218 135.583L69.3111 138.385L72.2319 140.161L72.5082 139.727L72.2319 140.161L73.2582 140.793C73.6923 141.03 74.2449 141.306 74.9159 141.622C75.3107 141.819 75.7448 142.017 76.2185 142.253C77.2842 142.767 78.5078 143.319 79.8893 143.793L79.534 144.701L81.7839 145.529C82.6523 145.766 83.718 146.043 84.8626 146.358C85.4942 146.516 86.1257 146.674 86.7572 146.832L88.6519 147.148C89.8755 147.345 91.0201 147.503 92.0858 147.661L94.4146 147.779L94.4541 146.793C95.2435 146.832 96.0724 146.872 96.9408 146.872C98.9933 146.872 101.204 146.753 103.532 146.437L103.69 147.464L105.901 147.108C106.927 147.029 108.111 146.714 109.295 146.358C109.848 146.201 110.44 146.043 111.032 145.924C111.861 145.727 112.65 145.451 113.361 145.174L116.005 144.227C116.637 144.03 117.15 143.753 117.505 143.595L118.295 143.24L117.86 142.332C119.242 141.701 120.584 140.99 121.886 140.24C123.189 139.49 124.492 138.662 125.715 137.793L126.307 138.622L128.123 137.28C129.031 136.688 129.939 135.859 130.886 134.951C131.281 134.596 131.715 134.201 132.109 133.846C132.741 133.333 133.294 132.741 133.767 132.188L135.741 130.017C136.135 129.583 136.451 129.189 136.688 128.873C136.767 128.754 136.846 128.675 136.925 128.557L137.32 128.044L136.53 127.452C138.425 124.965 140.043 122.399 141.425 119.794L142.293 120.229L143.674 117.387L145.214 113.321C145.53 112.571 145.727 111.821 145.885 111.19L146.635 108.269C146.832 107.637 146.911 107.124 146.951 106.729L147.108 105.822L146.122 105.664C146.161 105.387 146.201 105.072 146.24 104.795C146.437 103.69 146.595 102.664 146.635 101.717L146.872 97.2959H146.556H146.872L146.635 92.8357C146.556 91.9279 146.398 90.8621 146.24 89.757C146.201 89.4807 146.161 89.2044 146.122 88.8886L147.108 88.7307L146.793 87.5466ZM145.411 89.5991C145.609 90.7437 145.766 91.7305 145.806 92.5989L146.043 97.0196L145.806 101.44C145.766 102.309 145.609 103.296 145.411 104.44C145.372 104.716 145.332 105.032 145.293 105.309L144.306 105.151L144.148 106.098C144.109 106.453 144.03 106.848 143.911 107.322L143.161 110.282C143.003 110.913 142.846 111.505 142.609 112.098L141.346 115.532L139.806 118.808L140.714 119.242C139.372 121.807 137.754 124.373 135.899 126.82L135.109 126.228L134.754 126.702C134.675 126.82 134.557 126.939 134.478 127.097C134.28 127.373 134.083 127.649 133.767 127.965L131.754 130.175C131.32 130.649 130.886 131.162 130.373 131.596C129.939 131.991 129.504 132.386 129.07 132.78C128.202 133.609 127.373 134.359 126.583 134.872L124.728 136.254L125.32 137.043C124.097 137.912 122.834 138.74 121.571 139.451C120.268 140.201 118.926 140.911 117.584 141.503L117.15 140.596L116.36 140.99C116.045 141.148 115.65 141.346 115.137 141.503L112.453 142.49C111.821 142.727 111.15 142.964 110.479 143.122C109.848 143.28 109.256 143.438 108.664 143.595C107.558 143.911 106.532 144.187 105.624 144.266L103.335 144.622L103.493 145.608C100.217 146.043 97.1776 146.082 94.533 145.964L94.5725 144.937L92.3621 144.819C91.4148 144.701 90.3096 144.503 89.086 144.345L87.3888 144.069C86.7572 143.911 86.1257 143.753 85.5336 143.595C84.4285 143.319 83.4022 143.043 82.6523 142.845L80.4814 142.056L80.1261 143.003C78.7841 142.53 77.5605 142.017 76.5343 141.503C76.0606 141.267 75.6264 141.069 75.2317 140.872C74.5607 140.556 74.0081 140.28 73.6134 140.082L72.6266 139.49L69.6663 137.714L66.2718 135.188L65.7981 134.754L66.4297 134.043L64.1404 131.951C63.7851 131.636 63.3904 131.28 63.0352 130.965L61.18 128.912C60.2722 127.965 59.4828 126.899 58.7723 125.952C58.5355 125.636 58.2987 125.32 58.1013 125.084C57.9434 124.886 57.7855 124.689 57.6671 124.491C57.4698 124.215 57.3119 124.018 57.1935 123.82L56.8777 123.268L56.0488 123.781C54.5884 121.531 53.0885 118.887 51.8649 115.847L52.7727 115.492L51.9833 113.321C51.9044 113.084 51.7859 112.848 51.707 112.571C51.5491 112.137 51.3518 111.624 51.1939 111.19L50.4834 108.506C50.0887 107.203 49.8913 105.822 49.694 104.598C49.6545 104.282 49.615 103.927 49.5361 103.651L49.2993 102.032C49.2598 101.717 49.2598 101.559 49.2598 101.519H48.2335C48.0757 100.019 48.0362 98.5195 48.0362 97.0196C48.0362 95.5197 48.1151 94.0198 48.2335 92.5199H49.2598C49.2598 92.4805 49.2598 92.3226 49.2993 92.0858L49.5361 90.428C49.5756 90.1122 49.615 89.7964 49.694 89.4807C49.8913 88.2571 50.0887 86.9151 50.4834 85.5336L51.1544 82.968C51.3123 82.4548 51.5096 81.9812 51.6675 81.5075C51.7465 81.2312 51.8649 80.9944 51.9438 80.797L52.7332 78.6261L51.8254 78.2709C53.0885 75.2711 54.5489 72.6266 56.0093 70.3372L56.8382 70.8504L57.154 70.2978C57.2724 70.1004 57.4303 69.903 57.6276 69.6267C57.7461 69.4294 57.9039 69.232 58.0618 69.0742C58.2592 68.7979 58.496 68.4821 58.7328 68.1663C59.4433 67.219 60.2327 66.1533 61.18 65.1665L62.9562 63.193C63.3509 62.7983 63.7457 62.443 64.1009 62.1273L66.3902 60.0353L65.7192 59.2854L65.8771 59.1275L69.5874 56.3645L72.5082 54.5883L73.495 53.9962C73.9292 53.7594 74.4818 53.5226 75.1528 53.2068C75.5475 53.0095 75.9817 52.8121 76.4553 52.5753C77.521 52.0622 78.7052 51.549 80.0472 51.0754L80.4024 52.0227L82.4944 51.2333C83.3233 50.9964 84.389 50.7201 85.4547 50.4438C86.0468 50.286 86.6783 50.1281 87.3098 49.9702L89.0071 49.6939C90.1912 49.4965 91.3359 49.3387 92.1648 49.2202L94.4936 49.1018L94.4541 48.0756C97.0986 47.9572 100.138 47.9966 103.414 48.4308L103.256 49.4176L105.624 49.7728C106.453 49.8518 107.48 50.1281 108.585 50.4438C109.177 50.6017 109.808 50.7596 110.44 50.9175C111.111 51.0754 111.742 51.3122 112.413 51.549L115.137 52.5358C115.611 52.6937 115.966 52.891 116.321 53.0489L117.11 53.4436L117.545 52.5358C118.926 53.1673 120.229 53.8384 121.531 54.5883C122.834 55.3383 124.057 56.1277 125.281 56.996L124.689 57.7854L126.623 59.2064C127.333 59.6801 128.162 60.4695 129.07 61.2589C129.504 61.6536 129.899 62.0483 130.373 62.443C130.846 62.8377 131.32 63.3509 131.754 63.8245L133.807 66.0744C134.083 66.3507 134.28 66.6664 134.478 66.9032C134.596 67.0611 134.675 67.1795 134.715 67.2585L135.109 67.7716L135.899 67.1796C137.754 69.6268 139.372 72.1529 140.714 74.758L139.806 75.1922L141.267 78.192L142.648 81.9812C142.885 82.5338 143.003 83.1258 143.161 83.7574C143.201 83.9942 143.28 84.231 143.319 84.4284L143.911 86.7966C144.03 87.2308 144.109 87.6255 144.148 87.9808L144.306 88.9281L145.293 88.7702C145.332 89.007 145.372 89.3228 145.411 89.5991Z" fill="white"/>
<path d="M154.687 108.111C154.687 108.269 154.647 108.388 154.647 108.506L155.239 108.624C155.279 108.506 155.279 108.348 155.279 108.23L155.753 105.23L155.16 105.151L154.687 108.111Z" fill="white"/>
<path d="M155.54 101.717L155.484 102.86L156.076 102.888L156.131 101.745L155.54 101.717Z" fill="white"/>
<path d="M134.872 141.938C134.596 142.175 134.359 142.372 134.083 142.609L134.478 143.083C134.754 142.846 134.991 142.648 135.267 142.412L135.346 142.333L134.912 141.898L134.872 141.938Z" fill="white"/>
<path d="M136.688 140.32L137.083 140.793C138.306 139.688 139.412 138.662 140.398 137.517L139.925 137.123C138.977 138.228 137.872 139.215 136.688 140.32Z" fill="white"/>
<path d="M142.293 134.478L141.069 135.82L141.543 136.215L142.53 135.109L143.753 133.531L143.28 133.175L142.293 134.478Z" fill="white"/>
<path d="M111.9 153.819C111.15 154.055 110.361 154.253 109.532 154.411L109.65 155.003C110.479 154.805 111.269 154.608 112.058 154.371C112.729 154.213 113.44 154.016 114.15 153.779L113.992 153.187C113.282 153.463 112.571 153.661 111.9 153.819Z" fill="white"/>
<path d="M115.611 152.753L115.808 153.345C116.874 152.989 117.979 152.595 119.045 152.161L118.808 151.608C117.781 151.963 116.676 152.358 115.611 152.753Z" fill="white"/>
<path d="M129.465 146.003L129.82 146.516C130.807 145.885 131.754 145.214 132.662 144.503L132.307 144.03C131.399 144.701 130.452 145.372 129.465 146.003Z" fill="white"/>
<path d="M120.939 150.661L121.176 151.214C121.531 151.056 121.887 150.898 122.242 150.74L121.965 150.188C121.65 150.345 121.294 150.503 120.939 150.661Z" fill="white"/>
<path d="M124.057 149.161L124.334 149.714C125.715 149.003 127.057 148.253 128.36 147.424L128.044 146.911C126.741 147.701 125.399 148.451 124.057 149.161Z" fill="white"/>
<path d="M153.463 113.282C153.384 113.637 153.266 114.032 153.108 114.545L153.7 114.742C153.858 114.229 153.976 113.795 154.055 113.44L154.884 110.282L154.292 110.124L153.463 113.282Z" fill="white"/>
<path d="M103.453 155.437C102.782 155.555 102.19 155.555 101.717 155.555C101.48 155.555 101.243 155.555 101.046 155.595L100.414 155.634L100.454 156.226L101.085 156.187C101.283 156.187 101.48 156.147 101.717 156.147C102.19 156.147 102.822 156.108 103.532 155.989C103.651 155.95 103.809 155.95 103.927 155.91L103.809 155.318C103.73 155.397 103.611 155.397 103.453 155.437Z" fill="white"/>
<path d="M148.648 125.123L147.858 126.426C147.622 126.781 147.424 127.136 147.187 127.531C146.99 127.886 146.793 128.202 146.556 128.557L147.069 128.873C147.266 128.518 147.503 128.202 147.701 127.846C147.937 127.491 148.135 127.136 148.372 126.741L149.161 125.439C149.279 125.241 149.358 125.044 149.437 124.886L148.885 124.61C148.806 124.768 148.727 124.926 148.648 125.123Z" fill="white"/>
<path d="M144.661 131.359L145.135 131.715C145.372 131.399 145.609 131.083 145.806 130.767L145.293 130.412C145.135 130.728 144.898 131.044 144.661 131.359Z" fill="white"/>
<path d="M150.464 121.295L149.635 122.992L150.187 123.268L151.016 121.571C151.253 121.137 151.45 120.663 151.687 120.15L151.135 119.913C150.937 120.426 150.7 120.86 150.464 121.295Z" fill="white"/>
<path d="M106.177 155.042L106.256 155.634C106.611 155.595 107.006 155.516 107.401 155.476L107.322 154.884C106.927 154.924 106.532 154.963 106.177 155.042Z" fill="white"/>
<path d="M152.279 116.795C152.161 117.111 152.042 117.426 151.924 117.782L152.516 117.979C152.634 117.663 152.753 117.347 152.871 117.032L152.911 116.913L152.358 116.716L152.279 116.795Z" fill="white"/>
<path d="M96.9803 155.832L94.5726 155.713L94.5331 156.305L96.9408 156.424L96.9803 156.108V156.424L99.388 156.305V155.713L96.9803 155.832Z" fill="white"/>
<path d="M91.1423 155.551L91.1129 156.142L92.2562 156.199L92.2856 155.607L91.1423 155.551Z" fill="white"/>
<path d="M85.4942 154.687L85.3757 155.279C85.4941 155.319 85.652 155.319 85.7704 155.319L88.7703 155.792L88.8492 155.2L85.8099 154.726C85.731 154.726 85.6126 154.687 85.4942 154.687Z" fill="white"/>
<path d="M47.4836 129.86C48.1152 130.847 48.7862 131.794 49.4967 132.702L49.9703 132.346C49.2993 131.439 48.6283 130.491 47.9968 129.544L47.4836 129.86Z" fill="white"/>
<path d="M51.3913 134.123L50.9176 134.517C51.115 134.794 51.3518 135.03 51.5886 135.307L51.6676 135.386L52.1017 134.951L52.0228 134.872C51.8254 134.636 51.6281 134.399 51.3913 134.123Z" fill="white"/>
<path d="M53.6805 136.728L53.2463 137.122C54.3515 138.346 55.3778 139.451 56.5224 140.438L56.9171 139.964C55.7725 139.017 54.7857 137.912 53.6805 136.728Z" fill="white"/>
<path d="M44.2865 124.373C44.997 125.754 45.7469 127.096 46.5758 128.399L47.0889 128.083C46.2995 126.82 45.5496 125.478 44.8391 124.097L44.2865 124.373Z" fill="white"/>
<path d="M58.1803 141.109L57.7461 141.583L58.8513 142.569L60.4301 143.793L60.7854 143.319L59.5223 142.332L58.1803 141.109Z" fill="white"/>
<path d="M40.142 111.94C39.9052 111.19 39.7078 110.4 39.55 109.571L38.9579 109.69C39.1552 110.519 39.3526 111.308 39.5894 112.097C39.7473 112.768 39.9447 113.479 40.1815 114.189L40.7736 114.032C40.5367 113.321 40.3394 112.611 40.142 111.94Z" fill="white"/>
<path d="M38.5632 103.493C38.4843 102.822 38.4448 102.23 38.4448 101.756C38.4448 101.519 38.4448 101.283 38.4053 101.085L38.3659 100.493L37.7738 100.533L37.8133 101.164C37.8133 101.362 37.8528 101.559 37.8528 101.796C37.8528 102.269 37.8922 102.901 38.0106 103.611C38.0501 103.73 38.0501 103.888 38.0896 104.006L38.6816 103.888C38.6027 103.769 38.5632 103.651 38.5632 103.493Z" fill="white"/>
<path d="M40.6552 115.847C41.0104 116.913 41.4051 118.018 41.8788 119.123L42.4313 118.887C41.9972 117.821 41.6025 116.716 41.2472 115.65L40.6552 115.847Z" fill="white"/>
<path d="M42.7866 121.215C42.9445 121.571 43.1024 121.926 43.2603 122.281L43.8129 122.005C43.655 121.65 43.4971 121.294 43.3392 120.979L42.7866 121.215Z" fill="white"/>
<path d="M38.9579 106.216L38.3658 106.295C38.4053 106.65 38.4843 107.045 38.5237 107.44L39.1158 107.361C39.0763 106.966 38.9974 106.572 38.9579 106.216Z" fill="white"/>
<path d="M79.4552 153.147L79.2578 153.74C79.7709 153.897 80.2051 154.016 80.5604 154.095L83.718 154.924L83.8759 154.332L80.6788 153.503C80.363 153.424 79.9288 153.305 79.4552 153.147Z" fill="white"/>
<path d="M62.2853 145.174C62.601 145.411 62.9168 145.648 63.2326 145.845L63.5878 145.332C63.272 145.135 62.9563 144.898 62.68 144.661L62.2853 145.174Z" fill="white"/>
<path d="M76.2185 151.963L76.0211 152.555C76.3369 152.674 76.6527 152.792 76.9684 152.911L77.0868 152.95L77.2842 152.398L77.1658 152.358C76.85 152.2 76.5342 152.082 76.2185 151.963Z" fill="white"/>
<path d="M67.5744 147.898C67.2192 147.661 66.8639 147.464 66.4692 147.227C66.114 147.029 65.7982 146.832 65.443 146.595L65.1272 147.108C65.4824 147.306 65.7982 147.543 66.1534 147.74C66.5087 147.977 66.9034 148.174 67.2586 148.411L68.5612 149.2C68.7585 149.319 68.9559 149.398 69.1532 149.477L69.4295 148.924C69.2322 148.845 69.0743 148.727 68.8769 148.648L67.5744 147.898Z" fill="white"/>
<path d="M70.9689 149.674L70.6926 150.226L72.3899 151.055C72.8241 151.292 73.2977 151.529 73.8108 151.726L74.0477 151.174C73.5345 150.976 73.1004 150.74 72.6662 150.503L70.9689 149.674Z" fill="white"/>
<path d="M38.1685 97.02L38.2869 94.6122L37.6948 94.5728L37.5764 96.9805L37.8527 97.02H37.5764L37.6948 99.4277H38.2869L38.1685 97.02Z" fill="white"/>
<path d="M37.838 91.1712L37.7817 92.3145L38.3731 92.3436L38.4294 91.2003L37.838 91.1712Z" fill="white"/>
<path d="M39.2342 85.8891C39.2342 85.7312 39.2737 85.6128 39.2737 85.4944L38.6816 85.376C38.6421 85.4944 38.6422 85.6523 38.6027 85.7707L38.129 88.7705L38.7211 88.8494L39.2342 85.8891Z" fill="white"/>
<path d="M64.4561 48.0361L64.1404 47.5229C63.1536 48.1545 62.2063 48.8255 61.2985 49.536L61.6537 50.0096C62.5615 49.3386 63.5088 48.6676 64.4561 48.0361Z" fill="white"/>
<path d="M69.9032 44.8783L69.6269 44.3257C68.2454 45.0362 66.9034 45.7861 65.6008 46.615L65.9166 47.1281C67.1797 46.3387 68.5217 45.5888 69.9032 44.8783Z" fill="white"/>
<path d="M49.2993 62.68L48.8257 62.3247C48.5888 62.6405 48.352 62.9563 48.1547 63.272L48.6678 63.6273C48.8257 63.272 49.0625 62.9957 49.2993 62.68Z" fill="white"/>
<path d="M57.2724 53.7202L56.8777 53.2466C55.6541 54.3518 54.5489 55.378 53.5621 56.5227L54.0358 56.9174C54.9831 55.8122 56.0488 54.8254 57.2724 53.7202Z" fill="white"/>
<path d="M59.0882 52.1017C59.3645 51.8649 59.6013 51.6675 59.8776 51.4307L59.4829 50.957C59.2066 51.1939 58.9697 51.3912 58.6934 51.628L58.6145 51.707L59.0487 52.1412L59.0882 52.1017Z" fill="white"/>
<path d="M82.0603 40.1812C82.8102 39.9444 83.5996 39.747 84.4285 39.5891L84.3101 38.9971C83.4812 39.1944 82.6918 39.3918 81.9024 39.6286C81.2314 39.7865 80.5209 39.9838 79.8104 40.2207L80.0078 40.8127C80.6788 40.5759 81.3498 40.3786 82.0603 40.1812Z" fill="white"/>
<path d="M78.3499 41.2864L78.1526 40.6943C77.0868 41.0496 75.9817 41.4443 74.8765 41.8785L75.1133 42.4311C76.179 42.0363 77.2842 41.6416 78.3499 41.2864Z" fill="white"/>
<path d="M72.9819 43.3783L72.745 42.8257C72.3898 42.9836 72.0346 43.1415 71.6793 43.2993L71.9161 43.8519C72.3109 43.694 72.6661 43.5362 72.9819 43.3783Z" fill="white"/>
<path d="M51.6281 59.5618L52.8517 58.2198L52.4175 57.7856L51.4308 58.8908L50.2072 60.4697L50.6808 60.8249L51.6281 59.5618Z" fill="white"/>
<path d="M87.7836 38.9973L87.7046 38.4053C87.3494 38.4447 86.9546 38.5237 86.5599 38.5632L86.6389 39.1552C87.0336 39.1157 87.4283 39.0368 87.7836 38.9973Z" fill="white"/>
<path d="M90.4676 38.6029C91.1386 38.4845 91.7306 38.4845 92.2043 38.4845C92.4411 38.4845 92.6779 38.4845 92.8753 38.445L93.5068 38.4055L93.4673 37.8135L92.8358 37.8529C92.6385 37.8529 92.4411 37.8924 92.2043 37.8924C91.7306 37.8924 91.0991 37.9319 90.3886 38.0503C90.2702 38.0898 90.1123 38.0898 89.9939 38.1292L90.0728 38.7213C90.1913 38.6424 90.3491 38.6029 90.4676 38.6029Z" fill="white"/>
<path d="M41.6419 77.2056C41.7603 76.8898 41.8787 76.5741 41.9972 76.2188L41.4051 76.0215C41.2867 76.3373 41.1683 76.653 41.0498 76.9688L41.0104 77.0872L41.563 77.2846L41.6419 77.2056Z" fill="white"/>
<path d="M40.4973 80.7573C40.5762 80.4021 40.6946 80.0074 40.8525 79.4942L40.2604 79.2969C40.1025 79.81 39.9841 80.2442 39.9052 80.5994L39.0763 83.7571L39.6684 83.915L40.4973 80.7573Z" fill="white"/>
<path d="M45.3127 68.9167L46.1022 67.6142C46.339 67.259 46.5363 66.9037 46.7732 66.509C46.9705 66.1538 47.1679 65.838 47.4047 65.4828L46.8916 65.167C46.6942 65.5222 46.4969 65.838 46.26 66.1932C46.0232 66.5485 45.8259 66.9037 45.589 67.2984L44.7996 68.601C44.6812 68.7983 44.6023 68.9957 44.5233 69.1536L45.0759 69.4299C45.1154 69.272 45.2338 69.0746 45.3127 68.9167Z" fill="white"/>
<path d="M43.4575 72.7055L44.2864 71.0082L43.7338 70.7319L42.9049 72.4292C42.6681 72.8634 42.4707 73.337 42.2339 73.8501L42.7865 74.087C43.0233 73.6133 43.2207 73.1397 43.4575 72.7055Z" fill="white"/>
<path d="M96.9803 38.2078L99.388 38.3262V37.7341L96.9803 37.6157V37.892L96.9408 37.6157L94.5331 37.7341L94.5726 38.3262L96.9803 38.2078Z" fill="white"/>
<path d="M108.466 39.3523L108.585 38.7602C108.466 38.7207 108.308 38.7207 108.19 38.7207L105.19 38.2471L105.111 38.8391L108.151 39.3128C108.23 39.3128 108.348 39.3128 108.466 39.3523Z" fill="white"/>
<path d="M101.705 37.8545L101.676 38.4458L102.819 38.5035L102.849 37.9122L101.705 37.8545Z" fill="white"/>
<path d="M146.437 64.1798C145.806 63.193 145.135 62.2457 144.424 61.3379L143.951 61.6931C144.622 62.601 145.293 63.5483 145.924 64.4956L146.437 64.1798Z" fill="white"/>
<path d="M142.569 59.8773L143.043 59.4826C142.806 59.2063 142.609 58.9695 142.372 58.6932L142.293 58.6143L141.859 59.0484L141.938 59.1274C142.135 59.3642 142.332 59.6405 142.569 59.8773Z" fill="white"/>
<path d="M149.674 69.6662C148.964 68.2847 148.214 66.9427 147.385 65.6401L146.872 65.9559C147.661 67.219 148.411 68.561 149.122 69.9425L149.674 69.6662Z" fill="white"/>
<path d="M140.28 57.3118L140.754 56.9171C139.648 55.6935 138.622 54.5883 137.477 53.6016L137.083 54.0752C138.188 55.0225 139.175 56.0882 140.28 57.3118Z" fill="white"/>
<path d="M153.266 78.1921C152.911 77.1264 152.516 76.0212 152.082 74.916L151.529 75.1528C151.963 76.2185 152.358 77.3237 152.713 78.3895L153.266 78.1921Z" fill="white"/>
<path d="M155.003 87.8232L155.595 87.7443C155.555 87.389 155.476 86.9943 155.437 86.5996L154.845 86.6786C154.884 87.0733 154.924 87.468 155.003 87.8232Z" fill="white"/>
<path d="M155.397 90.5073C155.516 91.1783 155.516 91.7703 155.516 92.244C155.516 92.4808 155.516 92.7176 155.555 92.915L155.595 93.5071L156.187 93.4676L156.147 92.8361C156.147 92.6387 156.108 92.4413 156.108 92.2045C156.108 91.7309 156.068 91.0993 155.95 90.3889C155.91 90.2704 155.91 90.1126 155.871 89.9941L155.279 90.1126C155.358 90.231 155.358 90.3889 155.397 90.5073Z" fill="white"/>
<path d="M153.779 82.0994C154.016 82.8494 154.213 83.6388 154.371 84.4677L154.963 84.3493C154.766 83.5204 154.568 82.731 154.332 81.9416C154.174 81.2706 153.976 80.5601 153.74 79.8496L153.147 80.0075C153.424 80.718 153.621 81.389 153.779 82.0994Z" fill="white"/>
<path d="M135.78 52.8911L136.175 52.4569L135.07 51.4702L133.491 50.2466L133.136 50.7202L134.438 51.6675L135.78 52.8911Z" fill="white"/>
<path d="M151.174 72.7845C151.016 72.4292 150.858 72.074 150.7 71.7188L150.148 71.995C150.306 72.3503 150.463 72.7055 150.621 73.0213L151.174 72.7845Z" fill="white"/>
<path d="M114.505 40.8919L114.703 40.2999C114.19 40.142 113.756 40.0236 113.4 39.9446L110.243 39.1157L110.085 39.7078L113.282 40.5367C113.598 40.6156 114.032 40.734 114.505 40.8919Z" fill="white"/>
<path d="M117.742 42.0761L117.939 41.4841C117.624 41.3657 117.308 41.2472 116.992 41.1288L116.874 41.0894L116.676 41.6419L116.795 41.6814C117.071 41.8393 117.387 41.9577 117.742 42.0761Z" fill="white"/>
<path d="M131.675 48.8258C131.36 48.589 131.044 48.3521 130.728 48.1548L130.373 48.6679C130.689 48.8653 131.004 49.1021 131.281 49.3389L131.675 48.8258Z" fill="white"/>
<path d="M122.992 44.3259L123.268 43.7733L121.571 42.9444C121.136 42.7076 120.663 42.4708 120.15 42.2734L119.873 42.8655C120.387 43.0629 120.821 43.2997 121.255 43.5365L122.992 44.3259Z" fill="white"/>
<path d="M126.347 46.1413C126.702 46.3782 127.057 46.5755 127.452 46.8124C127.807 47.0097 128.123 47.2071 128.478 47.4439L128.794 46.9308C128.439 46.7334 128.123 46.4966 127.768 46.2992C127.412 46.0624 127.057 45.865 126.702 45.6282L125.399 44.8388C125.202 44.7204 125.005 44.6414 124.847 44.5625L124.57 45.1151C124.768 45.194 124.926 45.3125 125.123 45.3914L126.347 46.1413Z" fill="white"/>
<path d="M156.266 94.5728L155.674 94.6122L155.792 97.02L155.674 99.4277H156.266L156.384 97.02H156.068L156.384 96.9805L156.266 94.5728Z" fill="white"/>
<path d="M119.716 164.042L119.913 164.673L122.439 163.765L122.202 163.134L119.716 164.042Z" fill="white"/>
<path d="M98.7565 167.752L98.7959 168.423L101.48 168.304L101.44 167.633L98.7565 167.752Z" fill="white"/>
<path d="M114.584 165.542L114.742 166.213L117.347 165.542L117.189 164.871L114.584 165.542Z" fill="white"/>
<path d="M167.802 97.0123L167.666 99.6929L168.336 99.727L168.472 97.0464L167.802 97.0123Z" fill="white"/>
<path d="M110.558 166.528L109.414 166.686L109.532 167.357L110.677 167.199C111.111 167.16 111.584 167.041 112.177 166.884L112.019 166.252C111.427 166.37 110.953 166.449 110.558 166.528Z" fill="white"/>
<path d="M165.62 114.19L165.305 115.453L165.936 115.611L166.252 114.348C166.37 113.913 166.489 113.479 166.607 113.045L165.976 112.887C165.857 113.321 165.739 113.756 165.62 114.19Z" fill="white"/>
<path d="M162.344 124.373C162.186 124.768 161.989 125.163 161.831 125.518L162.423 125.794C162.62 125.4 162.818 125.005 162.976 124.571L163.449 123.268L162.818 123.031L162.344 124.373Z" fill="white"/>
<path d="M167.436 104.282L167.318 104.993L167.989 105.111L168.107 104.361L168.225 102.388L167.554 102.348L167.436 104.282Z" fill="white"/>
<path d="M126.426 161.397C126.189 161.515 125.913 161.634 125.676 161.752C125.36 161.91 125.044 162.068 124.689 162.226L124.965 162.818C125.281 162.66 125.636 162.502 125.952 162.344C126.189 162.226 126.465 162.107 126.702 161.989L127.373 161.673L127.097 161.081L126.426 161.397Z" fill="white"/>
<path d="M166.918 107.597L166.508 110.25L167.171 110.352L167.581 107.699L166.918 107.597Z" fill="white"/>
<path d="M163.726 120.545L164.357 120.782L165.147 118.65L165.265 118.216L164.634 118.058L163.726 120.545Z" fill="white"/>
<path d="M104.282 167.475H104.125L104.164 168.146L106.848 167.752L106.73 167.12L104.282 167.475Z" fill="white"/>
<path d="M153.7 139.293L154.253 139.688C154.805 138.978 155.318 138.228 155.832 137.517L155.279 137.123C154.766 137.873 154.253 138.583 153.7 139.293Z" fill="white"/>
<path d="M147.069 147.109L146.753 147.424L147.227 147.898L147.543 147.582C148.056 147.03 148.569 146.477 149.082 145.924L148.569 145.49C148.095 146.043 147.582 146.556 147.069 147.109Z" fill="white"/>
<path d="M150.385 143.477L150.898 143.911C151.49 143.24 152.042 142.53 152.595 141.819L152.082 141.385C151.529 142.135 150.937 142.806 150.385 143.477Z" fill="white"/>
<path d="M130.767 159.305L129.544 159.897L129.82 160.489L131.083 159.897C131.478 159.7 131.833 159.463 132.228 159.226L131.873 158.634C131.517 158.871 131.123 159.068 130.767 159.305Z" fill="white"/>
<path d="M156.739 134.912L157.292 135.267C157.766 134.517 158.239 133.728 158.713 132.978L158.121 132.623C157.726 133.412 157.253 134.162 156.739 134.912Z" fill="white"/>
<path d="M138.583 154.253L138.977 154.805C139.688 154.292 140.398 153.74 141.109 153.187L140.714 152.674C140.004 153.187 139.293 153.74 138.583 154.253Z" fill="white"/>
<path d="M134.162 157.252L134.517 157.805C135.267 157.331 136.017 156.818 136.767 156.345L136.372 155.792C135.662 156.305 134.912 156.779 134.162 157.252Z" fill="white"/>
<path d="M159.463 130.373L160.055 130.649L161.239 128.242L160.647 127.926L159.463 130.373Z" fill="white"/>
<path d="M142.767 150.976L143.201 151.49C143.872 150.897 144.582 150.345 145.253 149.713L144.819 149.2C144.148 149.832 143.477 150.384 142.767 150.976Z" fill="white"/>
<path d="M29.919 119.755L29.2875 119.952L30.1953 122.478H30.2348L30.8268 122.242L29.919 119.755Z" fill="white"/>
<path d="M36.1554 134.557C36.629 135.307 37.1422 136.057 37.6158 136.807L38.1684 136.412C37.6553 135.662 37.1816 134.912 36.708 134.162L36.1554 134.557Z" fill="white"/>
<path d="M32.2478 125.715C32.0899 125.4 31.932 125.084 31.7741 124.768L31.1426 125.044C31.3005 125.36 31.4583 125.715 31.6162 126.031C31.7346 126.268 31.853 126.544 31.9715 126.781L32.2872 127.452L32.8793 127.176L32.5635 126.505C32.4846 126.229 32.3662 125.952 32.2478 125.715Z" fill="white"/>
<path d="M34.1031 129.583L33.511 129.86L34.1031 131.123C34.3004 131.518 34.5372 131.873 34.7741 132.268L35.3661 131.912C35.1293 131.518 34.9319 131.162 34.7346 130.807L34.1031 129.583Z" fill="white"/>
<path d="M27.2745 109.414L26.6035 109.532L26.8009 110.677C26.8403 111.111 26.9587 111.584 27.1166 112.177L27.7482 112.019C27.5903 111.427 27.5113 110.992 27.4719 110.558L27.2745 109.414Z" fill="white"/>
<path d="M39.1947 139.017C39.7078 139.727 40.2604 140.438 40.813 141.148L41.3261 140.754C40.7735 140.043 40.2209 139.333 39.7078 138.622L39.1947 139.017Z" fill="white"/>
<path d="M30.5506 122.36L30.2348 122.479H30.1953L30.5506 122.36Z" fill="white"/>
<path d="M26.2174 98.7798L25.5472 98.814L25.6838 101.494L26.3539 101.46L26.2174 98.7798Z" fill="white"/>
<path d="M26.5244 104.321L26.485 104.164L25.814 104.203L26.2087 106.887L26.8797 106.769L26.5244 104.321Z" fill="white"/>
<path d="M27.7876 114.782L28.4586 117.387L29.0901 117.229L28.4191 114.624L27.7876 114.782Z" fill="white"/>
<path d="M68.4821 161.831L68.2058 162.423C68.6005 162.62 68.9952 162.818 69.4294 162.976L70.732 163.449L70.9688 162.818L69.6662 162.344C69.232 162.226 68.8373 162.028 68.4821 161.831Z" fill="white"/>
<path d="M83.6996 166.566L83.5986 167.229L86.2521 167.633L86.353 166.97L83.6996 166.566Z" fill="white"/>
<path d="M73.1792 164.397L75.3106 165.186L75.7448 165.305L75.9027 164.673L73.416 163.765L73.1792 164.397Z" fill="white"/>
<path d="M78.5079 165.344L78.35 165.976L79.6131 166.292C80.0472 166.41 80.4814 166.528 80.9156 166.647L81.0735 166.015C80.6393 165.897 80.2051 165.778 79.7315 165.66L78.5079 165.344Z" fill="white"/>
<path d="M89.0071 167.357L88.8887 168.028L89.6386 168.146L91.6122 168.265V167.594L89.7176 167.475L89.0071 167.357Z" fill="white"/>
<path d="M94.2963 168.383L96.9408 168.541L96.9803 167.87L94.2963 167.712V168.383Z" fill="white"/>
<path d="M42.5103 143.24C43.1023 143.911 43.6549 144.622 44.2864 145.293L44.7996 144.859C44.2075 144.188 43.6154 143.517 43.0628 142.846L42.5103 143.24Z" fill="white"/>
<path d="M50.0492 150.937C50.7202 151.529 51.4307 152.082 52.1412 152.634L52.5753 152.121C51.8649 151.568 51.1938 151.016 50.5228 150.424L50.0492 150.937Z" fill="white"/>
<path d="M63.6434 159.513L63.3518 160.117L65.7693 161.283L66.0609 160.679L63.6434 159.513Z" fill="white"/>
<path d="M46.5758 146.792L46.1022 147.266L46.4179 147.582C46.9705 148.095 47.5231 148.608 48.0757 149.121L48.5099 148.608C47.9573 148.095 47.4047 147.582 46.8916 147.069L46.5758 146.792Z" fill="white"/>
<path d="M54.2726 154.292C54.9831 154.844 55.733 155.358 56.4435 155.871L56.8382 155.318C56.1277 154.805 55.3778 154.292 54.6673 153.739L54.2726 154.292Z" fill="white"/>
<path d="M58.6934 157.371C59.4433 157.845 60.2327 158.318 60.9827 158.792L61.3379 158.2C60.588 157.726 59.838 157.292 59.0881 156.779L58.6934 157.371Z" fill="white"/>
<path d="M67.5348 32.6426C67.7717 32.5242 68.0479 32.4058 68.2848 32.2874C68.6005 32.1295 68.9163 31.9716 69.2715 31.8137L68.9953 31.2217C68.6795 31.3796 68.3243 31.5375 68.0085 31.6953C67.7717 31.8137 67.4954 31.9322 67.2585 32.0506L66.5875 32.3663L66.8638 32.9584L67.5348 32.6426Z" fill="white"/>
<path d="M63.1931 34.7344L64.4167 34.1424L64.1404 33.5503L62.8773 34.1424C62.4826 34.3397 62.1274 34.5765 61.7327 34.8134L62.0879 35.4054C62.4431 35.1686 62.8378 34.9318 63.1931 34.7344Z" fill="white"/>
<path d="M74.245 29.9582L74.0082 29.3267L71.5215 30.2345L71.7583 30.866L74.245 29.9582Z" fill="white"/>
<path d="M59.7986 36.787L59.4433 36.2344C58.6934 36.708 57.9434 37.2211 57.1935 37.6948L57.5882 38.2474C58.2987 37.7343 59.0486 37.2606 59.7986 36.787Z" fill="white"/>
<path d="M55.3778 39.787L54.9831 39.2344C54.2726 39.7475 53.5227 40.3001 52.8517 40.8527L53.2464 41.3658C53.9569 40.8132 54.6673 40.3001 55.3778 39.787Z" fill="white"/>
<path d="M95.2041 26.2481L95.1646 25.5771L92.4806 25.735L92.5201 26.406L95.2041 26.2481Z" fill="white"/>
<path d="M79.2077 27.8204L76.6085 28.4897L76.7759 29.1395L79.3751 28.4701L79.2077 27.8204Z" fill="white"/>
<path d="M89.6782 26.564L89.8361 26.5245L89.7966 25.8535L87.1125 26.2482L87.1915 26.9192L89.6782 26.564Z" fill="white"/>
<path d="M83.4022 27.511L84.5469 27.3531L84.4285 26.6821L83.2838 26.84C82.8496 26.8795 82.376 26.9979 81.7839 27.1558L81.9418 27.7873C82.5339 27.6689 82.9681 27.5505 83.4022 27.511Z" fill="white"/>
<path d="M26.4851 89.7571L26.6035 89.0466L25.9325 88.9282L25.8535 89.6782L25.7351 91.6517L26.4061 91.6912L26.4851 89.7571Z" fill="white"/>
<path d="M26.7458 83.6443L26.337 86.2969L27.0002 86.3991L27.409 83.7464L26.7458 83.6443Z" fill="white"/>
<path d="M25.573 94.3356L25.4387 97.0161L26.1089 97.0497L26.2431 94.3691L25.573 94.3356Z" fill="white"/>
<path d="M30.2348 73.4556L29.6033 73.2188L28.8139 75.3502L28.656 75.7844L29.327 75.9422L30.2348 73.4556Z" fill="white"/>
<path d="M31.6163 69.6661C31.7742 69.2714 31.9715 68.8767 32.1294 68.5214L31.5374 68.2451C31.34 68.6398 31.1426 69.0345 30.9848 69.4687L30.5111 70.7713L31.1426 71.0081L31.6163 69.6661Z" fill="white"/>
<path d="M28.3402 79.8101L28.656 78.547L27.985 78.3892L27.6692 79.6522C27.5508 80.0864 27.4324 80.5206 27.314 80.9548L27.9455 81.1127C28.1034 80.7179 28.2218 80.2838 28.3402 79.8101Z" fill="white"/>
<path d="M51.1544 43.0629L50.7202 42.5498C50.0492 43.1419 49.3387 43.6945 48.6677 44.326L49.1019 44.8391C49.8124 44.2076 50.4834 43.6155 51.1544 43.0629Z" fill="white"/>
<path d="M33.8694 63.3712L32.6997 65.7871L33.3037 66.0795L34.4734 63.6636L33.8694 63.3712Z" fill="white"/>
<path d="M40.2605 54.7067L39.7079 54.312C39.1553 55.0225 38.6422 55.7724 38.129 56.4829L38.6816 56.8776C39.1947 56.1671 39.7079 55.4172 40.2605 54.7067Z" fill="white"/>
<path d="M43.576 50.5226L43.0628 50.0884C42.4708 50.7594 41.9182 51.4699 41.3656 52.1803L41.8787 52.6145C42.4313 51.9041 42.9839 51.233 43.576 50.5226Z" fill="white"/>
<path d="M46.8916 46.931L47.2073 46.6153L46.7337 46.1416L46.4179 46.4574C45.9048 47.01 45.3917 47.5626 44.8785 48.1152L45.3917 48.5493C45.8653 47.9967 46.3784 47.4441 46.8916 46.931Z" fill="white"/>
<path d="M37.1817 59.0881L36.6291 58.7329C36.1554 59.4829 35.6818 60.2328 35.2081 61.0222L35.8002 61.3775C36.2344 60.588 36.708 59.8381 37.1817 59.0881Z" fill="white"/>
<path d="M157.766 59.4828C157.292 58.7328 156.779 57.9829 156.305 57.2329L155.753 57.6276C156.266 58.3776 156.739 59.1275 157.213 59.8775L157.766 59.4828Z" fill="white"/>
<path d="M163.41 71.64L163.686 71.561H163.726L163.41 71.64Z" fill="white"/>
<path d="M159.858 64.456L160.45 64.1797L159.858 62.9166C159.66 62.5219 159.423 62.1667 159.187 61.772L158.594 62.1272C158.831 62.5219 159.029 62.8772 159.226 63.2324L159.858 64.456Z" fill="white"/>
<path d="M161.713 68.3247C161.871 68.6405 162.029 68.9562 162.186 69.3115L162.778 69.0352C162.621 68.7194 162.463 68.3642 162.305 68.0484C162.186 67.8116 162.068 67.5353 161.95 67.2984L161.634 66.6274L161.042 66.9037L161.358 67.5747C161.476 67.8116 161.594 68.0484 161.713 68.3247Z" fill="white"/>
<path d="M164.002 74.2845L164.634 74.0477L163.726 71.561H163.686L163.094 71.7979L164.002 74.2845Z" fill="white"/>
<path d="M165.522 76.6548L164.872 76.8228L165.544 79.4214L166.194 79.2535L165.522 76.6548Z" fill="white"/>
<path d="M168.273 92.503L167.603 92.5371L167.74 95.2177L168.41 95.1835L168.273 92.503Z" fill="white"/>
<path d="M167.436 89.7175V89.8754L168.107 89.8359L167.712 87.1519L167.081 87.2703L167.436 89.7175Z" fill="white"/>
<path d="M166.647 84.5862L167.318 84.4678L167.16 83.3231C167.081 82.889 167.002 82.4153 166.844 81.8232L166.212 81.9811C166.37 82.5732 166.449 83.0074 166.489 83.4415L166.647 84.5862Z" fill="white"/>
<path d="M135.267 36.6685C134.517 36.1949 133.767 35.7212 132.978 35.2476L132.623 35.8396C133.373 36.3133 134.122 36.7474 134.872 37.2606L135.267 36.6685Z" fill="white"/>
<path d="M99.6643 25.6559L96.9803 25.498L96.9408 26.1691L99.6248 26.2875L99.6643 25.6559Z" fill="white"/>
<path d="M115.453 28.6951L115.611 28.0636L114.348 27.7478C113.913 27.6294 113.479 27.511 113.045 27.3926L112.887 28.0241C113.321 28.1425 113.755 28.2609 114.229 28.3794L115.453 28.6951Z" fill="white"/>
<path d="M120.742 29.6426L118.61 28.8532L118.176 28.6953L118.018 29.3663L120.505 30.2742L120.742 29.6426Z" fill="white"/>
<path d="M154.766 55.0225C154.253 54.3121 153.7 53.6016 153.148 52.8911L152.634 53.2858C153.187 53.9963 153.7 54.7068 154.253 55.4173L154.766 55.0225Z" fill="white"/>
<path d="M125.478 32.2082L125.755 31.6161C125.36 31.4187 124.965 31.2214 124.531 31.0635L123.229 30.5898L122.992 31.2214L124.294 31.695C124.728 31.8135 125.084 32.0108 125.478 32.2082Z" fill="white"/>
<path d="M107.683 26.4006L107.582 27.064L110.235 27.4682L110.336 26.8048L107.683 26.4006Z" fill="white"/>
<path d="M104.953 26.6428L105.032 25.9718L104.322 25.8928L102.348 25.7744L102.309 26.4454L104.243 26.5244L104.953 26.6428Z" fill="white"/>
<path d="M130.61 33.9054L128.202 32.7607L127.886 33.3528L130.333 34.5369L130.61 33.9054Z" fill="white"/>
<path d="M147.385 47.2468L147.858 46.7731L147.543 46.4573C146.99 45.9442 146.477 45.4311 145.885 44.918L145.451 45.4311C146.003 45.9442 146.556 46.4573 147.069 46.9705L147.385 47.2468Z" fill="white"/>
<path d="M151.45 50.76C150.858 50.089 150.306 49.3785 149.674 48.7075L149.161 49.1417C149.753 49.8127 150.345 50.4837 150.898 51.1547L151.45 50.76Z" fill="white"/>
<path d="M139.688 39.7473C138.977 39.1947 138.228 38.6816 137.517 38.1685L137.122 38.721C137.833 39.2342 138.583 39.7473 139.293 40.2999L139.688 39.7473Z" fill="white"/>
<path d="M143.872 43.102C143.201 42.51 142.49 41.9574 141.78 41.4048L141.346 41.9179C142.056 42.4705 142.727 43.0231 143.398 43.6152L143.872 43.102Z" fill="white"/>
<path d="M96.9803 21.1958C55.1805 21.1958 21.1565 55.2198 21.1565 97.0196C21.1565 138.819 55.1805 172.843 96.9803 172.843C138.78 172.843 172.804 138.819 172.804 97.0196C172.804 55.2198 138.78 21.1958 96.9803 21.1958ZM96.9803 170.949C56.2067 170.949 23.0511 137.793 23.0511 97.0196C23.0511 56.2461 56.2067 23.0904 96.9803 23.0904C137.754 23.0904 170.909 56.2461 170.909 97.0196C170.909 137.793 137.754 170.949 96.9803 170.949Z" fill="white"/>
<path d="M96.9803 0C43.4971 0 0 43.4971 0 96.9803C0 150.463 43.4971 194 96.9803 194C150.463 194 193.961 150.503 193.961 97.0197C193.961 43.5365 150.463 0 96.9803 0ZM96.9803 190.25C45.589 190.25 3.74975 148.411 3.74975 97.0197C3.74975 45.6285 45.5495 3.78922 96.9803 3.78922C148.372 3.78922 190.211 45.6285 190.211 97.0197C190.211 148.411 148.372 190.25 96.9803 190.25Z" fill="white"/>
<path d="M85.3363 60.7856H76.0211V63.1934H85.3363V60.7856Z" fill="white"/>
<path d="M100.059 56.6016H90.7439V59.0093H100.059V56.6016Z" fill="white"/>
<path d="M114.703 60.7856H105.388V63.1934H114.703V60.7856Z" fill="white"/>
<path d="M112.019 56.6016H108.151V59.0093H112.019V56.6016Z" fill="white"/>
<path d="M97.3356 52.3779H93.4674V54.7857H97.3356V52.3779Z" fill="white"/>
<path d="M101.322 52.3779H99.3879V54.7857H101.322V52.3779Z" fill="white"/>
<path d="M91.4148 52.3779H89.4807V54.7857H91.4148V52.3779Z" fill="white"/>
<path d="M105.427 56.6016H102.861V59.0093H105.427V56.6016Z" fill="white"/>
<path d="M83.2444 56.6016H79.3762V59.0093H83.2444V56.6016Z" fill="white"/>
<path d="M88.5729 56.6016H86.0073V59.0093H88.5729V56.6016Z" fill="white"/>
<path d="M102.269 60.7856H88.573V63.1934H102.269V60.7856Z" fill="white"/>
<path d="M85.3363 130.57H76.0211V132.978H85.3363V130.57Z" fill="white"/>
<path d="M100.059 134.754H90.7439V137.162H100.059V134.754Z" fill="white"/>
<path d="M114.703 130.57H105.388V132.978H114.703V130.57Z" fill="white"/>
<path d="M112.019 134.754H108.151V137.162H112.019V134.754Z" fill="white"/>
<path d="M97.3356 138.938H93.4674V141.346H97.3356V138.938Z" fill="white"/>
<path d="M101.322 138.938H99.3879V141.346H101.322V138.938Z" fill="white"/>
<path d="M91.4148 138.938H89.4807V141.346H91.4148V138.938Z" fill="white"/>
<path d="M105.427 134.754H102.861V137.162H105.427V134.754Z" fill="white"/>
<path d="M83.2444 134.754H79.3762V137.162H83.2444V134.754Z" fill="white"/>
<path d="M88.5729 134.754H86.0073V137.162H88.5729V134.754Z" fill="white"/>
<path d="M102.269 130.57H88.573V132.978H102.269V130.57Z" fill="white"/>
<path d="M132.702 108.466H130.294V117.781H132.702V108.466Z" fill="white"/>
<path d="M136.885 93.7437H134.478V103.059H136.885V93.7437Z" fill="white"/>
<path d="M132.702 79.0996H130.294V88.4148H132.702V79.0996Z" fill="white"/>
<path d="M136.885 81.7837H134.478V85.6518H136.885V81.7837Z" fill="white"/>
<path d="M141.069 96.5063H138.662V100.375H141.069V96.5063Z" fill="white"/>
<path d="M141.069 92.4805H138.662V94.4145H141.069V92.4805Z" fill="white"/>
<path d="M141.069 102.388H138.662V104.322H141.069V102.388Z" fill="white"/>
<path d="M136.885 88.4546H134.478V91.0202H136.885V88.4546Z" fill="white"/>
<path d="M136.885 110.598H134.478V114.466H136.885V110.598Z" fill="white"/>
<path d="M136.885 105.27H134.478V107.835H136.885V105.27Z" fill="white"/>
<path d="M132.702 91.5728H130.294V105.269H132.702V91.5728Z" fill="white"/>
<path d="M64.101 108.466H61.6932V117.781H64.101V108.466Z" fill="white"/>
<path d="M59.917 93.7437H57.5093V103.059H59.917V93.7437Z" fill="white"/>
<path d="M64.101 79.0996H61.6932V88.4148H64.101V79.0996Z" fill="white"/>
<path d="M59.917 81.7837H57.5093V85.6518H59.917V81.7837Z" fill="white"/>
<path d="M55.7331 96.5063H53.3253V100.375H55.7331V96.5063Z" fill="white"/>
<path d="M55.7331 92.4805H53.3253V94.4145H55.7331V92.4805Z" fill="white"/>
<path d="M55.7331 102.388H53.3253V104.322H55.7331V102.388Z" fill="white"/>
<path d="M59.917 88.4546H57.5093V91.0202H59.917V88.4546Z" fill="white"/>
<path d="M59.917 110.598H57.5093V114.466H59.917V110.598Z" fill="white"/>
<path d="M59.917 105.27H57.5093V107.835H59.917V105.27Z" fill="white"/>
<path d="M64.101 91.5728H61.6932V105.269H64.101V91.5728Z" fill="white"/>
</svg>
